  0
SECTION
  2
BLOCKS
  0
ENDSEC
  0
SECTION
  2
ENTITIES
  0
LINE
  8
0
 10
170.18
 20
0
 11
0
 21
0
  0
LINE
  8
0
 10
0
 20
0
 11
0
 21
-170.18
  0
LINE
  8
0
 10
0
 20
-170.18
 11
170.18
 21
-170.18
  0
LINE
  8
0
 10
170.18
 20
-170.18
 11
170.18
 21
0
  0
LINE
  8
0
 10
5.8432
 20
-11.7197
 11
5.38603
 21
-11.4868
  0
LINE
  8
0
 10
5.38603
 20
-11.4868
 11
5.02321
 21
-11.124
  0
LINE
  8
0
 10
5.02321
 20
-11.124
 11
4.79025
 21
-10.6668
  0
LINE
  8
0
 10
4.79025
 20
-10.6668
 11
4.70999
 21
-10.16
  0
LINE
  8
0
 10
4.70999
 20
-10.16
 11
4.79025
 21
-9.6532
  0
LINE
  8
0
 10
4.79025
 20
-9.6532
 11
5.02321
 21
-9.19603
  0
LINE
  8
0
 10
5.02321
 20
-9.19603
 11
5.38603
 21
-8.83321
  0
LINE
  8
0
 10
5.38603
 20
-8.83321
 11
5.8432
 21
-8.60027
  0
LINE
  8
0
 10
5.8432
 20
-8.60027
 11
6.34999
 21
-8.51999
  0
LINE
  8
0
 10
6.34999
 20
-8.51999
 11
6.85678
 21
-8.60027
  0
LINE
  8
0
 10
6.85678
 20
-8.60027
 11
7.31396
 21
-8.83321
  0
LINE
  8
0
 10
7.31396
 20
-8.83321
 11
7.67677
 21
-9.19603
  0
LINE
  8
0
 10
7.67677
 20
-9.19603
 11
7.90973
 21
-9.6532
  0
LINE
  8
0
 10
7.90973
 20
-9.6532
 11
7.98999
 21
-10.16
  0
LINE
  8
0
 10
7.98999
 20
-10.16
 11
7.90973
 21
-10.6668
  0
LINE
  8
0
 10
7.90973
 20
-10.6668
 11
7.67677
 21
-11.124
  0
LINE
  8
0
 10
7.67677
 20
-11.124
 11
7.31396
 21
-11.4868
  0
LINE
  8
0
 10
7.31396
 20
-11.4868
 11
6.85678
 21
-11.7197
  0
LINE
  8
0
 10
6.85678
 20
-11.7197
 11
6.34999
 21
-11.8
  0
LINE
  8
0
 10
6.34999
 20
-11.8
 11
5.8432
 21
-11.7197
  0
LINE
  8
0
 10
163.323
 20
-34.5797
 11
162.866
 21
-34.3468
  0
LINE
  8
0
 10
162.866
 20
-34.3468
 11
162.503
 21
-33.984
  0
LINE
  8
0
 10
162.503
 20
-33.984
 11
162.27
 21
-33.5268
  0
LINE
  8
0
 10
162.27
 20
-33.5268
 11
162.19
 21
-33.02
  0
LINE
  8
0
 10
162.19
 20
-33.02
 11
162.27
 21
-32.5132
  0
LINE
  8
0
 10
162.27
 20
-32.5132
 11
162.503
 21
-32.056
  0
LINE
  8
0
 10
162.503
 20
-32.056
 11
162.866
 21
-31.6932
  0
LINE
  8
0
 10
162.866
 20
-31.6932
 11
163.323
 21
-31.4603
  0
LINE
  8
0
 10
163.323
 20
-31.4603
 11
163.83
 21
-31.38
  0
LINE
  8
0
 10
163.83
 20
-31.38
 11
164.337
 21
-31.4603
  0
LINE
  8
0
 10
164.337
 20
-31.4603
 11
164.794
 21
-31.6932
  0
LINE
  8
0
 10
164.794
 20
-31.6932
 11
165.157
 21
-32.056
  0
LINE
  8
0
 10
165.157
 20
-32.056
 11
165.39
 21
-32.5132
  0
LINE
  8
0
 10
165.39
 20
-32.5132
 11
165.47
 21
-33.02
  0
LINE
  8
0
 10
165.47
 20
-33.02
 11
165.39
 21
-33.5268
  0
LINE
  8
0
 10
165.39
 20
-33.5268
 11
165.157
 21
-33.984
  0
LINE
  8
0
 10
165.157
 20
-33.984
 11
164.794
 21
-34.3468
  0
LINE
  8
0
 10
164.794
 20
-34.3468
 11
164.337
 21
-34.5797
  0
LINE
  8
0
 10
164.337
 20
-34.5797
 11
163.83
 21
-34.66
  0
LINE
  8
0
 10
163.83
 20
-34.66
 11
163.323
 21
-34.5797
  0
LINE
  8
0
 10
5.8432
 20
-166.66
 11
5.38603
 21
-166.427
  0
LINE
  8
0
 10
5.38603
 20
-166.427
 11
5.02321
 21
-166.064
  0
LINE
  8
0
 10
5.02321
 20
-166.064
 11
4.79025
 21
-165.607
  0
LINE
  8
0
 10
4.79025
 20
-165.607
 11
4.70999
 21
-165.1
  0
LINE
  8
0
 10
4.70999
 20
-165.1
 11
4.79025
 21
-164.593
  0
LINE
  8
0
 10
4.79025
 20
-164.593
 11
5.02321
 21
-164.136
  0
LINE
  8
0
 10
5.02321
 20
-164.136
 11
5.38603
 21
-163.773
  0
LINE
  8
0
 10
5.38603
 20
-163.773
 11
5.8432
 21
-163.54
  0
LINE
  8
0
 10
5.8432
 20
-163.54
 11
6.34999
 21
-163.46
  0
LINE
  8
0
 10
6.34999
 20
-163.46
 11
6.85678
 21
-163.54
  0
LINE
  8
0
 10
6.85678
 20
-163.54
 11
7.31396
 21
-163.773
  0
LINE
  8
0
 10
7.31396
 20
-163.773
 11
7.67677
 21
-164.136
  0
LINE
  8
0
 10
7.67677
 20
-164.136
 11
7.90973
 21
-164.593
  0
LINE
  8
0
 10
7.90973
 20
-164.593
 11
7.98999
 21
-165.1
  0
LINE
  8
0
 10
7.98999
 20
-165.1
 11
7.90973
 21
-165.607
  0
LINE
  8
0
 10
7.90973
 20
-165.607
 11
7.67677
 21
-166.064
  0
LINE
  8
0
 10
7.67677
 20
-166.064
 11
7.31396
 21
-166.427
  0
LINE
  8
0
 10
7.31396
 20
-166.427
 11
6.85678
 21
-166.66
  0
LINE
  8
0
 10
6.85678
 20
-166.66
 11
6.34999
 21
-166.74
  0
LINE
  8
0
 10
6.34999
 20
-166.74
 11
5.8432
 21
-166.66
  0
LINE
  8
0
 10
163.323
 20
-166.66
 11
162.866
 21
-166.427
  0
LINE
  8
0
 10
162.866
 20
-166.427
 11
162.503
 21
-166.064
  0
LINE
  8
0
 10
162.503
 20
-166.064
 11
162.27
 21
-165.607
  0
LINE
  8
0
 10
162.27
 20
-165.607
 11
162.19
 21
-165.1
  0
LINE
  8
0
 10
162.19
 20
-165.1
 11
162.27
 21
-164.593
  0
LINE
  8
0
 10
162.27
 20
-164.593
 11
162.503
 21
-164.136
  0
LINE
  8
0
 10
162.503
 20
-164.136
 11
162.866
 21
-163.773
  0
LINE
  8
0
 10
162.866
 20
-163.773
 11
163.323
 21
-163.54
  0
LINE
  8
0
 10
163.323
 20
-163.54
 11
163.83
 21
-163.46
  0
LINE
  8
0
 10
163.83
 20
-163.46
 11
164.337
 21
-163.54
  0
LINE
  8
0
 10
164.337
 20
-163.54
 11
164.794
 21
-163.773
  0
LINE
  8
0
 10
164.794
 20
-163.773
 11
165.157
 21
-164.136
  0
LINE
  8
0
 10
165.157
 20
-164.136
 11
165.39
 21
-164.593
  0
LINE
  8
0
 10
165.39
 20
-164.593
 11
165.47
 21
-165.1
  0
LINE
  8
0
 10
165.47
 20
-165.1
 11
165.39
 21
-165.607
  0
LINE
  8
0
 10
165.39
 20
-165.607
 11
165.157
 21
-166.064
  0
LINE
  8
0
 10
165.157
 20
-166.064
 11
164.794
 21
-166.427
  0
LINE
  8
0
 10
164.794
 20
-166.427
 11
164.337
 21
-166.66
  0
LINE
  8
0
 10
164.337
 20
-166.66
 11
163.83
 21
-166.74
  0
LINE
  8
0
 10
163.83
 20
-166.74
 11
163.323
 21
-166.66
  0
ENDSEC
  0
SECTION
  2
OBJECTS
  0
DICTIONARY
  0
ENDSEC
  0
EOF
