G04 #@! TF.GenerationSoftware,KiCad,Pcbnew,5.0.2-bee76a0~70~ubuntu18.04.1*
G04 #@! TF.CreationDate,2019-01-12T22:56:13+00:00*
G04 #@! TF.ProjectId,monotron,6d6f6e6f-7472-46f6-9e2e-6b696361645f,0.5.0*
G04 #@! TF.SameCoordinates,Original*
G04 #@! TF.FileFunction,Copper,L1,Top*
G04 #@! TF.FilePolarity,Positive*
%FSLAX46Y46*%
G04 Gerber Fmt 4.6, Leading zero omitted, Abs format (unit mm)*
G04 Created by KiCad (PCBNEW 5.0.2-bee76a0~70~ubuntu18.04.1) date Sat 12 Jan 2019 22:56:13 GMT*
%MOMM*%
%LPD*%
G01*
G04 APERTURE LIST*
G04 #@! TA.AperFunction,ComponentPad*
%ADD10C,1.524000*%
G04 #@! TD*
G04 #@! TA.AperFunction,ComponentPad*
%ADD11C,2.400000*%
G04 #@! TD*
G04 #@! TA.AperFunction,ComponentPad*
%ADD12O,2.400000X2.400000*%
G04 #@! TD*
G04 #@! TA.AperFunction,ComponentPad*
%ADD13R,1.600000X1.600000*%
G04 #@! TD*
G04 #@! TA.AperFunction,ComponentPad*
%ADD14C,1.600000*%
G04 #@! TD*
G04 #@! TA.AperFunction,ComponentPad*
%ADD15C,4.000000*%
G04 #@! TD*
G04 #@! TA.AperFunction,ComponentPad*
%ADD16O,1.800000X2.800000*%
G04 #@! TD*
G04 #@! TA.AperFunction,ComponentPad*
%ADD17C,2.100000*%
G04 #@! TD*
G04 #@! TA.AperFunction,ComponentPad*
%ADD18R,1.700000X1.700000*%
G04 #@! TD*
G04 #@! TA.AperFunction,ComponentPad*
%ADD19O,1.700000X1.700000*%
G04 #@! TD*
G04 #@! TA.AperFunction,ComponentPad*
%ADD20C,2.990000*%
G04 #@! TD*
G04 #@! TA.AperFunction,ComponentPad*
%ADD21O,1.600000X1.600000*%
G04 #@! TD*
G04 #@! TA.AperFunction,ComponentPad*
%ADD22R,2.600000X2.600000*%
G04 #@! TD*
G04 #@! TA.AperFunction,ComponentPad*
%ADD23C,2.600000*%
G04 #@! TD*
G04 #@! TA.AperFunction,ComponentPad*
%ADD24R,1.800000X1.800000*%
G04 #@! TD*
G04 #@! TA.AperFunction,ComponentPad*
%ADD25O,1.800000X1.800000*%
G04 #@! TD*
G04 #@! TA.AperFunction,ComponentPad*
%ADD26C,1.200000*%
G04 #@! TD*
G04 #@! TA.AperFunction,ViaPad*
%ADD27C,0.800000*%
G04 #@! TD*
G04 #@! TA.AperFunction,Conductor*
%ADD28C,0.250000*%
G04 #@! TD*
G04 APERTURE END LIST*
D10*
G04 #@! TO.P,U1,2.10*
G04 #@! TO.N,/PA2_SD_CLK*
X132080000Y-60960000D03*
G04 #@! TO.P,U1,2.9*
G04 #@! TO.N,/PA3_SD_CS*
X129540000Y-60960000D03*
G04 #@! TO.P,U1,2.8*
G04 #@! TO.N,/PA4_SD_MISO*
X127000000Y-60960000D03*
G04 #@! TO.P,U1,2.7*
G04 #@! TO.N,/PB6_SPARE*
X124460000Y-60960000D03*
G04 #@! TO.P,U1,2.6*
G04 #@! TO.N,/PB7_VGA_GRN*
X121920000Y-60960000D03*
G04 #@! TO.P,U1,2.5*
G04 #@! TO.N,Net-(U1-Pad2.5)*
X119380000Y-60960000D03*
G04 #@! TO.P,U1,2.4*
G04 #@! TO.N,/BUTTON_1*
X116840000Y-60960000D03*
G04 #@! TO.P,U1,2.3*
G04 #@! TO.N,/PE0_U7RX*
X114300000Y-60960000D03*
G04 #@! TO.P,U1,2.2*
G04 #@! TO.N,/PB2_SPARE*
X111760000Y-60960000D03*
G04 #@! TO.P,U1,2.1*
G04 #@! TO.N,GND*
X109220000Y-60960000D03*
G04 #@! TO.P,U1,4.10*
G04 #@! TO.N,/PF4_JS_FIRE*
X132080000Y-63500000D03*
G04 #@! TO.P,U1,4.9*
G04 #@! TO.N,/PD7_JS_RIGHT*
X129540000Y-63500000D03*
G04 #@! TO.P,U1,4.8*
G04 #@! TO.N,/PD6_JS_LEFT*
X127000000Y-63500000D03*
G04 #@! TO.P,U1,4.7*
G04 #@! TO.N,/PC7_MIDI_OUT*
X124460000Y-63500000D03*
G04 #@! TO.P,U1,4.6*
G04 #@! TO.N,/PC6_MIDI_IN*
X121920000Y-63500000D03*
G04 #@! TO.P,U1,4.5*
G04 #@! TO.N,/PC5_U1CTS*
X119380000Y-63500000D03*
G04 #@! TO.P,U1,4.4*
G04 #@! TO.N,/PC4_U1RTS*
X116840000Y-63500000D03*
G04 #@! TO.P,U1,4.3*
G04 #@! TO.N,/PB3_SPARE*
X114300000Y-63500000D03*
G04 #@! TO.P,U1,4.2*
G04 #@! TO.N,/GREEN_LED*
X111760000Y-63500000D03*
G04 #@! TO.P,U1,4.1*
G04 #@! TO.N,/BLUE_LED*
X109220000Y-63500000D03*
G04 #@! TO.P,U1,3.1*
G04 #@! TO.N,+5V*
X109220000Y-104140000D03*
G04 #@! TO.P,U1,3.4*
G04 #@! TO.N,Net-(U1-Pad3.4)*
X116840000Y-104140000D03*
G04 #@! TO.P,U1,3.6*
G04 #@! TO.N,/PD3_VGA_BLU*
X121920000Y-104140000D03*
G04 #@! TO.P,U1,3.8*
G04 #@! TO.N,/PE2_JS_UP*
X127000000Y-104140000D03*
G04 #@! TO.P,U1,3.9*
G04 #@! TO.N,/PE3_JS_DOWN*
X129540000Y-104140000D03*
G04 #@! TO.P,U1,3.10*
G04 #@! TO.N,/PF1_VGA_RED*
X132080000Y-104140000D03*
G04 #@! TO.P,U1,3.7*
G04 #@! TO.N,/PE1_U7TX*
X124460000Y-104140000D03*
G04 #@! TO.P,U1,3.5*
G04 #@! TO.N,/PD2_SPARE*
X119380000Y-104140000D03*
G04 #@! TO.P,U1,3.2*
G04 #@! TO.N,GND*
X111760000Y-104140000D03*
G04 #@! TO.P,U1,3.3*
G04 #@! TO.N,Net-(U1-Pad3.3)*
X114300000Y-104140000D03*
G04 #@! TO.P,U1,1.10*
G04 #@! TO.N,/PA7_I2C_SDA*
X132080000Y-106680000D03*
G04 #@! TO.P,U1,1.9*
G04 #@! TO.N,/PA6_I2C_SCL*
X129540000Y-106680000D03*
G04 #@! TO.P,U1,1.8*
G04 #@! TO.N,/PA5_SD_MOSI*
X127000000Y-106680000D03*
G04 #@! TO.P,U1,1.7*
G04 #@! TO.N,/PB4_VGA_HSYNC*
X124460000Y-106680000D03*
G04 #@! TO.P,U1,1.6*
G04 #@! TO.N,/PE5_AUDIO_R*
X121920000Y-106680000D03*
G04 #@! TO.P,U1,1.5*
G04 #@! TO.N,/PE4_AUDIO_L*
X119380000Y-106680000D03*
G04 #@! TO.P,U1,1.4*
G04 #@! TO.N,/PB1_U1TX*
X116840000Y-106680000D03*
G04 #@! TO.P,U1,1.3*
G04 #@! TO.N,/PB0_U1RX*
X114300000Y-106680000D03*
G04 #@! TO.P,U1,1.2*
G04 #@! TO.N,/PB5_VGA_VSYNC*
X111760000Y-106680000D03*
G04 #@! TO.P,U1,1.1*
G04 #@! TO.N,+3V3*
X109220000Y-106680000D03*
G04 #@! TD*
D11*
G04 #@! TO.P,R4,1*
G04 #@! TO.N,/PE5_AUDIO_R*
X111760000Y-95885000D03*
D12*
G04 #@! TO.P,R4,2*
G04 #@! TO.N,Net-(C2-Pad1)*
X111760000Y-83185000D03*
G04 #@! TD*
D13*
G04 #@! TO.P,J7,1*
G04 #@! TO.N,Net-(J7-Pad1)*
X99625000Y-47775000D03*
D14*
G04 #@! TO.P,J7,2*
G04 #@! TO.N,Net-(J7-Pad2)*
X101915000Y-47775000D03*
G04 #@! TO.P,J7,3*
G04 #@! TO.N,Net-(J7-Pad3)*
X104205000Y-47775000D03*
G04 #@! TO.P,J7,4*
G04 #@! TO.N,Net-(J7-Pad4)*
X106495000Y-47775000D03*
G04 #@! TO.P,J7,5*
G04 #@! TO.N,GND*
X108785000Y-47775000D03*
G04 #@! TO.P,J7,6*
X98480000Y-45795000D03*
G04 #@! TO.P,J7,7*
X100770000Y-45795000D03*
G04 #@! TO.P,J7,8*
X103060000Y-45795000D03*
G04 #@! TO.P,J7,9*
G04 #@! TO.N,Net-(J7-Pad9)*
X105350000Y-45795000D03*
G04 #@! TO.P,J7,10*
G04 #@! TO.N,Net-(J7-Pad10)*
X107640000Y-45795000D03*
G04 #@! TO.P,J7,11*
G04 #@! TO.N,Net-(J7-Pad11)*
X99625000Y-43815000D03*
G04 #@! TO.P,J7,12*
G04 #@! TO.N,Net-(J7-Pad12)*
X101915000Y-43815000D03*
G04 #@! TO.P,J7,13*
G04 #@! TO.N,/PB4_VGA_HSYNC*
X104205000Y-43815000D03*
G04 #@! TO.P,J7,14*
G04 #@! TO.N,/PB5_VGA_VSYNC*
X106495000Y-43815000D03*
G04 #@! TO.P,J7,15*
G04 #@! TO.N,Net-(J7-Pad15)*
X108785000Y-43815000D03*
D15*
G04 #@! TO.P,J7,0*
G04 #@! TO.N,GND*
X116440000Y-46355000D03*
X91440000Y-46355000D03*
G04 #@! TD*
D16*
G04 #@! TO.P,J4,S*
G04 #@! TO.N,GND*
X205600000Y-57055000D03*
G04 #@! TO.P,J4,T*
G04 #@! TO.N,Net-(J1-Pad2)*
X203200000Y-59055000D03*
G04 #@! TO.P,J4,R*
G04 #@! TO.N,Net-(C1-Pad2)*
X197700000Y-59055000D03*
G04 #@! TD*
D17*
G04 #@! TO.P,J9,6*
G04 #@! TO.N,N/C*
X151845000Y-126920000D03*
G04 #@! TO.P,J9,7*
X161845000Y-126920000D03*
G04 #@! TO.P,J9,4*
G04 #@! TO.N,Net-(J9-Pad4)*
X161845000Y-114420000D03*
G04 #@! TO.P,J9,5*
G04 #@! TO.N,Net-(J9-Pad5)*
X151845000Y-114420000D03*
G04 #@! TO.P,J9,2*
G04 #@! TO.N,GND*
X156845000Y-116920000D03*
G04 #@! TO.P,J9,3*
G04 #@! TO.N,Net-(J9-Pad3)*
X149345000Y-116920000D03*
G04 #@! TO.P,J9,1*
G04 #@! TO.N,Net-(J9-Pad1)*
X164345000Y-116920000D03*
G04 #@! TD*
G04 #@! TO.P,J10,1*
G04 #@! TO.N,Net-(J10-Pad1)*
X184665000Y-116840000D03*
G04 #@! TO.P,J10,3*
G04 #@! TO.N,Net-(J10-Pad3)*
X169665000Y-116840000D03*
G04 #@! TO.P,J10,2*
G04 #@! TO.N,GND*
X177165000Y-116840000D03*
G04 #@! TO.P,J10,5*
G04 #@! TO.N,Net-(J10-Pad5)*
X172165000Y-114340000D03*
G04 #@! TO.P,J10,4*
G04 #@! TO.N,Net-(J10-Pad4)*
X182165000Y-114340000D03*
G04 #@! TO.P,J10,7*
G04 #@! TO.N,N/C*
X182165000Y-126840000D03*
G04 #@! TO.P,J10,6*
X172165000Y-126840000D03*
G04 #@! TD*
G04 #@! TO.P,J11,6*
G04 #@! TO.N,N/C*
X192365000Y-126840000D03*
G04 #@! TO.P,J11,7*
X202365000Y-126840000D03*
G04 #@! TO.P,J11,4*
G04 #@! TO.N,Net-(J11-Pad4)*
X202365000Y-114340000D03*
G04 #@! TO.P,J11,5*
G04 #@! TO.N,Net-(D1-Pad2)*
X192365000Y-114340000D03*
G04 #@! TO.P,J11,2*
G04 #@! TO.N,Net-(J11-Pad2)*
X197365000Y-116840000D03*
G04 #@! TO.P,J11,3*
G04 #@! TO.N,Net-(J11-Pad3)*
X189865000Y-116840000D03*
G04 #@! TO.P,J11,1*
G04 #@! TO.N,Net-(J11-Pad1)*
X204865000Y-116840000D03*
G04 #@! TD*
D18*
G04 #@! TO.P,J1,1*
G04 #@! TO.N,Net-(C1-Pad2)*
X196850000Y-71755000D03*
D19*
G04 #@! TO.P,J1,2*
G04 #@! TO.N,Net-(J1-Pad2)*
X199390000Y-71755000D03*
G04 #@! TO.P,J1,3*
G04 #@! TO.N,Net-(C2-Pad2)*
X201930000Y-71755000D03*
G04 #@! TD*
D13*
G04 #@! TO.P,J12,1*
G04 #@! TO.N,/DCD*
X196475000Y-46505000D03*
D14*
G04 #@! TO.P,J12,2*
G04 #@! TO.N,/RS232_RX*
X193705000Y-46505000D03*
G04 #@! TO.P,J12,3*
G04 #@! TO.N,/RS232_TX*
X190935000Y-46505000D03*
G04 #@! TO.P,J12,4*
G04 #@! TO.N,/DTR*
X188165000Y-46505000D03*
G04 #@! TO.P,J12,5*
G04 #@! TO.N,GND*
X185395000Y-46505000D03*
G04 #@! TO.P,J12,6*
G04 #@! TO.N,/DSR*
X195090000Y-43665000D03*
G04 #@! TO.P,J12,7*
G04 #@! TO.N,/RS232_RTS*
X192320000Y-43665000D03*
G04 #@! TO.P,J12,8*
G04 #@! TO.N,/RS232_CTS*
X189550000Y-43665000D03*
G04 #@! TO.P,J12,9*
G04 #@! TO.N,/RI*
X186780000Y-43665000D03*
D15*
G04 #@! TO.P,J12,0*
G04 #@! TO.N,N/C*
X203435000Y-45085000D03*
X178435000Y-45085000D03*
G04 #@! TD*
D20*
G04 #@! TO.P,J14,9*
G04 #@! TO.N,N/C*
X112620000Y-124030000D03*
G04 #@! TO.P,J14,8*
X119380000Y-124840000D03*
G04 #@! TO.P,J14,7*
X126140000Y-124030000D03*
D14*
G04 #@! TO.P,J14,6*
G04 #@! TO.N,Net-(J14-Pad6)*
X122730000Y-118540000D03*
G04 #@! TO.P,J14,5*
G04 #@! TO.N,/Monotron I/O Expansion/KB_CLK*
X116030000Y-118540000D03*
G04 #@! TO.P,J14,4*
G04 #@! TO.N,+5V*
X122730000Y-121030000D03*
G04 #@! TO.P,J14,3*
G04 #@! TO.N,GND*
X116030000Y-121030000D03*
G04 #@! TO.P,J14,2*
G04 #@! TO.N,Net-(J14-Pad2)*
X120680000Y-121030000D03*
G04 #@! TO.P,J14,1*
G04 #@! TO.N,/Monotron I/O Expansion/KB_DATA*
X118080000Y-121030000D03*
G04 #@! TD*
D20*
G04 #@! TO.P,J15,9*
G04 #@! TO.N,N/C*
X130400000Y-124030000D03*
G04 #@! TO.P,J15,8*
X137160000Y-124840000D03*
G04 #@! TO.P,J15,7*
X143920000Y-124030000D03*
D14*
G04 #@! TO.P,J15,6*
G04 #@! TO.N,Net-(J15-Pad6)*
X140510000Y-118540000D03*
G04 #@! TO.P,J15,5*
G04 #@! TO.N,/Monotron I/O Expansion/MS_CLK*
X133810000Y-118540000D03*
G04 #@! TO.P,J15,4*
G04 #@! TO.N,+5V*
X140510000Y-121030000D03*
G04 #@! TO.P,J15,3*
G04 #@! TO.N,GND*
X133810000Y-121030000D03*
G04 #@! TO.P,J15,2*
G04 #@! TO.N,Net-(J15-Pad2)*
X138460000Y-121030000D03*
G04 #@! TO.P,J15,1*
G04 #@! TO.N,/Monotron I/O Expansion/MS_DATA*
X135860000Y-121030000D03*
G04 #@! TD*
D13*
G04 #@! TO.P,U5,1*
G04 #@! TO.N,/Monotron I/O Expansion/SELPRIN*
X158750000Y-86360000D03*
D21*
G04 #@! TO.P,U5,15*
G04 #@! TO.N,/Monotron I/O Expansion/D1*
X151130000Y-53340000D03*
G04 #@! TO.P,U5,2*
G04 #@! TO.N,/PE1_U7TX*
X158750000Y-83820000D03*
G04 #@! TO.P,U5,16*
G04 #@! TO.N,/Monotron I/O Expansion/D2*
X151130000Y-55880000D03*
G04 #@! TO.P,U5,3*
G04 #@! TO.N,/PE0_U7RX*
X158750000Y-81280000D03*
G04 #@! TO.P,U5,17*
G04 #@! TO.N,/Monotron I/O Expansion/D3*
X151130000Y-58420000D03*
G04 #@! TO.P,U5,4*
G04 #@! TO.N,/Monotron I/O Expansion/ACK*
X158750000Y-78740000D03*
G04 #@! TO.P,U5,18*
G04 #@! TO.N,/Monotron I/O Expansion/D4*
X151130000Y-60960000D03*
G04 #@! TO.P,U5,5*
G04 #@! TO.N,/Monotron I/O Expansion/BUSY*
X158750000Y-76200000D03*
G04 #@! TO.P,U5,19*
G04 #@! TO.N,/Monotron I/O Expansion/D5*
X151130000Y-63500000D03*
G04 #@! TO.P,U5,6*
G04 #@! TO.N,/Monotron I/O Expansion/PE*
X158750000Y-73660000D03*
G04 #@! TO.P,U5,20*
G04 #@! TO.N,+5V*
X151130000Y-66040000D03*
G04 #@! TO.P,U5,7*
X158750000Y-71120000D03*
G04 #@! TO.P,U5,21*
X151130000Y-68580000D03*
G04 #@! TO.P,U5,8*
G04 #@! TO.N,GND*
X158750000Y-68580000D03*
G04 #@! TO.P,U5,22*
X151130000Y-71120000D03*
G04 #@! TO.P,U5,9*
G04 #@! TO.N,/Monotron I/O Expansion/D6*
X158750000Y-66040000D03*
G04 #@! TO.P,U5,23*
G04 #@! TO.N,/Monotron I/O Expansion/KB_CLK*
X151130000Y-73660000D03*
G04 #@! TO.P,U5,10*
G04 #@! TO.N,/Monotron I/O Expansion/D7*
X158750000Y-63500000D03*
G04 #@! TO.P,U5,24*
G04 #@! TO.N,/Monotron I/O Expansion/MS_CLK*
X151130000Y-76200000D03*
G04 #@! TO.P,U5,11*
G04 #@! TO.N,/Monotron I/O Expansion/ERROR*
X158750000Y-60960000D03*
G04 #@! TO.P,U5,25*
G04 #@! TO.N,/Monotron I/O Expansion/KB_DATA*
X151130000Y-78740000D03*
G04 #@! TO.P,U5,12*
G04 #@! TO.N,/Monotron I/O Expansion/STROBE*
X158750000Y-58420000D03*
G04 #@! TO.P,U5,26*
G04 #@! TO.N,/Monotron I/O Expansion/MS_DATA*
X151130000Y-81280000D03*
G04 #@! TO.P,U5,13*
G04 #@! TO.N,/Monotron I/O Expansion/AUTOF*
X158750000Y-55880000D03*
G04 #@! TO.P,U5,27*
G04 #@! TO.N,/Monotron I/O Expansion/INIT*
X151130000Y-83820000D03*
G04 #@! TO.P,U5,14*
G04 #@! TO.N,/Monotron I/O Expansion/D0*
X158750000Y-53340000D03*
G04 #@! TO.P,U5,28*
G04 #@! TO.N,/Monotron I/O Expansion/SEL*
X151130000Y-86360000D03*
G04 #@! TD*
D22*
G04 #@! TO.P,J2,1*
G04 #@! TO.N,+5V*
X80645000Y-49815000D03*
D23*
G04 #@! TO.P,J2,2*
G04 #@! TO.N,GND*
X80645000Y-43815000D03*
G04 #@! TO.P,J2,3*
G04 #@! TO.N,N/C*
X75945000Y-46815000D03*
G04 #@! TD*
D13*
G04 #@! TO.P,J13,1*
G04 #@! TO.N,/Monotron I/O Expansion/STROBE*
X164630000Y-46505000D03*
D14*
G04 #@! TO.P,J13,2*
G04 #@! TO.N,/Monotron I/O Expansion/D0*
X161860000Y-46505000D03*
G04 #@! TO.P,J13,3*
G04 #@! TO.N,/Monotron I/O Expansion/D1*
X159090000Y-46505000D03*
G04 #@! TO.P,J13,4*
G04 #@! TO.N,/Monotron I/O Expansion/D2*
X156320000Y-46505000D03*
G04 #@! TO.P,J13,5*
G04 #@! TO.N,/Monotron I/O Expansion/D3*
X153550000Y-46505000D03*
G04 #@! TO.P,J13,6*
G04 #@! TO.N,/Monotron I/O Expansion/D4*
X150780000Y-46505000D03*
G04 #@! TO.P,J13,7*
G04 #@! TO.N,/Monotron I/O Expansion/D5*
X148010000Y-46505000D03*
G04 #@! TO.P,J13,8*
G04 #@! TO.N,/Monotron I/O Expansion/D6*
X145240000Y-46505000D03*
G04 #@! TO.P,J13,9*
G04 #@! TO.N,/Monotron I/O Expansion/D7*
X142470000Y-46505000D03*
G04 #@! TO.P,J13,10*
G04 #@! TO.N,/Monotron I/O Expansion/ACK*
X139700000Y-46505000D03*
G04 #@! TO.P,J13,11*
G04 #@! TO.N,/Monotron I/O Expansion/BUSY*
X136930000Y-46505000D03*
G04 #@! TO.P,J13,12*
G04 #@! TO.N,/Monotron I/O Expansion/PE*
X134160000Y-46505000D03*
G04 #@! TO.P,J13,13*
G04 #@! TO.N,/Monotron I/O Expansion/SEL*
X131390000Y-46505000D03*
G04 #@! TO.P,J13,14*
G04 #@! TO.N,/Monotron I/O Expansion/AUTOF*
X163245000Y-43665000D03*
G04 #@! TO.P,J13,15*
G04 #@! TO.N,/Monotron I/O Expansion/ERROR*
X160475000Y-43665000D03*
G04 #@! TO.P,J13,16*
G04 #@! TO.N,/Monotron I/O Expansion/INIT*
X157705000Y-43665000D03*
G04 #@! TO.P,J13,17*
G04 #@! TO.N,/Monotron I/O Expansion/SELPRIN*
X154935000Y-43665000D03*
G04 #@! TO.P,J13,18*
G04 #@! TO.N,GND*
X152165000Y-43665000D03*
G04 #@! TO.P,J13,19*
X149395000Y-43665000D03*
G04 #@! TO.P,J13,20*
X146625000Y-43665000D03*
G04 #@! TO.P,J13,21*
X143855000Y-43665000D03*
G04 #@! TO.P,J13,22*
X141085000Y-43665000D03*
G04 #@! TO.P,J13,23*
X138315000Y-43665000D03*
G04 #@! TO.P,J13,24*
X135545000Y-43665000D03*
G04 #@! TO.P,J13,25*
X132775000Y-43665000D03*
D15*
G04 #@! TO.P,J13,0*
G04 #@! TO.N,N/C*
X171560000Y-45085000D03*
X124460000Y-45085000D03*
G04 #@! TD*
G04 #@! TO.P,J5,0*
G04 #@! TO.N,N/C*
X104775000Y-120015000D03*
X79775000Y-120015000D03*
D14*
G04 #@! TO.P,J5,9*
G04 #@! TO.N,Net-(J5-Pad9)*
X96430000Y-121435000D03*
G04 #@! TO.P,J5,8*
G04 #@! TO.N,GND*
X93660000Y-121435000D03*
G04 #@! TO.P,J5,7*
G04 #@! TO.N,Net-(J5-Pad7)*
X90890000Y-121435000D03*
G04 #@! TO.P,J5,6*
G04 #@! TO.N,/PF4_JS_FIRE*
X88120000Y-121435000D03*
G04 #@! TO.P,J5,5*
G04 #@! TO.N,Net-(J5-Pad5)*
X97815000Y-118595000D03*
G04 #@! TO.P,J5,4*
G04 #@! TO.N,/PD7_JS_RIGHT*
X95045000Y-118595000D03*
G04 #@! TO.P,J5,3*
G04 #@! TO.N,/PD6_JS_LEFT*
X92275000Y-118595000D03*
G04 #@! TO.P,J5,2*
G04 #@! TO.N,/PE3_JS_DOWN*
X89505000Y-118595000D03*
D13*
G04 #@! TO.P,J5,1*
G04 #@! TO.N,/PE2_JS_UP*
X86735000Y-118595000D03*
G04 #@! TD*
D18*
G04 #@! TO.P,J6,1*
G04 #@! TO.N,GND*
X165100000Y-80010000D03*
D19*
G04 #@! TO.P,J6,2*
G04 #@! TO.N,+5V*
X165100000Y-82550000D03*
G04 #@! TO.P,J6,3*
G04 #@! TO.N,/PA7_I2C_SDA*
X165100000Y-85090000D03*
G04 #@! TO.P,J6,4*
G04 #@! TO.N,/PA6_I2C_SCL*
X165100000Y-87630000D03*
G04 #@! TD*
D18*
G04 #@! TO.P,J3,1*
G04 #@! TO.N,Net-(J3-Pad1)*
X75565000Y-70485000D03*
D19*
G04 #@! TO.P,J3,2*
G04 #@! TO.N,/PA4_SD_MISO*
X78105000Y-70485000D03*
G04 #@! TO.P,J3,3*
G04 #@! TO.N,GND*
X80645000Y-70485000D03*
G04 #@! TO.P,J3,4*
G04 #@! TO.N,/PA2_SD_CLK*
X83185000Y-70485000D03*
G04 #@! TO.P,J3,5*
G04 #@! TO.N,+3V3*
X85725000Y-70485000D03*
G04 #@! TO.P,J3,6*
G04 #@! TO.N,/PA5_SD_MOSI*
X88265000Y-70485000D03*
G04 #@! TO.P,J3,7*
G04 #@! TO.N,/PA3_SD_CS*
X90805000Y-70485000D03*
G04 #@! TD*
D18*
G04 #@! TO.P,J8,1*
G04 #@! TO.N,GND*
X169545000Y-66040000D03*
D19*
G04 #@! TO.P,J8,2*
X167005000Y-66040000D03*
G04 #@! TO.P,J8,3*
G04 #@! TO.N,/DTE_CTS*
X169545000Y-63500000D03*
G04 #@! TO.P,J8,4*
G04 #@! TO.N,/PC5_U1CTS*
X167005000Y-63500000D03*
G04 #@! TO.P,J8,5*
G04 #@! TO.N,/DTE_RTS*
X169545000Y-60960000D03*
G04 #@! TO.P,J8,6*
G04 #@! TO.N,/PC4_U1RTS*
X167005000Y-60960000D03*
G04 #@! TO.P,J8,7*
G04 #@! TO.N,/DTE_TX*
X169545000Y-58420000D03*
G04 #@! TO.P,J8,8*
G04 #@! TO.N,/PB1_U1TX*
X167005000Y-58420000D03*
G04 #@! TO.P,J8,9*
G04 #@! TO.N,/DTE_RX*
X169545000Y-55880000D03*
G04 #@! TO.P,J8,10*
G04 #@! TO.N,/PB0_U1RX*
X167005000Y-55880000D03*
G04 #@! TO.P,J8,11*
G04 #@! TO.N,Net-(C7-Pad1)*
X169545000Y-53340000D03*
G04 #@! TO.P,J8,12*
G04 #@! TO.N,+3V3*
X167005000Y-53340000D03*
G04 #@! TD*
D24*
G04 #@! TO.P,D1,1*
G04 #@! TO.N,Net-(D1-Pad1)*
X166370000Y-106045000D03*
D25*
G04 #@! TO.P,D1,2*
G04 #@! TO.N,Net-(D1-Pad2)*
X179070000Y-106045000D03*
G04 #@! TD*
D13*
G04 #@! TO.P,U3,1*
G04 #@! TO.N,/PC6_MIDI_IN*
X148590000Y-101600000D03*
D21*
G04 #@! TO.P,U3,8*
G04 #@! TO.N,Net-(U3-Pad5)*
X163830000Y-93980000D03*
G04 #@! TO.P,U3,2*
G04 #@! TO.N,Net-(U3-Pad2)*
X151130000Y-101600000D03*
G04 #@! TO.P,U3,9*
G04 #@! TO.N,/PC7_MIDI_OUT*
X161290000Y-93980000D03*
G04 #@! TO.P,U3,3*
G04 #@! TO.N,Net-(U3-Pad2)*
X153670000Y-101600000D03*
G04 #@! TO.P,U3,10*
G04 #@! TO.N,Net-(U3-Pad10)*
X158750000Y-93980000D03*
G04 #@! TO.P,U3,4*
G04 #@! TO.N,Net-(R12-Pad1)*
X156210000Y-101600000D03*
G04 #@! TO.P,U3,11*
G04 #@! TO.N,GND*
X156210000Y-93980000D03*
G04 #@! TO.P,U3,5*
G04 #@! TO.N,Net-(U3-Pad5)*
X158750000Y-101600000D03*
G04 #@! TO.P,U3,12*
G04 #@! TO.N,Net-(U3-Pad12)*
X153670000Y-93980000D03*
G04 #@! TO.P,U3,6*
G04 #@! TO.N,Net-(R13-Pad2)*
X161290000Y-101600000D03*
G04 #@! TO.P,U3,13*
G04 #@! TO.N,GND*
X151130000Y-93980000D03*
G04 #@! TO.P,U3,7*
X163830000Y-101600000D03*
G04 #@! TO.P,U3,14*
G04 #@! TO.N,+5V*
X148590000Y-93980000D03*
G04 #@! TD*
D13*
G04 #@! TO.P,U4,1*
G04 #@! TO.N,Net-(U4-Pad1)*
X169545000Y-101600000D03*
D21*
G04 #@! TO.P,U4,5*
G04 #@! TO.N,GND*
X177165000Y-93980000D03*
G04 #@! TO.P,U4,2*
G04 #@! TO.N,Net-(D1-Pad1)*
X172085000Y-101600000D03*
G04 #@! TO.P,U4,6*
G04 #@! TO.N,/PC6_MIDI_IN*
X174625000Y-93980000D03*
G04 #@! TO.P,U4,3*
G04 #@! TO.N,Net-(D1-Pad2)*
X174625000Y-101600000D03*
G04 #@! TO.P,U4,7*
G04 #@! TO.N,Net-(R15-Pad1)*
X172085000Y-93980000D03*
G04 #@! TO.P,U4,4*
G04 #@! TO.N,Net-(U4-Pad4)*
X177165000Y-101600000D03*
G04 #@! TO.P,U4,8*
G04 #@! TO.N,+5V*
X169545000Y-93980000D03*
G04 #@! TD*
D11*
G04 #@! TO.P,R12,1*
G04 #@! TO.N,Net-(R12-Pad1)*
X198120000Y-90805000D03*
D12*
G04 #@! TO.P,R12,2*
G04 #@! TO.N,Net-(J10-Pad5)*
X198120000Y-103505000D03*
G04 #@! TD*
G04 #@! TO.P,R10,2*
G04 #@! TO.N,Net-(J9-Pad4)*
X187960000Y-103505000D03*
D11*
G04 #@! TO.P,R10,1*
G04 #@! TO.N,+5V*
X187960000Y-90805000D03*
G04 #@! TD*
G04 #@! TO.P,R11,1*
G04 #@! TO.N,+5V*
X193040000Y-103505000D03*
D12*
G04 #@! TO.P,R11,2*
G04 #@! TO.N,Net-(J10-Pad4)*
X193040000Y-90805000D03*
G04 #@! TD*
G04 #@! TO.P,R14,2*
G04 #@! TO.N,Net-(J11-Pad4)*
X203200000Y-103505000D03*
D11*
G04 #@! TO.P,R14,1*
G04 #@! TO.N,Net-(D1-Pad1)*
X203200000Y-90805000D03*
G04 #@! TD*
G04 #@! TO.P,R15,1*
G04 #@! TO.N,Net-(R15-Pad1)*
X132080000Y-95885000D03*
D12*
G04 #@! TO.P,R15,2*
G04 #@! TO.N,GND*
X132080000Y-83185000D03*
G04 #@! TD*
G04 #@! TO.P,R16,2*
G04 #@! TO.N,/PC6_MIDI_IN*
X137160000Y-83185000D03*
D11*
G04 #@! TO.P,R16,1*
G04 #@! TO.N,+3V3*
X137160000Y-95885000D03*
G04 #@! TD*
G04 #@! TO.P,R13,1*
G04 #@! TO.N,Net-(J9-Pad5)*
X127000000Y-95885000D03*
D12*
G04 #@! TO.P,R13,2*
G04 #@! TO.N,Net-(R13-Pad2)*
X127000000Y-83185000D03*
G04 #@! TD*
D14*
G04 #@! TO.P,C14,1*
G04 #@! TO.N,+5V*
X147320000Y-73025000D03*
G04 #@! TO.P,C14,2*
G04 #@! TO.N,GND*
X147320000Y-70525000D03*
G04 #@! TD*
G04 #@! TO.P,C13,2*
G04 #@! TO.N,GND*
X161925000Y-68620000D03*
G04 #@! TO.P,C13,1*
G04 #@! TO.N,+5V*
X161925000Y-71120000D03*
G04 #@! TD*
G04 #@! TO.P,C12,1*
G04 #@! TO.N,+5V*
X147320000Y-64175000D03*
G04 #@! TO.P,C12,2*
G04 #@! TO.N,GND*
X147320000Y-66675000D03*
G04 #@! TD*
G04 #@! TO.P,C11,2*
G04 #@! TO.N,GND*
X174585000Y-89535000D03*
G04 #@! TO.P,C11,1*
G04 #@! TO.N,+5V*
X172085000Y-89535000D03*
G04 #@! TD*
G04 #@! TO.P,C10,1*
G04 #@! TO.N,GND*
X184785000Y-58460000D03*
G04 #@! TO.P,C10,2*
G04 #@! TO.N,Net-(C10-Pad2)*
X184785000Y-60960000D03*
G04 #@! TD*
G04 #@! TO.P,C9,2*
G04 #@! TO.N,Net-(C9-Pad2)*
X178395000Y-81915000D03*
G04 #@! TO.P,C9,1*
G04 #@! TO.N,Net-(C7-Pad1)*
X175895000Y-81915000D03*
G04 #@! TD*
G04 #@! TO.P,C8,1*
G04 #@! TO.N,Net-(C8-Pad1)*
X184785000Y-68540000D03*
G04 #@! TO.P,C8,2*
G04 #@! TO.N,Net-(C8-Pad2)*
X184785000Y-66040000D03*
G04 #@! TD*
G04 #@! TO.P,C7,2*
G04 #@! TO.N,GND*
X169545000Y-73025000D03*
G04 #@! TO.P,C7,1*
G04 #@! TO.N,Net-(C7-Pad1)*
X169545000Y-75525000D03*
G04 #@! TD*
G04 #@! TO.P,C6,1*
G04 #@! TO.N,Net-(C6-Pad1)*
X184785000Y-75525000D03*
G04 #@! TO.P,C6,2*
G04 #@! TO.N,Net-(C6-Pad2)*
X184785000Y-73025000D03*
G04 #@! TD*
G04 #@! TO.P,C5,2*
G04 #@! TO.N,GND*
X196850000Y-63540000D03*
G04 #@! TO.P,C5,1*
G04 #@! TO.N,Net-(C2-Pad1)*
X196850000Y-66040000D03*
G04 #@! TD*
G04 #@! TO.P,C4,1*
G04 #@! TO.N,Net-(C1-Pad1)*
X190500000Y-55285000D03*
G04 #@! TO.P,C4,2*
G04 #@! TO.N,GND*
X190500000Y-57785000D03*
G04 #@! TD*
D26*
G04 #@! TO.P,C2,1*
G04 #@! TO.N,Net-(C2-Pad1)*
X201930000Y-64770000D03*
G04 #@! TO.P,C2,2*
G04 #@! TO.N,Net-(C2-Pad2)*
X203930000Y-64770000D03*
G04 #@! TD*
G04 #@! TO.P,C3,2*
G04 #@! TO.N,GND*
X81280000Y-54610000D03*
G04 #@! TO.P,C3,1*
G04 #@! TO.N,+5V*
X79280000Y-54610000D03*
G04 #@! TD*
G04 #@! TO.P,C1,1*
G04 #@! TO.N,Net-(C1-Pad1)*
X189230000Y-64770000D03*
G04 #@! TO.P,C1,2*
G04 #@! TO.N,Net-(C1-Pad2)*
X191230000Y-64770000D03*
G04 #@! TD*
D13*
G04 #@! TO.P,U2,1*
G04 #@! TO.N,Net-(C6-Pad1)*
X180975000Y-75565000D03*
D21*
G04 #@! TO.P,U2,9*
G04 #@! TO.N,/DTE_CTS*
X173355000Y-57785000D03*
G04 #@! TO.P,U2,2*
G04 #@! TO.N,Net-(C9-Pad2)*
X180975000Y-73025000D03*
G04 #@! TO.P,U2,10*
G04 #@! TO.N,/DTE_RTS*
X173355000Y-60325000D03*
G04 #@! TO.P,U2,3*
G04 #@! TO.N,Net-(C6-Pad2)*
X180975000Y-70485000D03*
G04 #@! TO.P,U2,11*
G04 #@! TO.N,/DTE_TX*
X173355000Y-62865000D03*
G04 #@! TO.P,U2,4*
G04 #@! TO.N,Net-(C8-Pad1)*
X180975000Y-67945000D03*
G04 #@! TO.P,U2,12*
G04 #@! TO.N,/DTE_RX*
X173355000Y-65405000D03*
G04 #@! TO.P,U2,5*
G04 #@! TO.N,Net-(C8-Pad2)*
X180975000Y-65405000D03*
G04 #@! TO.P,U2,13*
G04 #@! TO.N,/RS232_RX*
X173355000Y-67945000D03*
G04 #@! TO.P,U2,6*
G04 #@! TO.N,Net-(C10-Pad2)*
X180975000Y-62865000D03*
G04 #@! TO.P,U2,14*
G04 #@! TO.N,/RS232_TX*
X173355000Y-70485000D03*
G04 #@! TO.P,U2,7*
G04 #@! TO.N,/RS232_RTS*
X180975000Y-60325000D03*
G04 #@! TO.P,U2,15*
G04 #@! TO.N,GND*
X173355000Y-73025000D03*
G04 #@! TO.P,U2,8*
G04 #@! TO.N,/RS232_CTS*
X180975000Y-57785000D03*
G04 #@! TO.P,U2,16*
G04 #@! TO.N,Net-(C7-Pad1)*
X173355000Y-75565000D03*
G04 #@! TD*
D11*
G04 #@! TO.P,R3,1*
G04 #@! TO.N,/PE4_AUDIO_L*
X106680000Y-95885000D03*
D12*
G04 #@! TO.P,R3,2*
G04 #@! TO.N,Net-(C1-Pad1)*
X106680000Y-83185000D03*
G04 #@! TD*
G04 #@! TO.P,R9,2*
G04 #@! TO.N,/PD3_VGA_BLU*
X98644546Y-65244234D03*
D11*
G04 #@! TO.P,R9,1*
G04 #@! TO.N,Net-(J7-Pad3)*
X98644546Y-52544234D03*
G04 #@! TD*
G04 #@! TO.P,R8,1*
G04 #@! TO.N,Net-(J7-Pad2)*
X94144546Y-52544234D03*
D12*
G04 #@! TO.P,R8,2*
G04 #@! TO.N,/PB7_VGA_GRN*
X94144546Y-65244234D03*
G04 #@! TD*
G04 #@! TO.P,R7,2*
G04 #@! TO.N,/PF1_VGA_RED*
X89644546Y-65244234D03*
D11*
G04 #@! TO.P,R7,1*
G04 #@! TO.N,Net-(J7-Pad1)*
X89644546Y-52544234D03*
G04 #@! TD*
G04 #@! TO.P,R6,1*
G04 #@! TO.N,+5V*
X121920000Y-83185000D03*
D12*
G04 #@! TO.P,R6,2*
G04 #@! TO.N,/PA7_I2C_SDA*
X121920000Y-95885000D03*
G04 #@! TD*
G04 #@! TO.P,R5,2*
G04 #@! TO.N,+5V*
X116840000Y-83185000D03*
D11*
G04 #@! TO.P,R5,1*
G04 #@! TO.N,/PA6_I2C_SCL*
X116840000Y-95885000D03*
G04 #@! TD*
D12*
G04 #@! TO.P,R1,2*
G04 #@! TO.N,GND*
X101600000Y-95885000D03*
D11*
G04 #@! TO.P,R1,1*
G04 #@! TO.N,Net-(C1-Pad1)*
X101600000Y-83185000D03*
G04 #@! TD*
G04 #@! TO.P,R2,1*
G04 #@! TO.N,Net-(C2-Pad1)*
X96520000Y-83185000D03*
D12*
G04 #@! TO.P,R2,2*
G04 #@! TO.N,GND*
X96520000Y-95885000D03*
G04 #@! TD*
D27*
G04 #@! TO.N,/PB5_VGA_VSYNC*
X114300000Y-52705000D03*
G04 #@! TO.N,+5V*
X98425000Y-89535000D03*
X179705000Y-91440000D03*
G04 #@! TO.N,Net-(C2-Pad1)*
X172234997Y-92165001D03*
X151220001Y-92165001D03*
X117475000Y-79375000D03*
G04 #@! TO.N,Net-(C1-Pad1)*
X116840000Y-89535000D03*
X111125000Y-92075000D03*
G04 #@! TO.N,+5V*
X104140000Y-104140000D03*
G04 #@! TO.N,/PA6_I2C_SCL*
X151130000Y-104140000D03*
G04 #@! TO.N,/PA7_I2C_SDA*
X142875000Y-96520000D03*
X139065000Y-106680000D03*
G04 #@! TO.N,/Monotron I/O Expansion/SELPRIN*
X163195000Y-78740000D03*
G04 #@! TO.N,/Monotron I/O Expansion/BUSY*
X143365001Y-74785001D03*
G04 #@! TO.N,/Monotron I/O Expansion/D6*
X156210000Y-53340000D03*
G04 #@! TO.N,/Monotron I/O Expansion/KB_CLK*
X135890000Y-112395000D03*
G04 #@! TO.N,/Monotron I/O Expansion/MS_CLK*
X136271000Y-110744000D03*
G04 #@! TO.N,/Monotron I/O Expansion/SEL*
X147955000Y-78105000D03*
G04 #@! TO.N,/Monotron I/O Expansion/KB_DATA*
X137160000Y-112395000D03*
G04 #@! TO.N,/PC5_U1CTS*
X124460000Y-56515000D03*
X137161410Y-62230000D03*
G04 #@! TO.N,/PC4_U1RTS*
X125730000Y-55245000D03*
X131445000Y-55245000D03*
G04 #@! TO.N,/PB4_VGA_HSYNC*
X114300000Y-51435000D03*
X135622990Y-65137990D03*
X133617010Y-65137990D03*
G04 #@! TO.N,/PB0_U1RX*
X167640000Y-90170000D03*
X148590000Y-91440000D03*
X133985000Y-91440000D03*
G04 #@! TO.N,+3V3*
X137160000Y-100965000D03*
G04 #@! TO.N,Net-(J9-Pad5)*
X133350000Y-109220000D03*
G04 #@! TO.N,Net-(R13-Pad2)*
X146050000Y-89535000D03*
G04 #@! TO.N,/PE5_AUDIO_R*
X117475000Y-101600000D03*
G04 #@! TO.N,/PC6_MIDI_IN*
X138430000Y-97790000D03*
G04 #@! TO.N,/PD6_JS_LEFT*
X80010000Y-72644000D03*
X90170000Y-63500000D03*
G04 #@! TO.N,/PE2_JS_UP*
X125095000Y-109855000D03*
G04 #@! TO.N,/PE3_JS_DOWN*
X125730000Y-111125000D03*
G04 #@! TD*
D28*
G04 #@! TO.N,+5V*
X179705000Y-91440000D02*
X179430009Y-91440000D01*
G04 #@! TO.N,Net-(C2-Pad1)*
X200660000Y-66040000D02*
X201930000Y-64770000D01*
X196850000Y-66040000D02*
X200660000Y-66040000D01*
X198025001Y-68346371D02*
X198025001Y-74389999D01*
X196850000Y-66040000D02*
X196850000Y-67171370D01*
X196850000Y-67171370D02*
X198025001Y-68346371D01*
X198025001Y-74389999D02*
X180249999Y-92165001D01*
X180249999Y-92165001D02*
X172234997Y-92165001D01*
X172234997Y-92165001D02*
X172234997Y-92165001D01*
X133636999Y-92165001D02*
X120846998Y-79375000D01*
X151220001Y-92165001D02*
X133636999Y-92165001D01*
X120846998Y-79375000D02*
X117475000Y-79375000D01*
X117475000Y-79375000D02*
X117475000Y-79375000D01*
G04 #@! TO.N,GND*
X90170000Y-60960000D02*
X109220000Y-60960000D01*
X80645000Y-70485000D02*
X90170000Y-60960000D01*
G04 #@! TO.N,Net-(C1-Pad1)*
X189230000Y-56555000D02*
X190500000Y-55285000D01*
X189230000Y-64770000D02*
X189230000Y-56555000D01*
X101600000Y-83185000D02*
X106680000Y-83185000D01*
X189230000Y-70485000D02*
X189230000Y-71120000D01*
X189230000Y-64770000D02*
X189230000Y-70485000D01*
X138430000Y-93980000D02*
X138430000Y-93980000D01*
X116840000Y-89535000D02*
X116840000Y-89535000D01*
X106680000Y-87630000D02*
X111125000Y-92075000D01*
X106680000Y-83185000D02*
X106680000Y-87630000D01*
X117239999Y-89934999D02*
X116840000Y-89535000D01*
X120935011Y-93630011D02*
X117239999Y-89934999D01*
X138080011Y-93630011D02*
X120935011Y-93630011D01*
X142240000Y-97790000D02*
X138080011Y-93630011D01*
X165736410Y-97790000D02*
X142240000Y-97790000D01*
X189230000Y-70485000D02*
X189230000Y-73660000D01*
X176421411Y-86468589D02*
X173486409Y-86468589D01*
X173486409Y-86468589D02*
X167005000Y-92949998D01*
X167005000Y-92949998D02*
X167005000Y-96521410D01*
X189230000Y-73660000D02*
X176421411Y-86468589D01*
X167005000Y-96521410D02*
X165736410Y-97790000D01*
G04 #@! TO.N,+5V*
X169545000Y-92075000D02*
X169545000Y-93980000D01*
X172085000Y-89535000D02*
X169545000Y-92075000D01*
X80645000Y-53245000D02*
X79280000Y-54610000D01*
X80645000Y-49815000D02*
X80645000Y-53245000D01*
X149265000Y-64175000D02*
X151130000Y-66040000D01*
X147320000Y-64175000D02*
X149265000Y-64175000D01*
X151130000Y-68580000D02*
X151130000Y-66040000D01*
X151130000Y-69215000D02*
X151130000Y-68580000D01*
X147320000Y-73025000D02*
X151130000Y-69215000D01*
X153670000Y-71120000D02*
X158750000Y-71120000D01*
X151130000Y-68580000D02*
X153670000Y-71120000D01*
X158750000Y-71120000D02*
X161925000Y-71120000D01*
X161925000Y-79375000D02*
X165100000Y-82550000D01*
X161925000Y-71120000D02*
X161925000Y-79375000D01*
X165100000Y-82550000D02*
X165949999Y-83399999D01*
X172085000Y-89535000D02*
X173210001Y-90660001D01*
X173210001Y-90660001D02*
X173990000Y-91440000D01*
X173990000Y-91440000D02*
X179430009Y-91440000D01*
X179430009Y-91440000D02*
X178979999Y-91440000D01*
X116840000Y-83185000D02*
X121920000Y-83185000D01*
X94994999Y-96617001D02*
X102517998Y-104140000D01*
X102517998Y-104140000D02*
X104140000Y-104140000D01*
X104140000Y-104140000D02*
X104140000Y-104140000D01*
X123119999Y-84384999D02*
X121920000Y-83185000D01*
X131915001Y-93180001D02*
X123119999Y-84384999D01*
X147790001Y-93180001D02*
X131915001Y-93180001D01*
X148590000Y-93980000D02*
X147790001Y-93180001D01*
X123529999Y-121829999D02*
X122730000Y-121030000D01*
X123855001Y-122155001D02*
X123529999Y-121829999D01*
X139384999Y-122155001D02*
X123855001Y-122155001D01*
X140510000Y-121030000D02*
X139384999Y-122155001D01*
X121930001Y-121829999D02*
X122730000Y-121030000D01*
X121604999Y-122155001D02*
X121930001Y-121829999D01*
X118509999Y-122155001D02*
X121604999Y-122155001D01*
X113665000Y-127000000D02*
X118509999Y-122155001D01*
X106011399Y-123156399D02*
X109855000Y-127000000D01*
X104140000Y-104140000D02*
X99695000Y-108585000D01*
X109855000Y-127000000D02*
X113665000Y-127000000D01*
X84421399Y-123156399D02*
X106011399Y-123156399D01*
X99695000Y-108585000D02*
X93345000Y-108585000D01*
X93345000Y-108585000D02*
X83820000Y-118110000D01*
X83820000Y-118110000D02*
X83820000Y-122555000D01*
X83820000Y-122555000D02*
X84421399Y-123156399D01*
X78680001Y-55209999D02*
X78680001Y-55939999D01*
X78680001Y-55939999D02*
X74295000Y-60325000D01*
X74295000Y-60325000D02*
X74295000Y-71500002D01*
X79280000Y-54610000D02*
X78680001Y-55209999D01*
X74295000Y-71500002D02*
X78359998Y-75565000D01*
X78359998Y-75565000D02*
X84455000Y-75565000D01*
X163897919Y-82550000D02*
X161925000Y-84522919D01*
X165100000Y-82550000D02*
X163897919Y-82550000D01*
X149389999Y-94779999D02*
X148590000Y-93980000D01*
X149715001Y-95105001D02*
X149389999Y-94779999D01*
X164955001Y-94520001D02*
X164370001Y-95105001D01*
X164370001Y-95105001D02*
X149715001Y-95105001D01*
X164955001Y-93439999D02*
X164955001Y-94520001D01*
X161925000Y-90409998D02*
X164955001Y-93439999D01*
X161925000Y-84522919D02*
X161925000Y-90409998D01*
X94994999Y-90805000D02*
X94994999Y-96617001D01*
X94994999Y-86104999D02*
X93345000Y-84455000D01*
X84455000Y-75565000D02*
X93345000Y-84455000D01*
X94994999Y-89955999D02*
X94994999Y-90805000D01*
X94994999Y-90805000D02*
X94994999Y-86104999D01*
X96264999Y-89535000D02*
X94994999Y-90805000D01*
X98425000Y-89535000D02*
X96264999Y-89535000D01*
G04 #@! TO.N,/PA6_I2C_SCL*
X133167001Y-103618239D02*
X131783762Y-102235000D01*
X133167001Y-104661761D02*
X133167001Y-103618239D01*
X132601761Y-105227001D02*
X133167001Y-104661761D01*
X129540000Y-106680000D02*
X130992999Y-105227001D01*
X130992999Y-105227001D02*
X132601761Y-105227001D01*
X123190000Y-102235000D02*
X116840000Y-95885000D01*
X131783762Y-102235000D02*
X123190000Y-102235000D01*
X138339999Y-107028001D02*
X139261998Y-107950000D01*
X138339999Y-101071997D02*
X138339999Y-107028001D01*
X137508001Y-100239999D02*
X138339999Y-101071997D01*
X130627001Y-107767001D02*
X132601761Y-107767001D01*
X129540000Y-106680000D02*
X130627001Y-107767001D01*
X132601761Y-107767001D02*
X136434999Y-103933763D01*
X136434999Y-103933763D02*
X136434999Y-100420001D01*
X136434999Y-100420001D02*
X136615001Y-100239999D01*
X136615001Y-100239999D02*
X137508001Y-100239999D01*
X147320000Y-107950000D02*
X151130000Y-104140000D01*
X139261998Y-107950000D02*
X147320000Y-107950000D01*
G04 #@! TO.N,/PA7_I2C_SDA*
X132841999Y-105918001D02*
X132080000Y-106680000D01*
X133617011Y-105142989D02*
X132841999Y-105918001D01*
X133617011Y-103431839D02*
X133617011Y-105142989D01*
X123445001Y-97410001D02*
X127595173Y-97410001D01*
X121920000Y-95885000D02*
X123445001Y-97410001D01*
X142875000Y-96520000D02*
X142875000Y-96520000D01*
X139065000Y-100965000D02*
X137795000Y-99695000D01*
X133009828Y-99695000D02*
X131445000Y-101259828D01*
X139065000Y-106680000D02*
X139065000Y-100965000D01*
X127595173Y-97410001D02*
X131445000Y-101259828D01*
X137795000Y-99695000D02*
X133009828Y-99695000D01*
X131445000Y-101259828D02*
X133617011Y-103431839D01*
X163591412Y-96520000D02*
X143440685Y-96520000D01*
X165405011Y-93253599D02*
X165405010Y-94706402D01*
X163195000Y-91043588D02*
X165405011Y-93253599D01*
X165405010Y-94706402D02*
X163591412Y-96520000D01*
X163195000Y-86995000D02*
X163195000Y-91043588D01*
X143440685Y-96520000D02*
X142875000Y-96520000D01*
X165100000Y-85090000D02*
X163195000Y-86995000D01*
G04 #@! TO.N,/PF1_VGA_RED*
X97912545Y-63719233D02*
X94212232Y-67419546D01*
X91819858Y-67419546D02*
X89644546Y-65244234D01*
X121469409Y-103052999D02*
X115314999Y-96898589D01*
X130992999Y-103052999D02*
X121469409Y-103052999D01*
X132080000Y-104140000D02*
X130992999Y-103052999D01*
X99376547Y-63719233D02*
X97912545Y-63719233D01*
X94212232Y-67419546D02*
X91819858Y-67419546D01*
X115314999Y-96898589D02*
X115314999Y-79657685D01*
X115314999Y-79657685D02*
X99376547Y-63719233D01*
G04 #@! TO.N,/PB7_VGA_GRN*
X121158001Y-61721999D02*
X121920000Y-60960000D01*
X120832999Y-62047001D02*
X121158001Y-61721999D01*
X97341779Y-62047001D02*
X120832999Y-62047001D01*
X94144546Y-65244234D02*
X97341779Y-62047001D01*
G04 #@! TO.N,/PD3_VGA_BLU*
X121158001Y-103378001D02*
X121920000Y-104140000D01*
X113285001Y-95505001D02*
X121158001Y-103378001D01*
X113285001Y-79884689D02*
X113285001Y-95505001D01*
X98644546Y-65244234D02*
X113285001Y-79884689D01*
G04 #@! TO.N,/Monotron I/O Expansion/SELPRIN*
X160799999Y-69359999D02*
X161290000Y-69850000D01*
X159055001Y-67219999D02*
X160799999Y-68964997D01*
X155484999Y-67219999D02*
X159055001Y-67219999D01*
X155484999Y-52991999D02*
X155484999Y-67219999D01*
X160665011Y-47811987D02*
X155484999Y-52991999D01*
X156060001Y-42539999D02*
X158245001Y-42539999D01*
X154935000Y-43665000D02*
X156060001Y-42539999D01*
X158245001Y-42539999D02*
X158901401Y-43196399D01*
X160799999Y-68964997D02*
X160799999Y-69359999D01*
X158901401Y-43196399D02*
X158901402Y-44014990D01*
X160665011Y-45778599D02*
X160665011Y-47811987D01*
X158901402Y-44014990D02*
X160665011Y-45778599D01*
X162320002Y-69850000D02*
X163195000Y-70724998D01*
X161290000Y-69850000D02*
X162320002Y-69850000D01*
X163195000Y-70724998D02*
X163195000Y-78740000D01*
X163195000Y-78740000D02*
X163195000Y-78740000D01*
G04 #@! TO.N,/Monotron I/O Expansion/D1*
X151130000Y-53340000D02*
X153670000Y-53340000D01*
X159090000Y-47920000D02*
X159090000Y-46505000D01*
X153670000Y-53340000D02*
X159090000Y-47920000D01*
G04 #@! TO.N,/Monotron I/O Expansion/D2*
X150004999Y-52820001D02*
X152025000Y-50800000D01*
X151130000Y-55880000D02*
X150004999Y-54754999D01*
X150004999Y-54754999D02*
X150004999Y-52820001D01*
X152025000Y-50800000D02*
X156320000Y-46505000D01*
G04 #@! TO.N,/PE0_U7RX*
X115061999Y-60198001D02*
X114300000Y-60960000D01*
X123007001Y-61481761D02*
X123007001Y-60438239D01*
X123007001Y-60438239D02*
X122441761Y-59872999D01*
X123572241Y-62047001D02*
X123007001Y-61481761D01*
X122441761Y-59872999D02*
X115387001Y-59872999D01*
X129695763Y-62047001D02*
X123572241Y-62047001D01*
X130810000Y-63161238D02*
X129695763Y-62047001D01*
X130810000Y-63838762D02*
X130810000Y-63161238D01*
X147126237Y-80154999D02*
X130810000Y-63838762D01*
X115387001Y-59872999D02*
X115061999Y-60198001D01*
X157624999Y-80154999D02*
X147126237Y-80154999D01*
X158750000Y-81280000D02*
X157624999Y-80154999D01*
G04 #@! TO.N,/Monotron I/O Expansion/D3*
X150330001Y-57620001D02*
X151130000Y-58420000D01*
X149554990Y-56844990D02*
X150330001Y-57620001D01*
X149554990Y-50500010D02*
X149554990Y-56844990D01*
X153550000Y-46505000D02*
X149554990Y-50500010D01*
G04 #@! TO.N,/Monotron I/O Expansion/ACK*
X157950001Y-77940001D02*
X158750000Y-78740000D01*
X157624999Y-77614999D02*
X157950001Y-77940001D01*
X148682179Y-77325001D02*
X139700000Y-68342822D01*
X158750000Y-78740000D02*
X157335001Y-77325001D01*
X157335001Y-77325001D02*
X148682179Y-77325001D01*
X139700000Y-68342822D02*
X139700000Y-67310000D01*
X139700000Y-67310000D02*
X139700000Y-66675000D01*
X139700000Y-46505000D02*
X139700000Y-66675000D01*
X139700000Y-66675000D02*
X139700000Y-67070002D01*
G04 #@! TO.N,/Monotron I/O Expansion/D4*
X149980001Y-47304999D02*
X150780000Y-46505000D01*
X149104981Y-48180019D02*
X149980001Y-47304999D01*
X149104981Y-58934981D02*
X149104981Y-48180019D01*
X151130000Y-60960000D02*
X149104981Y-58934981D01*
G04 #@! TO.N,/Monotron I/O Expansion/BUSY*
X130264999Y-45964999D02*
X131144998Y-45085000D01*
X130264999Y-52796409D02*
X130264999Y-45964999D01*
X137979990Y-60511400D02*
X130264999Y-52796409D01*
X143365001Y-74785001D02*
X137979990Y-69399990D01*
X137979990Y-69399990D02*
X137979990Y-60511400D01*
X131635002Y-45085000D02*
X132715000Y-46164998D01*
X131144998Y-45085000D02*
X131635002Y-45085000D01*
X135804999Y-47630001D02*
X136130001Y-47304999D01*
X136130001Y-47304999D02*
X136930000Y-46505000D01*
X133619999Y-47630001D02*
X135804999Y-47630001D01*
X132715000Y-46725002D02*
X133619999Y-47630001D01*
X132715000Y-46164998D02*
X132715000Y-46725002D01*
G04 #@! TO.N,/Monotron I/O Expansion/D5*
X148010000Y-60380000D02*
X151130000Y-63500000D01*
X148010000Y-46505000D02*
X148010000Y-60380000D01*
G04 #@! TO.N,/Monotron I/O Expansion/PE*
X135285001Y-45379999D02*
X134959999Y-45705001D01*
X140240001Y-45379999D02*
X135285001Y-45379999D01*
X134959999Y-45705001D02*
X134160000Y-46505000D01*
X140825001Y-45964999D02*
X140240001Y-45379999D01*
X140825001Y-68831413D02*
X140825001Y-45964999D01*
X146778589Y-74785001D02*
X140825001Y-68831413D01*
X156493629Y-74785001D02*
X146778589Y-74785001D01*
X157618630Y-73660000D02*
X156493629Y-74785001D01*
X158750000Y-73660000D02*
X157618630Y-73660000D01*
G04 #@! TO.N,/Monotron I/O Expansion/D6*
X158750000Y-66040000D02*
X156210000Y-63500000D01*
X156210000Y-63500000D02*
X156210000Y-53340000D01*
X156210000Y-53340000D02*
X156210000Y-53340000D01*
G04 #@! TO.N,/Monotron I/O Expansion/KB_CLK*
X133350000Y-114935000D02*
X119635000Y-114935000D01*
X133350000Y-114935000D02*
X135890000Y-112395000D01*
X119635000Y-114935000D02*
X116030000Y-118540000D01*
G04 #@! TO.N,/Monotron I/O Expansion/D7*
X163830000Y-57150000D02*
X165735000Y-55245000D01*
X165735000Y-48896410D02*
X166370000Y-48261410D01*
X163830000Y-58420000D02*
X163830000Y-57150000D01*
X166370000Y-48261410D02*
X166370000Y-43815000D01*
X165735000Y-55245000D02*
X165735000Y-48896410D01*
X158750000Y-63500000D02*
X159549999Y-62700001D01*
X159549999Y-62700001D02*
X163830000Y-58420000D01*
X166370000Y-43815000D02*
X164465000Y-41910000D01*
X164465000Y-41910000D02*
X144145000Y-41910000D01*
X143944998Y-41910000D02*
X144145000Y-41910000D01*
X142470000Y-43384998D02*
X143944998Y-41910000D01*
X142470000Y-46505000D02*
X142470000Y-43384998D01*
G04 #@! TO.N,/Monotron I/O Expansion/MS_CLK*
X138430000Y-113920000D02*
X133810000Y-118540000D01*
X138430000Y-111125000D02*
X138430000Y-113920000D01*
X138049000Y-110744000D02*
X138430000Y-111125000D01*
X136271000Y-110744000D02*
X138049000Y-110744000D01*
G04 #@! TO.N,/Monotron I/O Expansion/SEL*
X131390000Y-46505000D02*
X131390000Y-53285000D01*
X131390000Y-53285000D02*
X138430000Y-60325000D01*
X138430000Y-60325000D02*
X138430000Y-68580000D01*
X138430000Y-68580000D02*
X140335000Y-70485000D01*
X140335000Y-70485000D02*
X145415000Y-75565000D01*
X145415000Y-75565000D02*
X147955000Y-78105000D01*
X147955000Y-78105000D02*
X147955000Y-78105000D01*
G04 #@! TO.N,/Monotron I/O Expansion/KB_DATA*
X118879999Y-120230001D02*
X118879999Y-119880001D01*
X118080000Y-121030000D02*
X118879999Y-120230001D01*
X118879999Y-119880001D02*
X123190000Y-115570000D01*
X132080000Y-115570000D02*
X133985000Y-115570000D01*
X133985000Y-115570000D02*
X137160000Y-112395000D01*
X132080000Y-115570000D02*
X132505002Y-115570000D01*
X123190000Y-115570000D02*
X132080000Y-115570000D01*
G04 #@! TO.N,/Monotron I/O Expansion/STROBE*
X164630000Y-52540000D02*
X164630000Y-46505000D01*
X158750000Y-58420000D02*
X164630000Y-52540000D01*
G04 #@! TO.N,/Monotron I/O Expansion/AUTOF*
X163245000Y-51385000D02*
X163245000Y-43665000D01*
X158750000Y-55880000D02*
X163245000Y-51385000D01*
G04 #@! TO.N,/Monotron I/O Expansion/ERROR*
X165100000Y-54610000D02*
X158750000Y-60960000D01*
X161600001Y-42539999D02*
X163785001Y-42539999D01*
X160475000Y-43665000D02*
X161600001Y-42539999D01*
X165755001Y-48239999D02*
X165100000Y-48895000D01*
X163785001Y-42539999D02*
X165755001Y-44509999D01*
X165755001Y-44509999D02*
X165755001Y-48239999D01*
X165100000Y-48895000D02*
X165100000Y-54610000D01*
G04 #@! TO.N,/Monotron I/O Expansion/D0*
X158750000Y-53340000D02*
X161925000Y-50165000D01*
X161860000Y-50100000D02*
X161860000Y-46505000D01*
X161925000Y-50165000D02*
X161860000Y-50100000D01*
G04 #@! TO.N,/Monotron I/O Expansion/INIT*
X152255001Y-84945001D02*
X151130000Y-83820000D01*
X159875001Y-84360001D02*
X159290001Y-84945001D01*
X160020000Y-75515000D02*
X159875001Y-75659999D01*
X160020000Y-72975000D02*
X160020000Y-75515000D01*
X159290001Y-72245001D02*
X160020000Y-72975000D01*
X159290001Y-84945001D02*
X152255001Y-84945001D01*
X160215001Y-47431409D02*
X153856401Y-53790009D01*
X148776409Y-63049999D02*
X146779999Y-63049999D01*
X160215001Y-45964999D02*
X160215001Y-47431409D01*
X153856401Y-53790009D02*
X153856401Y-62438601D01*
X158504999Y-44464999D02*
X158715001Y-44464999D01*
X153856401Y-62438601D02*
X151670001Y-64625001D01*
X151670001Y-64625001D02*
X150351411Y-64625001D01*
X157705000Y-43665000D02*
X158504999Y-44464999D01*
X150351411Y-64625001D02*
X148776409Y-63049999D01*
X146194999Y-73565001D02*
X146779999Y-74150001D01*
X159875001Y-75659999D02*
X159875001Y-84360001D01*
X146779999Y-63049999D02*
X146194999Y-63634999D01*
X146194999Y-63634999D02*
X146194999Y-73565001D01*
X146779999Y-74150001D02*
X147860001Y-74150001D01*
X158715001Y-44464999D02*
X160215001Y-45964999D01*
X147860001Y-74150001D02*
X149765001Y-72245001D01*
X149765001Y-72245001D02*
X159290001Y-72245001D01*
G04 #@! TO.N,Net-(C6-Pad1)*
X184745000Y-75565000D02*
X184785000Y-75525000D01*
X180975000Y-75565000D02*
X184745000Y-75565000D01*
G04 #@! TO.N,/DTE_CTS*
X174154999Y-58584999D02*
X173355000Y-57785000D01*
X174930011Y-59360011D02*
X174154999Y-58584999D01*
X174930011Y-62954991D02*
X174930011Y-59360011D01*
X173895001Y-63990001D02*
X174930011Y-62954991D01*
X171237082Y-63990001D02*
X173895001Y-63990001D01*
X170747081Y-63500000D02*
X171237082Y-63990001D01*
X169545000Y-63500000D02*
X170747081Y-63500000D01*
G04 #@! TO.N,Net-(C8-Pad2)*
X181610000Y-66040000D02*
X180975000Y-65405000D01*
X184785000Y-66040000D02*
X181610000Y-66040000D01*
G04 #@! TO.N,/DTE_RTS*
X172720000Y-60960000D02*
X173355000Y-60325000D01*
X169545000Y-60960000D02*
X172720000Y-60960000D01*
G04 #@! TO.N,Net-(C6-Pad2)*
X182245000Y-70485000D02*
X180975000Y-70485000D01*
X184785000Y-73025000D02*
X182245000Y-70485000D01*
G04 #@! TO.N,/DTE_TX*
X174154999Y-62065001D02*
X173355000Y-62865000D01*
X174480001Y-61739999D02*
X174154999Y-62065001D01*
X174480001Y-59784999D02*
X174480001Y-61739999D01*
X171527080Y-59199999D02*
X173895001Y-59199999D01*
X170747081Y-58420000D02*
X171527080Y-59199999D01*
X173895001Y-59199999D02*
X174480001Y-59784999D01*
X169545000Y-58420000D02*
X170747081Y-58420000D01*
G04 #@! TO.N,Net-(C7-Pad1)*
X174154999Y-74765001D02*
X173355000Y-75565000D01*
X175830031Y-73089969D02*
X174154999Y-74765001D01*
X175830031Y-57958619D02*
X175830031Y-73089969D01*
X171211412Y-53340000D02*
X175830031Y-57958619D01*
X169545000Y-53340000D02*
X171211412Y-53340000D01*
X169585000Y-75565000D02*
X169545000Y-75525000D01*
X173355000Y-75565000D02*
X169585000Y-75565000D01*
X173355000Y-79375000D02*
X175895000Y-81915000D01*
X173355000Y-75565000D02*
X173355000Y-79375000D01*
G04 #@! TO.N,/DTE_RX*
X175380021Y-63379979D02*
X174154999Y-64605001D01*
X175380021Y-58145019D02*
X175380021Y-63379979D01*
X174154999Y-64605001D02*
X173355000Y-65405000D01*
X170394999Y-55030001D02*
X172265003Y-55030001D01*
X172265003Y-55030001D02*
X175380021Y-58145019D01*
X169545000Y-55880000D02*
X170394999Y-55030001D01*
G04 #@! TO.N,/RS232_RX*
X193705000Y-45373630D02*
X193705000Y-46505000D01*
X193705000Y-43384998D02*
X193705000Y-45373630D01*
X192409991Y-42089989D02*
X193705000Y-43384998D01*
X186053599Y-42089989D02*
X192409991Y-42089989D01*
X180733587Y-47410001D02*
X186053599Y-42089989D01*
X173735997Y-47410001D02*
X180733587Y-47410001D01*
X168369999Y-52775999D02*
X173735997Y-47410001D01*
X168369999Y-67150001D02*
X168369999Y-52775999D01*
X169164998Y-67945000D02*
X168369999Y-67150001D01*
X173355000Y-67945000D02*
X169164998Y-67945000D01*
G04 #@! TO.N,Net-(C9-Pad2)*
X178395000Y-75605000D02*
X180975000Y-73025000D01*
X178395000Y-81915000D02*
X178395000Y-75605000D01*
G04 #@! TO.N,/RS232_TX*
X181225003Y-61739999D02*
X177655001Y-61739999D01*
X190935000Y-46505000D02*
X182675018Y-54764982D01*
X182675018Y-60289984D02*
X181225003Y-61739999D01*
X182675018Y-54764982D02*
X182675018Y-60289984D01*
X177655001Y-61739999D02*
X176530000Y-62865000D01*
X168419999Y-72484999D02*
X170419998Y-70485000D01*
X168419999Y-76105001D02*
X168419999Y-72484999D01*
X175354999Y-83040001D02*
X168419999Y-76105001D01*
X172223630Y-70485000D02*
X173355000Y-70485000D01*
X176435001Y-83040001D02*
X175354999Y-83040001D01*
X170419998Y-70485000D02*
X172223630Y-70485000D01*
X177020001Y-82455001D02*
X176435001Y-83040001D01*
X177020001Y-63990001D02*
X177020001Y-82455001D01*
X176530000Y-63500000D02*
X177020001Y-63990001D01*
X176530000Y-62865000D02*
X176530000Y-63500000D01*
G04 #@! TO.N,/RS232_RTS*
X181774999Y-59525001D02*
X180975000Y-60325000D01*
X182225009Y-59074991D02*
X181774999Y-59525001D01*
X182225009Y-48009989D02*
X182225009Y-59074991D01*
X184854999Y-45379999D02*
X182225009Y-48009989D01*
X189473631Y-45379999D02*
X184854999Y-45379999D01*
X191188630Y-43665000D02*
X189473631Y-45379999D01*
X192320000Y-43665000D02*
X191188630Y-43665000D01*
G04 #@! TO.N,/RS232_CTS*
X188750001Y-42865001D02*
X189550000Y-43665000D01*
X188424999Y-42539999D02*
X188750001Y-42865001D01*
X186239999Y-42539999D02*
X188424999Y-42539999D01*
X181774999Y-47004999D02*
X186239999Y-42539999D01*
X181774999Y-56985001D02*
X181774999Y-47004999D01*
X180975000Y-57785000D02*
X181774999Y-56985001D01*
G04 #@! TO.N,/PA4_SD_MISO*
X87630000Y-60960000D02*
X88265000Y-60325000D01*
X78105000Y-70485000D02*
X87630000Y-60960000D01*
X123190000Y-57150000D02*
X127000000Y-60960000D01*
X87630000Y-60960000D02*
X91440000Y-57150000D01*
X91440000Y-57150000D02*
X123190000Y-57150000D01*
G04 #@! TO.N,/PC5_U1CTS*
X131446410Y-56515000D02*
X137161410Y-62230000D01*
X124460000Y-56515000D02*
X131446410Y-56515000D01*
G04 #@! TO.N,/PC4_U1RTS*
X125730000Y-55245000D02*
X131445000Y-55245000D01*
G04 #@! TO.N,/PA5_SD_MOSI*
X118858239Y-105227001D02*
X125547001Y-105227001D01*
X125547001Y-105227001D02*
X127000000Y-106680000D01*
X117927001Y-104295763D02*
X118858239Y-105227001D01*
X117927001Y-103618239D02*
X117927001Y-104295763D01*
X88265000Y-70485000D02*
X88265000Y-72107002D01*
X88265000Y-72107002D02*
X107950000Y-91792002D01*
X116543762Y-102235000D02*
X117927001Y-103618239D01*
X107950000Y-94332002D02*
X115852998Y-102235000D01*
X107950000Y-91792002D02*
X107950000Y-94332002D01*
X115852998Y-102235000D02*
X116543762Y-102235000D01*
G04 #@! TO.N,/PB4_VGA_HSYNC*
X104205000Y-43815000D02*
X106745000Y-41275000D01*
X106745000Y-41275000D02*
X107910002Y-41275000D01*
X107910002Y-41275000D02*
X109220000Y-41275000D01*
X109220000Y-41275000D02*
X110490000Y-41275000D01*
X112395000Y-49530000D02*
X112395000Y-43180000D01*
X114300000Y-51435000D02*
X112395000Y-49530000D01*
X112395000Y-43180000D02*
X110490000Y-41275000D01*
X133617010Y-65137990D02*
X135622990Y-65137990D01*
G04 #@! TO.N,/PB0_U1RX*
X164280010Y-76905008D02*
X168910000Y-81534998D01*
X167005000Y-55880000D02*
X164280010Y-58604990D01*
X164280010Y-58604990D02*
X164280010Y-76905008D01*
X168910000Y-81534998D02*
X168910000Y-81915000D01*
X168910000Y-81915000D02*
X168910000Y-88900000D01*
X168910000Y-88900000D02*
X167640000Y-90170000D01*
X167640000Y-90170000D02*
X167640000Y-90170000D01*
X133985000Y-91440000D02*
X148590000Y-91440000D01*
G04 #@! TO.N,/PB5_VGA_VSYNC*
X113665000Y-52705000D02*
X114300000Y-52705000D01*
X111944990Y-50984990D02*
X113665000Y-52705000D01*
X109180707Y-42545705D02*
X111944990Y-45309988D01*
X111944990Y-45309988D02*
X111944990Y-50984990D01*
X106495000Y-43815000D02*
X107764295Y-42545705D01*
X107764295Y-42545705D02*
X109180707Y-42545705D01*
G04 #@! TO.N,+3V3*
X85725000Y-71687081D02*
X85725000Y-70485000D01*
X85725000Y-74647002D02*
X85725000Y-71687081D01*
X100074999Y-88997001D02*
X85725000Y-74647002D01*
X100074999Y-97534999D02*
X100074999Y-88997001D01*
X109220000Y-106680000D02*
X100074999Y-97534999D01*
X137160000Y-100965000D02*
X137160000Y-100965000D01*
X109981999Y-107441999D02*
X109220000Y-106680000D01*
X110757010Y-108217010D02*
X109981999Y-107441999D01*
X133534991Y-108217010D02*
X110757010Y-108217010D01*
X137160000Y-104592001D02*
X133534991Y-108217010D01*
X137160000Y-100965000D02*
X137160000Y-104592001D01*
G04 #@! TO.N,Net-(C1-Pad2)*
X196945000Y-59055000D02*
X197700000Y-59055000D01*
X191230000Y-64770000D02*
X196945000Y-59055000D01*
X196850000Y-70390000D02*
X191230000Y-64770000D01*
X196850000Y-71755000D02*
X196850000Y-70390000D01*
G04 #@! TO.N,Net-(J1-Pad2)*
X203200000Y-60705000D02*
X203200000Y-59055000D01*
X202855001Y-61049999D02*
X203200000Y-60705000D01*
X202855001Y-68289999D02*
X202855001Y-61049999D01*
X199390000Y-71755000D02*
X202855001Y-68289999D01*
G04 #@! TO.N,Net-(C2-Pad2)*
X203930000Y-69755000D02*
X201930000Y-71755000D01*
X203930000Y-64770000D02*
X203930000Y-69755000D01*
G04 #@! TO.N,/PE4_AUDIO_L*
X107879999Y-97084999D02*
X106680000Y-95885000D01*
X108853761Y-97084999D02*
X107879999Y-97084999D01*
X115387001Y-103618239D02*
X108853761Y-97084999D01*
X115387001Y-104592001D02*
X115387001Y-103618239D01*
X116022001Y-105227001D02*
X115387001Y-104592001D01*
X117927001Y-105227001D02*
X116022001Y-105227001D01*
X119380000Y-106680000D02*
X117927001Y-105227001D01*
G04 #@! TO.N,Net-(J9-Pad5)*
X133350000Y-109220000D02*
X146645000Y-109220000D01*
X146645000Y-109220000D02*
X146685000Y-109260000D01*
X146685000Y-109260000D02*
X151845000Y-114420000D01*
G04 #@! TO.N,Net-(R13-Pad2)*
X128199999Y-84384999D02*
X127000000Y-83185000D01*
X128525001Y-84710001D02*
X128199999Y-84384999D01*
X141225001Y-84710001D02*
X128525001Y-84710001D01*
X146050000Y-89535000D02*
X141225001Y-84710001D01*
G04 #@! TO.N,/PE5_AUDIO_R*
X117475000Y-101600000D02*
X111760000Y-95885000D01*
G04 #@! TO.N,/PC6_MIDI_IN*
X148590000Y-100550000D02*
X148590000Y-101600000D01*
X174625000Y-93980000D02*
X172085000Y-96520000D01*
X148590000Y-100550000D02*
X150080000Y-99060000D01*
X169545000Y-99060000D02*
X174625000Y-93980000D01*
X150080000Y-99060000D02*
X169545000Y-99060000D01*
X121920000Y-67945000D02*
X137160000Y-83185000D01*
X121920000Y-63500000D02*
X121920000Y-67945000D01*
X144495592Y-101600000D02*
X140685592Y-97790000D01*
X148590000Y-101600000D02*
X144495592Y-101600000D01*
X140685592Y-97790000D02*
X139065000Y-97790000D01*
X139065000Y-97790000D02*
X138430000Y-97790000D01*
G04 #@! TO.N,Net-(R15-Pad1)*
X133605001Y-94359999D02*
X132080000Y-95885000D01*
X137892001Y-94359999D02*
X137160000Y-94359999D01*
X167455010Y-98609990D02*
X142141992Y-98609990D01*
X172085000Y-93980000D02*
X167455010Y-98609990D01*
X142141992Y-98609990D02*
X137892001Y-94359999D01*
X137160000Y-94359999D02*
X133605001Y-94359999D01*
G04 #@! TO.N,Net-(J11-Pad4)*
X203200000Y-113505000D02*
X202365000Y-114340000D01*
X203200000Y-103505000D02*
X203200000Y-113505000D01*
G04 #@! TO.N,Net-(D1-Pad1)*
X167640000Y-106045000D02*
X166370000Y-106045000D01*
X172085000Y-101600000D02*
X167640000Y-106045000D01*
X198755000Y-86360000D02*
X203200000Y-90805000D01*
X172085000Y-101600000D02*
X187325000Y-86360000D01*
X187325000Y-86360000D02*
X198755000Y-86360000D01*
G04 #@! TO.N,Net-(J10-Pad4)*
X200095011Y-97860011D02*
X194239999Y-92004999D01*
X200095011Y-108644991D02*
X200095011Y-97860011D01*
X190525001Y-118215001D02*
X200095011Y-108644991D01*
X194239999Y-92004999D02*
X193040000Y-90805000D01*
X189204999Y-118215001D02*
X190525001Y-118215001D01*
X185329998Y-114340000D02*
X189204999Y-118215001D01*
X182165000Y-114340000D02*
X185329998Y-114340000D01*
G04 #@! TO.N,Net-(J7-Pad1)*
X94413780Y-47775000D02*
X99625000Y-47775000D01*
X89644546Y-52544234D02*
X94413780Y-47775000D01*
G04 #@! TO.N,Net-(J7-Pad2)*
X101115001Y-48574999D02*
X101915000Y-47775000D01*
X98670767Y-51019233D02*
X101115001Y-48574999D01*
X95669547Y-51019233D02*
X98670767Y-51019233D01*
X94144546Y-52544234D02*
X95669547Y-51019233D01*
G04 #@! TO.N,Net-(J7-Pad3)*
X99844545Y-51344235D02*
X100635765Y-51344235D01*
X103405001Y-48574999D02*
X104205000Y-47775000D01*
X100635765Y-51344235D02*
X103405001Y-48574999D01*
X98644546Y-52544234D02*
X99844545Y-51344235D01*
G04 #@! TO.N,Net-(J9-Pad4)*
X186760001Y-104704999D02*
X187960000Y-103505000D01*
X182060010Y-109404990D02*
X186760001Y-104704999D01*
X166860010Y-109404990D02*
X182060010Y-109404990D01*
X161845000Y-114420000D02*
X166860010Y-109404990D01*
G04 #@! TO.N,Net-(R12-Pad1)*
X198120000Y-90805000D02*
X196215000Y-90805000D01*
X196215000Y-90805000D02*
X193675000Y-88265000D01*
X157009999Y-102399999D02*
X156210000Y-101600000D01*
X161880001Y-107270001D02*
X157009999Y-102399999D01*
X168080001Y-107270001D02*
X161880001Y-107270001D01*
X173355000Y-101995002D02*
X168080001Y-107270001D01*
X173355000Y-101204998D02*
X173355000Y-101995002D01*
X186294998Y-88265000D02*
X173355000Y-101204998D01*
X193675000Y-88265000D02*
X186294998Y-88265000D01*
G04 #@! TO.N,Net-(J10-Pad5)*
X173214999Y-113290001D02*
X172165000Y-114340000D01*
X176650000Y-109855000D02*
X173214999Y-113290001D01*
X191770000Y-109855000D02*
X176650000Y-109855000D01*
X198120000Y-103505000D02*
X191770000Y-109855000D01*
G04 #@! TO.N,Net-(D1-Pad2)*
X174625000Y-101600000D02*
X179070000Y-106045000D01*
X199645001Y-102772999D02*
X199645001Y-107059999D01*
X183135001Y-101979999D02*
X198852001Y-101979999D01*
X193414999Y-113290001D02*
X192365000Y-114340000D01*
X199645001Y-107059999D02*
X193414999Y-113290001D01*
X198852001Y-101979999D02*
X199645001Y-102772999D01*
X179070000Y-106045000D02*
X183135001Y-101979999D01*
G04 #@! TO.N,Net-(C8-Pad1)*
X184190000Y-67945000D02*
X184785000Y-68540000D01*
X180975000Y-67945000D02*
X184190000Y-67945000D01*
G04 #@! TO.N,Net-(C10-Pad2)*
X182880000Y-60960000D02*
X184785000Y-60960000D01*
X180975000Y-62865000D02*
X182880000Y-60960000D01*
G04 #@! TO.N,Net-(U3-Pad2)*
X151130000Y-101600000D02*
X153670000Y-101600000D01*
G04 #@! TO.N,/PC7_MIDI_OUT*
X125221999Y-64261999D02*
X124460000Y-63500000D01*
X157480000Y-90170000D02*
X151130000Y-90170000D01*
X151130000Y-90170000D02*
X125221999Y-64261999D01*
X161290000Y-93980000D02*
X157480000Y-90170000D01*
G04 #@! TO.N,/PF4_JS_FIRE*
X86345001Y-120635001D02*
X87320001Y-120635001D01*
X85090000Y-119380000D02*
X86345001Y-120635001D01*
X93531400Y-109035010D02*
X85090000Y-117476410D01*
X105410000Y-104405020D02*
X100780010Y-109035010D01*
X123376400Y-56699990D02*
X89350010Y-56699990D01*
X85090000Y-117476410D02*
X85090000Y-119380000D01*
X124461410Y-57785000D02*
X123376400Y-56699990D01*
X127973762Y-57785000D02*
X124461410Y-57785000D01*
X105410000Y-103506410D02*
X105410000Y-104405020D01*
X130992999Y-60804237D02*
X127973762Y-57785000D01*
X130992999Y-62412999D02*
X130992999Y-60804237D01*
X104138590Y-102235000D02*
X105410000Y-103506410D01*
X132080000Y-63500000D02*
X130992999Y-62412999D01*
X76929999Y-69120001D02*
X76929999Y-72484999D01*
X100780010Y-109035010D02*
X93531400Y-109035010D01*
X76929999Y-72484999D02*
X78105000Y-73660000D01*
X78105000Y-73660000D02*
X83820000Y-73660000D01*
X89350010Y-56699990D02*
X76929999Y-69120001D01*
X83820000Y-73660000D02*
X99150001Y-88990001D01*
X87320001Y-120635001D02*
X88120000Y-121435000D01*
X99150001Y-88990001D02*
X99150001Y-98515001D01*
X99150001Y-98515001D02*
X102870000Y-102235000D01*
X102870000Y-102235000D02*
X104138590Y-102235000D01*
G04 #@! TO.N,/PD6_JS_LEFT*
X82009999Y-69920996D02*
X88430995Y-63500000D01*
X82009999Y-71660001D02*
X82009999Y-69920996D01*
X88430995Y-63500000D02*
X90170000Y-63500000D01*
X82009999Y-71660001D02*
X81026000Y-72644000D01*
X81026000Y-72644000D02*
X80010000Y-72644000D01*
G04 #@! TO.N,/PE2_JS_UP*
X87785000Y-118595000D02*
X96525000Y-109855000D01*
X86735000Y-118595000D02*
X87785000Y-118595000D01*
X96525000Y-109855000D02*
X125095000Y-109855000D01*
X125095000Y-109855000D02*
X125095000Y-109855000D01*
G04 #@! TO.N,/PE3_JS_DOWN*
X90304999Y-117795001D02*
X90484999Y-117795001D01*
X89505000Y-118595000D02*
X90304999Y-117795001D01*
X90484999Y-117795001D02*
X97155000Y-111125000D01*
X97155000Y-111125000D02*
X125730000Y-111125000D01*
X125730000Y-111125000D02*
X125730000Y-111125000D01*
G04 #@! TD*
M02*
