M48
;DRILL file {KiCad 5.0.2-bee76a0~70~ubuntu18.04.1} date Sat 12 Jan 2019 23:53:18 GMT
;FORMAT={-:-/ absolute / inch / decimal}
FMAT,2
INCH,TZ
T1C0.0157
T2C0.0236
T3C0.0300
T4C0.0315
T5C0.0350
T6C0.0354
T7C0.0394
T8C0.0472
T9C0.0551
T10C0.0630
T11C0.0902
T12C0.1260
%
G90
G05
T1
X3.15Y-2.86
X3.55Y-2.5
X3.875Y-3.525
X4.1Y-4.1
X4.375Y-3.625
X4.5Y-2.025
X4.5Y-2.075
X4.6Y-3.525
X4.625Y-3.125
X4.625Y-4.
X4.9Y-2.225
X4.925Y-4.325
X4.95Y-2.175
X4.95Y-4.375
X5.175Y-2.175
X5.25Y-4.3
X5.2605Y-2.5645
X5.275Y-3.6
X5.3395Y-2.5645
X5.35Y-4.425
X5.365Y-4.36
X5.4Y-3.975
X5.4Y-4.425
X5.4001Y-2.45
X5.45Y-3.85
X5.475Y-4.2
X5.625Y-3.8
X5.6443Y-2.9443
X5.75Y-3.525
X5.825Y-3.075
X5.85Y-3.6
X5.95Y-4.1
X5.9535Y-3.6285
X6.0156Y-3.
X6.15Y-2.1
X6.425Y-3.1
X6.6Y-3.55
X6.7809Y-3.6285
X7.075Y-3.6
T2
X7.95Y-2.55
X8.0287Y-2.55
X3.1213Y-2.15
X3.2Y-2.15
X7.45Y-2.55
X7.5287Y-2.55
T3
X4.3Y-2.4
X4.3Y-2.5
X4.3Y-4.1
X4.3Y-4.2
X4.4Y-2.4
X4.4Y-2.5
X4.4Y-4.1
X4.4Y-4.2
X4.5Y-2.4
X4.5Y-2.5
X4.5Y-4.1
X4.5Y-4.2
X4.6Y-2.4
X4.6Y-2.5
X4.6Y-4.1
X4.6Y-4.2
X4.7Y-2.4
X4.7Y-2.5
X4.7Y-4.1
X4.7Y-4.2
X4.8Y-2.4
X4.8Y-2.5
X4.8Y-4.1
X4.8Y-4.2
X4.9Y-2.4
X4.9Y-2.5
X4.9Y-4.1
X4.9Y-4.2
X5.Y-2.4
X5.Y-2.5
X5.Y-4.1
X5.Y-4.2
X5.1Y-2.4
X5.1Y-2.5
X5.1Y-4.1
X5.1Y-4.2
X5.2Y-2.4
X5.2Y-2.5
X5.2Y-4.1
X5.2Y-4.2
T4
X7.275Y-2.6
X7.275Y-2.6984
X6.375Y-2.7016
X6.375Y-2.8
X6.925Y-3.225
X7.0234Y-3.225
X6.675Y-3.7
X6.675Y-4.
X6.775Y-3.7
X6.775Y-4.
X6.875Y-3.7
X6.875Y-4.
X6.975Y-3.7
X6.975Y-4.
X7.5Y-2.1766
X7.5Y-2.275
X5.85Y-3.7
X5.85Y-4.
X5.95Y-3.7
X5.95Y-4.
X6.05Y-3.7
X6.05Y-4.
X6.15Y-3.7
X6.15Y-4.
X6.25Y-3.7
X6.25Y-4.
X6.35Y-3.7
X6.35Y-4.
X6.45Y-3.7
X6.45Y-4.
X7.275Y-2.3016
X7.275Y-2.4
X5.95Y-2.1
X5.95Y-2.2
X5.95Y-2.3
X5.95Y-2.4
X5.95Y-2.5
X5.95Y-2.6
X5.95Y-2.7
X5.95Y-2.8
X5.95Y-2.9
X5.95Y-3.
X5.95Y-3.1
X5.95Y-3.2
X5.95Y-3.3
X5.95Y-3.4
X6.25Y-2.1
X6.25Y-2.2
X6.25Y-2.3
X6.25Y-2.4
X6.25Y-2.5
X6.25Y-2.6
X6.25Y-2.7
X6.25Y-2.8
X6.25Y-2.9
X6.25Y-3.
X6.25Y-3.1
X6.25Y-3.2
X6.25Y-3.3
X6.25Y-3.4
X6.825Y-2.275
X6.825Y-2.375
X6.825Y-2.475
X6.825Y-2.575
X6.825Y-2.675
X6.825Y-2.775
X6.825Y-2.875
X6.825Y-2.975
X7.125Y-2.275
X7.125Y-2.375
X7.125Y-2.475
X7.125Y-2.575
X7.125Y-2.675
X7.125Y-2.775
X7.125Y-2.875
X7.125Y-2.975
X5.8Y-2.7766
X5.8Y-2.875
X7.275Y-2.875
X7.275Y-2.9734
X6.775Y-3.525
X6.8734Y-3.525
X6.675Y-2.875
X6.675Y-2.9734
X7.75Y-2.5016
X7.75Y-2.6
X5.8Y-2.5266
X5.8Y-2.625
T5
X4.5681Y-4.6669
X4.5681Y-4.765
X4.6488Y-4.765
X4.7512Y-4.765
X4.8319Y-4.6669
X4.8319Y-4.765
X5.2681Y-4.6669
X5.2681Y-4.765
X5.3488Y-4.765
X5.4512Y-4.765
X5.5319Y-4.6669
X5.5319Y-4.765
T6
X6.55Y-4.175
X7.05Y-4.175
T7
X5.1728Y-1.8309
X5.2274Y-1.7191
X5.2819Y-1.8309
X5.3364Y-1.7191
X5.3909Y-1.8309
X5.4455Y-1.7191
X5.5Y-1.8309
X5.5545Y-1.7191
X5.6091Y-1.8309
X5.6636Y-1.7191
X5.7181Y-1.8309
X5.7726Y-1.7191
X5.8272Y-1.8309
X5.8817Y-1.7191
X5.9362Y-1.8309
X5.9907Y-1.7191
X6.0453Y-1.8309
X6.0998Y-1.7191
X6.1543Y-1.8309
X6.2089Y-1.7191
X6.2634Y-1.8309
X6.3179Y-1.7191
X6.3724Y-1.8309
X6.427Y-1.7191
X6.4815Y-1.8309
X3.4148Y-4.6691
X3.4693Y-4.7809
X3.5238Y-4.6691
X3.5783Y-4.7809
X3.6329Y-4.6691
X3.6874Y-4.7809
X3.7419Y-4.6691
X3.7965Y-4.7809
X3.851Y-4.6691
X6.5Y-3.15
X6.5Y-3.25
X6.5Y-3.35
X6.5Y-3.45
X6.575Y-2.1
X6.575Y-2.2
X6.575Y-2.3
X6.575Y-2.4
X6.575Y-2.5
X6.575Y-2.6
X6.675Y-2.1
X6.675Y-2.2
X6.675Y-2.3
X6.675Y-2.4
X6.675Y-2.5
X6.675Y-2.6
X7.3043Y-1.8307
X7.3589Y-1.7189
X7.4134Y-1.8307
X7.4679Y-1.7189
X7.5224Y-1.8307
X7.577Y-1.7189
X7.6315Y-1.8307
X7.686Y-1.7189
X7.7406Y-1.8307
X2.975Y-2.775
X3.075Y-2.775
X3.175Y-2.775
X3.275Y-2.775
X3.375Y-2.775
X3.475Y-2.775
X3.575Y-2.775
X7.75Y-2.825
X7.85Y-2.825
X7.95Y-2.825
X3.8772Y-1.803
X3.9222Y-1.725
X3.9222Y-1.8809
X3.9673Y-1.803
X4.0124Y-1.725
X4.0124Y-1.8809
X4.0575Y-1.803
X4.1026Y-1.725
X4.1026Y-1.8809
X4.1476Y-1.803
X4.1927Y-1.725
X4.1927Y-1.8809
X4.2378Y-1.803
X4.2829Y-1.725
X4.2829Y-1.8809
T8
X5.Y-3.275
X5.Y-3.775
X3.7065Y-2.0687
X3.7065Y-2.5687
X7.6Y-3.575
X7.6Y-4.075
X4.8Y-3.275
X4.8Y-3.775
X7.4Y-3.575
X7.4Y-4.075
X4.2Y-3.275
X4.2Y-3.775
X5.2Y-3.275
X5.2Y-3.775
X5.4Y-3.275
X5.4Y-3.775
X3.8Y-3.275
X3.8Y-3.775
X3.5293Y-2.0687
X3.5293Y-2.5687
X4.6Y-3.275
X4.6Y-3.775
X7.8Y-3.575
X7.8Y-4.075
X3.8836Y-2.0687
X3.8836Y-2.5687
X4.4Y-3.275
X4.4Y-3.775
X4.Y-3.275
X4.Y-3.775
X8.Y-3.575
X8.Y-4.075
T9
X6.6797Y-4.6
X6.7781Y-4.5016
X6.7781Y-4.9937
X6.975Y-4.6
X7.1719Y-4.5016
X7.1719Y-4.9937
X7.2703Y-4.6
X7.475Y-4.6
X7.5734Y-4.5016
X7.5734Y-4.9937
X7.7703Y-4.6
X7.9671Y-4.5016
X7.9671Y-4.9937
X8.0656Y-4.6
X5.8797Y-4.6031
X5.9781Y-4.5047
X5.9781Y-4.9969
X6.175Y-4.6031
X6.3719Y-4.5047
X6.3719Y-4.9969
X6.4703Y-4.6031
T10
X2.99Y-1.8431
X3.175Y-1.725
X3.175Y-1.9612
T11
X4.4339Y-4.8831
X4.7Y-4.915
X4.9661Y-4.8831
X5.1339Y-4.8831
X5.4Y-4.915
X5.6661Y-4.8831
T12
X4.9Y-1.775
X6.7543Y-1.775
X3.1407Y-4.725
X4.125Y-4.725
X7.0303Y-1.7748
X8.0146Y-1.7748
X3.6Y-1.825
X4.5843Y-1.825
T7
X7.7835Y-2.3053G85X7.7835Y-2.3447
G05
X8.Y-2.3053G85X8.Y-2.3447
G05
X8.0945Y-2.2266G85X8.0945Y-2.2659
G05
T0
M30
