G04 #@! TF.GenerationSoftware,KiCad,Pcbnew,5.0.2-bee76a0~70~ubuntu18.04.1*
G04 #@! TF.CreationDate,2019-01-12T22:56:13+00:00*
G04 #@! TF.ProjectId,monotron,6d6f6e6f-7472-46f6-9e2e-6b696361645f,0.5.0*
G04 #@! TF.SameCoordinates,Original*
G04 #@! TF.FileFunction,Legend,Top*
G04 #@! TF.FilePolarity,Positive*
%FSLAX46Y46*%
G04 Gerber Fmt 4.6, Leading zero omitted, Abs format (unit mm)*
G04 Created by KiCad (PCBNEW 5.0.2-bee76a0~70~ubuntu18.04.1) date Sat 12 Jan 2019 22:56:13 GMT*
%MOMM*%
%LPD*%
G01*
G04 APERTURE LIST*
%ADD10C,0.300000*%
%ADD11C,0.150000*%
%ADD12C,0.120000*%
G04 APERTURE END LIST*
D10*
X83090000Y-51248571D02*
X82375714Y-51248571D01*
X82304285Y-51962857D01*
X82375714Y-51891428D01*
X82518571Y-51820000D01*
X82875714Y-51820000D01*
X83018571Y-51891428D01*
X83090000Y-51962857D01*
X83161428Y-52105714D01*
X83161428Y-52462857D01*
X83090000Y-52605714D01*
X83018571Y-52677142D01*
X82875714Y-52748571D01*
X82518571Y-52748571D01*
X82375714Y-52677142D01*
X82304285Y-52605714D01*
X83590000Y-51248571D02*
X84090000Y-52748571D01*
X84590000Y-51248571D01*
X85161428Y-52677142D02*
X85161428Y-52748571D01*
X85090000Y-52891428D01*
X85018571Y-52962857D01*
X86590000Y-52748571D02*
X85732857Y-52748571D01*
X86161428Y-52748571D02*
X86161428Y-51248571D01*
X86018571Y-51462857D01*
X85875714Y-51605714D01*
X85732857Y-51677142D01*
X87161428Y-52320000D02*
X87875714Y-52320000D01*
X87018571Y-52748571D02*
X87518571Y-51248571D01*
X88018571Y-52748571D01*
X102882142Y-49978571D02*
X103382142Y-51478571D01*
X103882142Y-49978571D01*
X105167857Y-50050000D02*
X105025000Y-49978571D01*
X104810714Y-49978571D01*
X104596428Y-50050000D01*
X104453571Y-50192857D01*
X104382142Y-50335714D01*
X104310714Y-50621428D01*
X104310714Y-50835714D01*
X104382142Y-51121428D01*
X104453571Y-51264285D01*
X104596428Y-51407142D01*
X104810714Y-51478571D01*
X104953571Y-51478571D01*
X105167857Y-51407142D01*
X105239285Y-51335714D01*
X105239285Y-50835714D01*
X104953571Y-50835714D01*
X105810714Y-51050000D02*
X106525000Y-51050000D01*
X105667857Y-51478571D02*
X106167857Y-49978571D01*
X106667857Y-51478571D01*
X198810714Y-52113571D02*
X198096428Y-52113571D01*
X198096428Y-50613571D01*
X199310714Y-52113571D02*
X199310714Y-51113571D01*
X199310714Y-50613571D02*
X199239285Y-50685000D01*
X199310714Y-50756428D01*
X199382142Y-50685000D01*
X199310714Y-50613571D01*
X199310714Y-50756428D01*
X200025000Y-51113571D02*
X200025000Y-52113571D01*
X200025000Y-51256428D02*
X200096428Y-51185000D01*
X200239285Y-51113571D01*
X200453571Y-51113571D01*
X200596428Y-51185000D01*
X200667857Y-51327857D01*
X200667857Y-52113571D01*
X201953571Y-52042142D02*
X201810714Y-52113571D01*
X201525000Y-52113571D01*
X201382142Y-52042142D01*
X201310714Y-51899285D01*
X201310714Y-51327857D01*
X201382142Y-51185000D01*
X201525000Y-51113571D01*
X201810714Y-51113571D01*
X201953571Y-51185000D01*
X202025000Y-51327857D01*
X202025000Y-51470714D01*
X201310714Y-51613571D01*
X143922857Y-50843571D02*
X143208571Y-50843571D01*
X143208571Y-49343571D01*
X144422857Y-50843571D02*
X144422857Y-49343571D01*
X144994285Y-49343571D01*
X145137142Y-49415000D01*
X145208571Y-49486428D01*
X145280000Y-49629285D01*
X145280000Y-49843571D01*
X145208571Y-49986428D01*
X145137142Y-50057857D01*
X144994285Y-50129285D01*
X144422857Y-50129285D01*
X145708571Y-49343571D02*
X146565714Y-49343571D01*
X146137142Y-50843571D02*
X146137142Y-49343571D01*
X188742142Y-50843571D02*
X188242142Y-50129285D01*
X187885000Y-50843571D02*
X187885000Y-49343571D01*
X188456428Y-49343571D01*
X188599285Y-49415000D01*
X188670714Y-49486428D01*
X188742142Y-49629285D01*
X188742142Y-49843571D01*
X188670714Y-49986428D01*
X188599285Y-50057857D01*
X188456428Y-50129285D01*
X187885000Y-50129285D01*
X189313571Y-50772142D02*
X189527857Y-50843571D01*
X189885000Y-50843571D01*
X190027857Y-50772142D01*
X190099285Y-50700714D01*
X190170714Y-50557857D01*
X190170714Y-50415000D01*
X190099285Y-50272142D01*
X190027857Y-50200714D01*
X189885000Y-50129285D01*
X189599285Y-50057857D01*
X189456428Y-49986428D01*
X189385000Y-49915000D01*
X189313571Y-49772142D01*
X189313571Y-49629285D01*
X189385000Y-49486428D01*
X189456428Y-49415000D01*
X189599285Y-49343571D01*
X189956428Y-49343571D01*
X190170714Y-49415000D01*
X190742142Y-49486428D02*
X190813571Y-49415000D01*
X190956428Y-49343571D01*
X191313571Y-49343571D01*
X191456428Y-49415000D01*
X191527857Y-49486428D01*
X191599285Y-49629285D01*
X191599285Y-49772142D01*
X191527857Y-49986428D01*
X190670714Y-50843571D01*
X191599285Y-50843571D01*
X192099285Y-49343571D02*
X193027857Y-49343571D01*
X192527857Y-49915000D01*
X192742142Y-49915000D01*
X192885000Y-49986428D01*
X192956428Y-50057857D01*
X193027857Y-50200714D01*
X193027857Y-50557857D01*
X192956428Y-50700714D01*
X192885000Y-50772142D01*
X192742142Y-50843571D01*
X192313571Y-50843571D01*
X192170714Y-50772142D01*
X192099285Y-50700714D01*
X193599285Y-49486428D02*
X193670714Y-49415000D01*
X193813571Y-49343571D01*
X194170714Y-49343571D01*
X194313571Y-49415000D01*
X194385000Y-49486428D01*
X194456428Y-49629285D01*
X194456428Y-49772142D01*
X194385000Y-49986428D01*
X193527857Y-50843571D01*
X194456428Y-50843571D01*
X168426428Y-109898571D02*
X168426428Y-108398571D01*
X168926428Y-109470000D01*
X169426428Y-108398571D01*
X169426428Y-109898571D01*
X170140714Y-109898571D02*
X170140714Y-108398571D01*
X170855000Y-109898571D02*
X170855000Y-108398571D01*
X171212142Y-108398571D01*
X171426428Y-108470000D01*
X171569285Y-108612857D01*
X171640714Y-108755714D01*
X171712142Y-109041428D01*
X171712142Y-109255714D01*
X171640714Y-109541428D01*
X171569285Y-109684285D01*
X171426428Y-109827142D01*
X171212142Y-109898571D01*
X170855000Y-109898571D01*
X172355000Y-109898571D02*
X172355000Y-108398571D01*
X173997857Y-108398571D02*
X174855000Y-108398571D01*
X174426428Y-109898571D02*
X174426428Y-108398571D01*
X175355000Y-109898571D02*
X175355000Y-108398571D01*
X175997857Y-109898571D02*
X175997857Y-109112857D01*
X175926428Y-108970000D01*
X175783571Y-108898571D01*
X175569285Y-108898571D01*
X175426428Y-108970000D01*
X175355000Y-109041428D01*
X176712142Y-109898571D02*
X176712142Y-108898571D01*
X176712142Y-109184285D02*
X176783571Y-109041428D01*
X176855000Y-108970000D01*
X176997857Y-108898571D01*
X177140714Y-108898571D01*
X178283571Y-108898571D02*
X178283571Y-109898571D01*
X177640714Y-108898571D02*
X177640714Y-109684285D01*
X177712142Y-109827142D01*
X177855000Y-109898571D01*
X178069285Y-109898571D01*
X178212142Y-109827142D01*
X178283571Y-109755714D01*
X188198571Y-109898571D02*
X188198571Y-108398571D01*
X188698571Y-109470000D01*
X189198571Y-108398571D01*
X189198571Y-109898571D01*
X189912857Y-109898571D02*
X189912857Y-108398571D01*
X190627142Y-109898571D02*
X190627142Y-108398571D01*
X190984285Y-108398571D01*
X191198571Y-108470000D01*
X191341428Y-108612857D01*
X191412857Y-108755714D01*
X191484285Y-109041428D01*
X191484285Y-109255714D01*
X191412857Y-109541428D01*
X191341428Y-109684285D01*
X191198571Y-109827142D01*
X190984285Y-109898571D01*
X190627142Y-109898571D01*
X192127142Y-109898571D02*
X192127142Y-108398571D01*
X193984285Y-109898571D02*
X193984285Y-108398571D01*
X194698571Y-108898571D02*
X194698571Y-109898571D01*
X194698571Y-109041428D02*
X194770000Y-108970000D01*
X194912857Y-108898571D01*
X195127142Y-108898571D01*
X195270000Y-108970000D01*
X195341428Y-109112857D01*
X195341428Y-109898571D01*
X147971428Y-109898571D02*
X147971428Y-108398571D01*
X148471428Y-109470000D01*
X148971428Y-108398571D01*
X148971428Y-109898571D01*
X149685714Y-109898571D02*
X149685714Y-108398571D01*
X150400000Y-109898571D02*
X150400000Y-108398571D01*
X150757142Y-108398571D01*
X150971428Y-108470000D01*
X151114285Y-108612857D01*
X151185714Y-108755714D01*
X151257142Y-109041428D01*
X151257142Y-109255714D01*
X151185714Y-109541428D01*
X151114285Y-109684285D01*
X150971428Y-109827142D01*
X150757142Y-109898571D01*
X150400000Y-109898571D01*
X151900000Y-109898571D02*
X151900000Y-108398571D01*
X154042857Y-108398571D02*
X154328571Y-108398571D01*
X154471428Y-108470000D01*
X154614285Y-108612857D01*
X154685714Y-108898571D01*
X154685714Y-109398571D01*
X154614285Y-109684285D01*
X154471428Y-109827142D01*
X154328571Y-109898571D01*
X154042857Y-109898571D01*
X153900000Y-109827142D01*
X153757142Y-109684285D01*
X153685714Y-109398571D01*
X153685714Y-108898571D01*
X153757142Y-108612857D01*
X153900000Y-108470000D01*
X154042857Y-108398571D01*
X155971428Y-108898571D02*
X155971428Y-109898571D01*
X155328571Y-108898571D02*
X155328571Y-109684285D01*
X155400000Y-109827142D01*
X155542857Y-109898571D01*
X155757142Y-109898571D01*
X155900000Y-109827142D01*
X155971428Y-109755714D01*
X156471428Y-108898571D02*
X157042857Y-108898571D01*
X156685714Y-108398571D02*
X156685714Y-109684285D01*
X156757142Y-109827142D01*
X156900000Y-109898571D01*
X157042857Y-109898571D01*
X130865714Y-116248571D02*
X130865714Y-114748571D01*
X131365714Y-115820000D01*
X131865714Y-114748571D01*
X131865714Y-116248571D01*
X132508571Y-116177142D02*
X132722857Y-116248571D01*
X133080000Y-116248571D01*
X133222857Y-116177142D01*
X133294285Y-116105714D01*
X133365714Y-115962857D01*
X133365714Y-115820000D01*
X133294285Y-115677142D01*
X133222857Y-115605714D01*
X133080000Y-115534285D01*
X132794285Y-115462857D01*
X132651428Y-115391428D01*
X132580000Y-115320000D01*
X132508571Y-115177142D01*
X132508571Y-115034285D01*
X132580000Y-114891428D01*
X132651428Y-114820000D01*
X132794285Y-114748571D01*
X133151428Y-114748571D01*
X133365714Y-114820000D01*
X113157142Y-116248571D02*
X113157142Y-114748571D01*
X114014285Y-116248571D02*
X113371428Y-115391428D01*
X114014285Y-114748571D02*
X113157142Y-115605714D01*
X115157142Y-115462857D02*
X115371428Y-115534285D01*
X115442857Y-115605714D01*
X115514285Y-115748571D01*
X115514285Y-115962857D01*
X115442857Y-116105714D01*
X115371428Y-116177142D01*
X115228571Y-116248571D01*
X114657142Y-116248571D01*
X114657142Y-114748571D01*
X115157142Y-114748571D01*
X115300000Y-114820000D01*
X115371428Y-114891428D01*
X115442857Y-115034285D01*
X115442857Y-115177142D01*
X115371428Y-115320000D01*
X115300000Y-115391428D01*
X115157142Y-115462857D01*
X114657142Y-115462857D01*
X97286428Y-114748571D02*
X97286428Y-115820000D01*
X97215000Y-116034285D01*
X97072142Y-116177142D01*
X96857857Y-116248571D01*
X96715000Y-116248571D01*
X98215000Y-116248571D02*
X98072142Y-116177142D01*
X98000714Y-116105714D01*
X97929285Y-115962857D01*
X97929285Y-115534285D01*
X98000714Y-115391428D01*
X98072142Y-115320000D01*
X98215000Y-115248571D01*
X98429285Y-115248571D01*
X98572142Y-115320000D01*
X98643571Y-115391428D01*
X98715000Y-115534285D01*
X98715000Y-115962857D01*
X98643571Y-116105714D01*
X98572142Y-116177142D01*
X98429285Y-116248571D01*
X98215000Y-116248571D01*
X99215000Y-115248571D02*
X99572142Y-116248571D01*
X99929285Y-115248571D02*
X99572142Y-116248571D01*
X99429285Y-116605714D01*
X99357857Y-116677142D01*
X99215000Y-116748571D01*
X100429285Y-116177142D02*
X100572142Y-116248571D01*
X100857857Y-116248571D01*
X101000714Y-116177142D01*
X101072142Y-116034285D01*
X101072142Y-115962857D01*
X101000714Y-115820000D01*
X100857857Y-115748571D01*
X100643571Y-115748571D01*
X100500714Y-115677142D01*
X100429285Y-115534285D01*
X100429285Y-115462857D01*
X100500714Y-115320000D01*
X100643571Y-115248571D01*
X100857857Y-115248571D01*
X101000714Y-115320000D01*
X101500714Y-115248571D02*
X102072142Y-115248571D01*
X101715000Y-114748571D02*
X101715000Y-116034285D01*
X101786428Y-116177142D01*
X101929285Y-116248571D01*
X102072142Y-116248571D01*
X102572142Y-116248571D02*
X102572142Y-115248571D01*
X102572142Y-114748571D02*
X102500714Y-114820000D01*
X102572142Y-114891428D01*
X102643571Y-114820000D01*
X102572142Y-114748571D01*
X102572142Y-114891428D01*
X103929285Y-116177142D02*
X103786428Y-116248571D01*
X103500714Y-116248571D01*
X103357857Y-116177142D01*
X103286428Y-116105714D01*
X103215000Y-115962857D01*
X103215000Y-115534285D01*
X103286428Y-115391428D01*
X103357857Y-115320000D01*
X103500714Y-115248571D01*
X103786428Y-115248571D01*
X103929285Y-115320000D01*
X104572142Y-116248571D02*
X104572142Y-114748571D01*
X104715000Y-115677142D02*
X105143571Y-116248571D01*
X105143571Y-115248571D02*
X104572142Y-115820000D01*
X162080000Y-52518571D02*
X163008572Y-52518571D01*
X162508572Y-53090000D01*
X162722857Y-53090000D01*
X162865715Y-53161428D01*
X162937143Y-53232857D01*
X163008572Y-53375714D01*
X163008572Y-53732857D01*
X162937143Y-53875714D01*
X162865715Y-53947142D01*
X162722857Y-54018571D01*
X162294286Y-54018571D01*
X162151429Y-53947142D01*
X162080000Y-53875714D01*
X163508572Y-53018571D02*
X163865715Y-54018571D01*
X164222857Y-53018571D01*
X164651429Y-52518571D02*
X165580000Y-52518571D01*
X165080000Y-53090000D01*
X165294286Y-53090000D01*
X165437143Y-53161428D01*
X165508572Y-53232857D01*
X165580000Y-53375714D01*
X165580000Y-53732857D01*
X165508572Y-53875714D01*
X165437143Y-53947142D01*
X165294286Y-54018571D01*
X164865715Y-54018571D01*
X164722857Y-53947142D01*
X164651429Y-53875714D01*
X162392143Y-65290000D02*
X162249286Y-65218571D01*
X162035000Y-65218571D01*
X161820715Y-65290000D01*
X161677857Y-65432857D01*
X161606429Y-65575714D01*
X161535000Y-65861428D01*
X161535000Y-66075714D01*
X161606429Y-66361428D01*
X161677857Y-66504285D01*
X161820715Y-66647142D01*
X162035000Y-66718571D01*
X162177857Y-66718571D01*
X162392143Y-66647142D01*
X162463572Y-66575714D01*
X162463572Y-66075714D01*
X162177857Y-66075714D01*
X163106429Y-66718571D02*
X163106429Y-65218571D01*
X163963572Y-66718571D01*
X163963572Y-65218571D01*
X164677857Y-66718571D02*
X164677857Y-65218571D01*
X165035000Y-65218571D01*
X165249286Y-65290000D01*
X165392143Y-65432857D01*
X165463572Y-65575714D01*
X165535000Y-65861428D01*
X165535000Y-66075714D01*
X165463572Y-66361428D01*
X165392143Y-66504285D01*
X165249286Y-66647142D01*
X165035000Y-66718571D01*
X164677857Y-66718571D01*
X163008571Y-64035714D02*
X162937142Y-64107142D01*
X162722857Y-64178571D01*
X162580000Y-64178571D01*
X162365714Y-64107142D01*
X162222857Y-63964285D01*
X162151428Y-63821428D01*
X162080000Y-63535714D01*
X162080000Y-63321428D01*
X162151428Y-63035714D01*
X162222857Y-62892857D01*
X162365714Y-62750000D01*
X162580000Y-62678571D01*
X162722857Y-62678571D01*
X162937142Y-62750000D01*
X163008571Y-62821428D01*
X163437142Y-62678571D02*
X164294285Y-62678571D01*
X163865714Y-64178571D02*
X163865714Y-62678571D01*
X164722857Y-64107142D02*
X164937142Y-64178571D01*
X165294285Y-64178571D01*
X165437142Y-64107142D01*
X165508571Y-64035714D01*
X165580000Y-63892857D01*
X165580000Y-63750000D01*
X165508571Y-63607142D01*
X165437142Y-63535714D01*
X165294285Y-63464285D01*
X165008571Y-63392857D01*
X164865714Y-63321428D01*
X164794285Y-63250000D01*
X164722857Y-63107142D01*
X164722857Y-62964285D01*
X164794285Y-62821428D01*
X164865714Y-62750000D01*
X165008571Y-62678571D01*
X165365714Y-62678571D01*
X165580000Y-62750000D01*
X163008571Y-61638571D02*
X162508571Y-60924285D01*
X162151428Y-61638571D02*
X162151428Y-60138571D01*
X162722857Y-60138571D01*
X162865714Y-60210000D01*
X162937142Y-60281428D01*
X163008571Y-60424285D01*
X163008571Y-60638571D01*
X162937142Y-60781428D01*
X162865714Y-60852857D01*
X162722857Y-60924285D01*
X162151428Y-60924285D01*
X163437142Y-60138571D02*
X164294285Y-60138571D01*
X163865714Y-61638571D02*
X163865714Y-60138571D01*
X164722857Y-61567142D02*
X164937142Y-61638571D01*
X165294285Y-61638571D01*
X165437142Y-61567142D01*
X165508571Y-61495714D01*
X165580000Y-61352857D01*
X165580000Y-61210000D01*
X165508571Y-61067142D01*
X165437142Y-60995714D01*
X165294285Y-60924285D01*
X165008571Y-60852857D01*
X164865714Y-60781428D01*
X164794285Y-60710000D01*
X164722857Y-60567142D01*
X164722857Y-60424285D01*
X164794285Y-60281428D01*
X164865714Y-60210000D01*
X165008571Y-60138571D01*
X165365714Y-60138571D01*
X165580000Y-60210000D01*
X163437142Y-57598571D02*
X164294285Y-57598571D01*
X163865714Y-59098571D02*
X163865714Y-57598571D01*
X164651428Y-57598571D02*
X165651428Y-59098571D01*
X165651428Y-57598571D02*
X164651428Y-59098571D01*
X164151429Y-56558571D02*
X163651429Y-55844285D01*
X163294286Y-56558571D02*
X163294286Y-55058571D01*
X163865714Y-55058571D01*
X164008571Y-55130000D01*
X164080000Y-55201428D01*
X164151429Y-55344285D01*
X164151429Y-55558571D01*
X164080000Y-55701428D01*
X164008571Y-55772857D01*
X163865714Y-55844285D01*
X163294286Y-55844285D01*
X164651429Y-55058571D02*
X165651429Y-56558571D01*
X165651429Y-55058571D02*
X164651429Y-56558571D01*
X168318571Y-92768571D02*
X166818571Y-92768571D01*
X166961428Y-92125714D02*
X166890000Y-92054285D01*
X166818571Y-91911428D01*
X166818571Y-91554285D01*
X166890000Y-91411428D01*
X166961428Y-91340000D01*
X167104285Y-91268571D01*
X167247142Y-91268571D01*
X167461428Y-91340000D01*
X168318571Y-92197142D01*
X168318571Y-91268571D01*
X168175714Y-89768571D02*
X168247142Y-89840000D01*
X168318571Y-90054285D01*
X168318571Y-90197142D01*
X168247142Y-90411428D01*
X168104285Y-90554285D01*
X167961428Y-90625714D01*
X167675714Y-90697142D01*
X167461428Y-90697142D01*
X167175714Y-90625714D01*
X167032857Y-90554285D01*
X166890000Y-90411428D01*
X166818571Y-90197142D01*
X166818571Y-90054285D01*
X166890000Y-89840000D01*
X166961428Y-89768571D01*
X167532857Y-87982857D02*
X167532857Y-87482857D01*
X168318571Y-87268571D02*
X168318571Y-87982857D01*
X166818571Y-87982857D01*
X166818571Y-87268571D01*
X168318571Y-86768571D02*
X167318571Y-85982857D01*
X167318571Y-86768571D02*
X168318571Y-85982857D01*
X167318571Y-85411428D02*
X168818571Y-85411428D01*
X167390000Y-85411428D02*
X167318571Y-85268571D01*
X167318571Y-84982857D01*
X167390000Y-84840000D01*
X167461428Y-84768571D01*
X167604285Y-84697142D01*
X168032857Y-84697142D01*
X168175714Y-84768571D01*
X168247142Y-84840000D01*
X168318571Y-84982857D01*
X168318571Y-85268571D01*
X168247142Y-85411428D01*
X168318571Y-83411428D02*
X167532857Y-83411428D01*
X167390000Y-83482857D01*
X167318571Y-83625714D01*
X167318571Y-83911428D01*
X167390000Y-84054285D01*
X168247142Y-83411428D02*
X168318571Y-83554285D01*
X168318571Y-83911428D01*
X168247142Y-84054285D01*
X168104285Y-84125714D01*
X167961428Y-84125714D01*
X167818571Y-84054285D01*
X167747142Y-83911428D01*
X167747142Y-83554285D01*
X167675714Y-83411428D01*
X167318571Y-82697142D02*
X168318571Y-82697142D01*
X167461428Y-82697142D02*
X167390000Y-82625714D01*
X167318571Y-82482857D01*
X167318571Y-82268571D01*
X167390000Y-82125714D01*
X167532857Y-82054285D01*
X168318571Y-82054285D01*
X168247142Y-81411428D02*
X168318571Y-81268571D01*
X168318571Y-80982857D01*
X168247142Y-80840000D01*
X168104285Y-80768571D01*
X168032857Y-80768571D01*
X167890000Y-80840000D01*
X167818571Y-80982857D01*
X167818571Y-81197142D01*
X167747142Y-81340000D01*
X167604285Y-81411428D01*
X167532857Y-81411428D01*
X167390000Y-81340000D01*
X167318571Y-81197142D01*
X167318571Y-80982857D01*
X167390000Y-80840000D01*
X168318571Y-80125714D02*
X167318571Y-80125714D01*
X166818571Y-80125714D02*
X166890000Y-80197142D01*
X166961428Y-80125714D01*
X166890000Y-80054285D01*
X166818571Y-80125714D01*
X166961428Y-80125714D01*
X168318571Y-79197142D02*
X168247142Y-79340000D01*
X168175714Y-79411428D01*
X168032857Y-79482857D01*
X167604285Y-79482857D01*
X167461428Y-79411428D01*
X167390000Y-79340000D01*
X167318571Y-79197142D01*
X167318571Y-78982857D01*
X167390000Y-78840000D01*
X167461428Y-78768571D01*
X167604285Y-78697142D01*
X168032857Y-78697142D01*
X168175714Y-78768571D01*
X168247142Y-78840000D01*
X168318571Y-78982857D01*
X168318571Y-79197142D01*
X167318571Y-78054285D02*
X168318571Y-78054285D01*
X167461428Y-78054285D02*
X167390000Y-77982857D01*
X167318571Y-77840000D01*
X167318571Y-77625714D01*
X167390000Y-77482857D01*
X167532857Y-77411428D01*
X168318571Y-77411428D01*
D11*
G04 #@! TO.C,U1*
X78740000Y-109220000D02*
X109220000Y-109220000D01*
X78740000Y-58420000D02*
X78740000Y-109220000D01*
X144780000Y-58420000D02*
X78740000Y-58420000D01*
X144780000Y-109220000D02*
X144780000Y-58420000D01*
X109220000Y-109220000D02*
X144780000Y-109220000D01*
D12*
G04 #@! TO.C,R4*
X110320000Y-94605000D02*
X109840000Y-94605000D01*
X109840000Y-94605000D02*
X109840000Y-84465000D01*
X109840000Y-84465000D02*
X110320000Y-84465000D01*
X113200000Y-94605000D02*
X113680000Y-94605000D01*
X113680000Y-94605000D02*
X113680000Y-84465000D01*
X113680000Y-84465000D02*
X113200000Y-84465000D01*
G04 #@! TO.C,J7*
X119425000Y-35525000D02*
X119425000Y-49415000D01*
X119425000Y-49415000D02*
X88455000Y-49415000D01*
X88455000Y-49415000D02*
X88455000Y-35525000D01*
X99875000Y-50309338D02*
X99375000Y-50309338D01*
X99375000Y-50309338D02*
X99625000Y-49876325D01*
X99625000Y-49876325D02*
X99875000Y-50309338D01*
G04 #@! TO.C,J4*
X210920000Y-54835000D02*
X210920000Y-61075000D01*
X210920000Y-61075000D02*
X206920000Y-61075000D01*
X206920000Y-61075000D02*
X206920000Y-61375000D01*
X206920000Y-61375000D02*
X192680000Y-61375000D01*
X192680000Y-61375000D02*
X192680000Y-52935000D01*
X192680000Y-52935000D02*
X206920000Y-52935000D01*
X206920000Y-52935000D02*
X206920000Y-54835000D01*
X206920000Y-54835000D02*
X210920000Y-54835000D01*
D11*
G04 #@! TO.C,J9*
X147845000Y-129420000D02*
X147845000Y-110420000D01*
X147845000Y-110420000D02*
X151845000Y-110420000D01*
X151845000Y-110420000D02*
X151845000Y-112920000D01*
X151845000Y-112920000D02*
X154845000Y-112920000D01*
X154845000Y-112920000D02*
X154845000Y-110420000D01*
X154845000Y-110420000D02*
X158845000Y-110420000D01*
X158845000Y-110420000D02*
X158845000Y-112920000D01*
X158845000Y-112920000D02*
X161845000Y-112920000D01*
X161845000Y-112920000D02*
X161845000Y-110420000D01*
X161845000Y-110420000D02*
X165845000Y-110420000D01*
X165845000Y-110420000D02*
X165845000Y-129420000D01*
X165845000Y-129420000D02*
X147845000Y-129420000D01*
G04 #@! TO.C,J10*
X186165000Y-129340000D02*
X168165000Y-129340000D01*
X186165000Y-110340000D02*
X186165000Y-129340000D01*
X182165000Y-110340000D02*
X186165000Y-110340000D01*
X182165000Y-112840000D02*
X182165000Y-110340000D01*
X179165000Y-112840000D02*
X182165000Y-112840000D01*
X179165000Y-110340000D02*
X179165000Y-112840000D01*
X175165000Y-110340000D02*
X179165000Y-110340000D01*
X175165000Y-112840000D02*
X175165000Y-110340000D01*
X172165000Y-112840000D02*
X175165000Y-112840000D01*
X172165000Y-110340000D02*
X172165000Y-112840000D01*
X168165000Y-110340000D02*
X172165000Y-110340000D01*
X168165000Y-129340000D02*
X168165000Y-110340000D01*
G04 #@! TO.C,J11*
X188365000Y-129340000D02*
X188365000Y-110340000D01*
X188365000Y-110340000D02*
X192365000Y-110340000D01*
X192365000Y-110340000D02*
X192365000Y-112840000D01*
X192365000Y-112840000D02*
X195365000Y-112840000D01*
X195365000Y-112840000D02*
X195365000Y-110340000D01*
X195365000Y-110340000D02*
X199365000Y-110340000D01*
X199365000Y-110340000D02*
X199365000Y-112840000D01*
X199365000Y-112840000D02*
X202365000Y-112840000D01*
X202365000Y-112840000D02*
X202365000Y-110340000D01*
X202365000Y-110340000D02*
X206365000Y-110340000D01*
X206365000Y-110340000D02*
X206365000Y-129340000D01*
X206365000Y-129340000D02*
X188365000Y-129340000D01*
D12*
G04 #@! TO.C,J1*
X203260000Y-73085000D02*
X203260000Y-70425000D01*
X198120000Y-73085000D02*
X203260000Y-73085000D01*
X198120000Y-70425000D02*
X203260000Y-70425000D01*
X198120000Y-73085000D02*
X198120000Y-70425000D01*
X196850000Y-73085000D02*
X195520000Y-73085000D01*
X195520000Y-73085000D02*
X195520000Y-71755000D01*
G04 #@! TO.C,J12*
X206420000Y-36025000D02*
X206420000Y-48365000D01*
X206420000Y-48365000D02*
X175450000Y-48365000D01*
X175450000Y-48365000D02*
X175450000Y-36025000D01*
X196725000Y-49259338D02*
X196225000Y-49259338D01*
X196225000Y-49259338D02*
X196475000Y-48826325D01*
X196475000Y-48826325D02*
X196725000Y-49259338D01*
D11*
G04 #@! TO.C,J14*
X112522000Y-129540000D02*
X126238000Y-129540000D01*
X112522000Y-116540000D02*
X112522000Y-129540000D01*
X126238000Y-116586000D02*
X112522000Y-116586000D01*
X126238000Y-129540000D02*
X126238000Y-116540000D01*
G04 #@! TO.C,J15*
X130302000Y-129540000D02*
X144018000Y-129540000D01*
X130302000Y-116540000D02*
X130302000Y-129540000D01*
X144018000Y-116586000D02*
X130302000Y-116586000D01*
X144018000Y-129540000D02*
X144018000Y-116540000D01*
D12*
G04 #@! TO.C,U5*
X153940000Y-87690000D02*
G75*
G02X155940000Y-87690000I1000000J0D01*
G01*
X155940000Y-87690000D02*
X157590000Y-87690000D01*
X157590000Y-87690000D02*
X157590000Y-52010000D01*
X157590000Y-52010000D02*
X152290000Y-52010000D01*
X152290000Y-52010000D02*
X152290000Y-87690000D01*
X152290000Y-87690000D02*
X153940000Y-87690000D01*
G04 #@! TO.C,J2*
X76045000Y-45015000D02*
X76045000Y-36015000D01*
X76045000Y-36015000D02*
X85245000Y-36015000D01*
X85245000Y-36015000D02*
X85245000Y-50615000D01*
X85245000Y-50615000D02*
X82445000Y-50615000D01*
X78845000Y-50615000D02*
X76045000Y-50615000D01*
X76045000Y-50615000D02*
X76045000Y-48615000D01*
X85485000Y-49115000D02*
X85485000Y-50855000D01*
X85485000Y-50855000D02*
X83745000Y-50855000D01*
G04 #@! TO.C,J13*
X174620000Y-36025000D02*
X174620000Y-48365000D01*
X174620000Y-48365000D02*
X121400000Y-48365000D01*
X121400000Y-48365000D02*
X121400000Y-36025000D01*
X164880000Y-49259338D02*
X164380000Y-49259338D01*
X164380000Y-49259338D02*
X164630000Y-48826325D01*
X164630000Y-48826325D02*
X164880000Y-49259338D01*
G04 #@! TO.C,J5*
X86735000Y-116273675D02*
X86485000Y-115840662D01*
X86985000Y-115840662D02*
X86735000Y-116273675D01*
X86485000Y-115840662D02*
X86985000Y-115840662D01*
X107760000Y-116735000D02*
X107760000Y-129075000D01*
X76790000Y-116735000D02*
X107760000Y-116735000D01*
X76790000Y-129075000D02*
X76790000Y-116735000D01*
G04 #@! TO.C,J6*
X163770000Y-88960000D02*
X166430000Y-88960000D01*
X163770000Y-81280000D02*
X163770000Y-88960000D01*
X166430000Y-81280000D02*
X166430000Y-88960000D01*
X163770000Y-81280000D02*
X166430000Y-81280000D01*
X163770000Y-80010000D02*
X163770000Y-78680000D01*
X163770000Y-78680000D02*
X165100000Y-78680000D01*
G04 #@! TO.C,J3*
X92135000Y-71815000D02*
X92135000Y-69155000D01*
X76835000Y-71815000D02*
X92135000Y-71815000D01*
X76835000Y-69155000D02*
X92135000Y-69155000D01*
X76835000Y-71815000D02*
X76835000Y-69155000D01*
X75565000Y-71815000D02*
X74235000Y-71815000D01*
X74235000Y-71815000D02*
X74235000Y-70485000D01*
G04 #@! TO.C,J8*
X170875000Y-52010000D02*
X165675000Y-52010000D01*
X170875000Y-64770000D02*
X170875000Y-52010000D01*
X165675000Y-67370000D02*
X165675000Y-52010000D01*
X170875000Y-64770000D02*
X168275000Y-64770000D01*
X168275000Y-64770000D02*
X168275000Y-67370000D01*
X168275000Y-67370000D02*
X165675000Y-67370000D01*
X170875000Y-66040000D02*
X170875000Y-67370000D01*
X170875000Y-67370000D02*
X169545000Y-67370000D01*
G04 #@! TO.C,D1*
X170000000Y-104575000D02*
X170000000Y-107515000D01*
X170000000Y-107515000D02*
X175440000Y-107515000D01*
X175440000Y-107515000D02*
X175440000Y-104575000D01*
X175440000Y-104575000D02*
X170000000Y-104575000D01*
X167510000Y-106045000D02*
X170000000Y-106045000D01*
X177930000Y-106045000D02*
X175440000Y-106045000D01*
X170900000Y-104575000D02*
X170900000Y-107515000D01*
X171020000Y-104575000D02*
X171020000Y-107515000D01*
X170780000Y-104575000D02*
X170780000Y-107515000D01*
G04 #@! TO.C,U3*
X147260000Y-96790000D02*
G75*
G02X147260000Y-98790000I0J-1000000D01*
G01*
X147260000Y-98790000D02*
X147260000Y-100440000D01*
X147260000Y-100440000D02*
X165160000Y-100440000D01*
X165160000Y-100440000D02*
X165160000Y-95140000D01*
X165160000Y-95140000D02*
X147260000Y-95140000D01*
X147260000Y-95140000D02*
X147260000Y-96790000D01*
G04 #@! TO.C,U4*
X168215000Y-96790000D02*
G75*
G02X168215000Y-98790000I0J-1000000D01*
G01*
X168215000Y-98790000D02*
X168215000Y-100440000D01*
X168215000Y-100440000D02*
X178495000Y-100440000D01*
X178495000Y-100440000D02*
X178495000Y-95140000D01*
X178495000Y-95140000D02*
X168215000Y-95140000D01*
X168215000Y-95140000D02*
X168215000Y-96790000D01*
G04 #@! TO.C,R12*
X199560000Y-92085000D02*
X200040000Y-92085000D01*
X200040000Y-92085000D02*
X200040000Y-102225000D01*
X200040000Y-102225000D02*
X199560000Y-102225000D01*
X196680000Y-92085000D02*
X196200000Y-92085000D01*
X196200000Y-92085000D02*
X196200000Y-102225000D01*
X196200000Y-102225000D02*
X196680000Y-102225000D01*
G04 #@! TO.C,R10*
X186040000Y-102225000D02*
X186520000Y-102225000D01*
X186040000Y-92085000D02*
X186040000Y-102225000D01*
X186520000Y-92085000D02*
X186040000Y-92085000D01*
X189880000Y-102225000D02*
X189400000Y-102225000D01*
X189880000Y-92085000D02*
X189880000Y-102225000D01*
X189400000Y-92085000D02*
X189880000Y-92085000D01*
G04 #@! TO.C,R11*
X191600000Y-102225000D02*
X191120000Y-102225000D01*
X191120000Y-102225000D02*
X191120000Y-92085000D01*
X191120000Y-92085000D02*
X191600000Y-92085000D01*
X194480000Y-102225000D02*
X194960000Y-102225000D01*
X194960000Y-102225000D02*
X194960000Y-92085000D01*
X194960000Y-92085000D02*
X194480000Y-92085000D01*
G04 #@! TO.C,R14*
X201280000Y-102225000D02*
X201760000Y-102225000D01*
X201280000Y-92085000D02*
X201280000Y-102225000D01*
X201760000Y-92085000D02*
X201280000Y-92085000D01*
X205120000Y-102225000D02*
X204640000Y-102225000D01*
X205120000Y-92085000D02*
X205120000Y-102225000D01*
X204640000Y-92085000D02*
X205120000Y-92085000D01*
G04 #@! TO.C,R15*
X130640000Y-94605000D02*
X130160000Y-94605000D01*
X130160000Y-94605000D02*
X130160000Y-84465000D01*
X130160000Y-84465000D02*
X130640000Y-84465000D01*
X133520000Y-94605000D02*
X134000000Y-94605000D01*
X134000000Y-94605000D02*
X134000000Y-84465000D01*
X134000000Y-84465000D02*
X133520000Y-84465000D01*
G04 #@! TO.C,R16*
X139080000Y-84465000D02*
X138600000Y-84465000D01*
X139080000Y-94605000D02*
X139080000Y-84465000D01*
X138600000Y-94605000D02*
X139080000Y-94605000D01*
X135240000Y-84465000D02*
X135720000Y-84465000D01*
X135240000Y-94605000D02*
X135240000Y-84465000D01*
X135720000Y-94605000D02*
X135240000Y-94605000D01*
G04 #@! TO.C,R13*
X125560000Y-94605000D02*
X125080000Y-94605000D01*
X125080000Y-94605000D02*
X125080000Y-84465000D01*
X125080000Y-84465000D02*
X125560000Y-84465000D01*
X128440000Y-94605000D02*
X128920000Y-94605000D01*
X128920000Y-94605000D02*
X128920000Y-84465000D01*
X128920000Y-84465000D02*
X128440000Y-84465000D01*
G04 #@! TO.C,C14*
X145950000Y-74395000D02*
X145950000Y-69155000D01*
X148690000Y-74395000D02*
X148690000Y-69155000D01*
X145950000Y-74395000D02*
X148690000Y-74395000D01*
X145950000Y-69155000D02*
X148690000Y-69155000D01*
G04 #@! TO.C,C13*
X160555000Y-67250000D02*
X163295000Y-67250000D01*
X160555000Y-72490000D02*
X163295000Y-72490000D01*
X163295000Y-72490000D02*
X163295000Y-67250000D01*
X160555000Y-72490000D02*
X160555000Y-67250000D01*
G04 #@! TO.C,C12*
X148690000Y-62805000D02*
X148690000Y-68045000D01*
X145950000Y-62805000D02*
X145950000Y-68045000D01*
X148690000Y-62805000D02*
X145950000Y-62805000D01*
X148690000Y-68045000D02*
X145950000Y-68045000D01*
G04 #@! TO.C,C11*
X175955000Y-88165000D02*
X175955000Y-90905000D01*
X170715000Y-88165000D02*
X170715000Y-90905000D01*
X170715000Y-90905000D02*
X175955000Y-90905000D01*
X170715000Y-88165000D02*
X175955000Y-88165000D01*
G04 #@! TO.C,C10*
X186155000Y-57090000D02*
X186155000Y-62330000D01*
X183415000Y-57090000D02*
X183415000Y-62330000D01*
X186155000Y-57090000D02*
X183415000Y-57090000D01*
X186155000Y-62330000D02*
X183415000Y-62330000D01*
G04 #@! TO.C,C9*
X179765000Y-80545000D02*
X179765000Y-83285000D01*
X174525000Y-80545000D02*
X174525000Y-83285000D01*
X174525000Y-83285000D02*
X179765000Y-83285000D01*
X174525000Y-80545000D02*
X179765000Y-80545000D01*
G04 #@! TO.C,C8*
X183415000Y-69910000D02*
X183415000Y-64670000D01*
X186155000Y-69910000D02*
X186155000Y-64670000D01*
X183415000Y-69910000D02*
X186155000Y-69910000D01*
X183415000Y-64670000D02*
X186155000Y-64670000D01*
G04 #@! TO.C,C7*
X168175000Y-71655000D02*
X170915000Y-71655000D01*
X168175000Y-76895000D02*
X170915000Y-76895000D01*
X170915000Y-76895000D02*
X170915000Y-71655000D01*
X168175000Y-76895000D02*
X168175000Y-71655000D01*
G04 #@! TO.C,C6*
X183415000Y-76895000D02*
X183415000Y-71655000D01*
X186155000Y-76895000D02*
X186155000Y-71655000D01*
X183415000Y-76895000D02*
X186155000Y-76895000D01*
X183415000Y-71655000D02*
X186155000Y-71655000D01*
G04 #@! TO.C,C5*
X195480000Y-62170000D02*
X198220000Y-62170000D01*
X195480000Y-67410000D02*
X198220000Y-67410000D01*
X198220000Y-67410000D02*
X198220000Y-62170000D01*
X195480000Y-67410000D02*
X195480000Y-62170000D01*
G04 #@! TO.C,C4*
X191870000Y-53915000D02*
X191870000Y-59155000D01*
X189130000Y-53915000D02*
X189130000Y-59155000D01*
X191870000Y-53915000D02*
X189130000Y-53915000D01*
X191870000Y-59155000D02*
X189130000Y-59155000D01*
G04 #@! TO.C,C2*
X205550000Y-64770000D02*
G75*
G03X205550000Y-64770000I-2620000J0D01*
G01*
G04 #@! TO.C,C3*
X82900000Y-54610000D02*
G75*
G03X82900000Y-54610000I-2620000J0D01*
G01*
G04 #@! TO.C,C1*
X192850000Y-64770000D02*
G75*
G03X192850000Y-64770000I-2620000J0D01*
G01*
G04 #@! TO.C,U2*
X176165000Y-76895000D02*
G75*
G02X178165000Y-76895000I1000000J0D01*
G01*
X178165000Y-76895000D02*
X179815000Y-76895000D01*
X179815000Y-76895000D02*
X179815000Y-56455000D01*
X179815000Y-56455000D02*
X174515000Y-56455000D01*
X174515000Y-56455000D02*
X174515000Y-76895000D01*
X174515000Y-76895000D02*
X176165000Y-76895000D01*
G04 #@! TO.C,R3*
X105240000Y-94605000D02*
X104760000Y-94605000D01*
X104760000Y-94605000D02*
X104760000Y-84465000D01*
X104760000Y-84465000D02*
X105240000Y-84465000D01*
X108120000Y-94605000D02*
X108600000Y-94605000D01*
X108600000Y-94605000D02*
X108600000Y-84465000D01*
X108600000Y-84465000D02*
X108120000Y-84465000D01*
G04 #@! TO.C,R9*
X96724546Y-63964234D02*
X97204546Y-63964234D01*
X96724546Y-53824234D02*
X96724546Y-63964234D01*
X97204546Y-53824234D02*
X96724546Y-53824234D01*
X100564546Y-63964234D02*
X100084546Y-63964234D01*
X100564546Y-53824234D02*
X100564546Y-63964234D01*
X100084546Y-53824234D02*
X100564546Y-53824234D01*
G04 #@! TO.C,R8*
X95584546Y-53824234D02*
X96064546Y-53824234D01*
X96064546Y-53824234D02*
X96064546Y-63964234D01*
X96064546Y-63964234D02*
X95584546Y-63964234D01*
X92704546Y-53824234D02*
X92224546Y-53824234D01*
X92224546Y-53824234D02*
X92224546Y-63964234D01*
X92224546Y-63964234D02*
X92704546Y-63964234D01*
G04 #@! TO.C,R7*
X87724546Y-63964234D02*
X88204546Y-63964234D01*
X87724546Y-53824234D02*
X87724546Y-63964234D01*
X88204546Y-53824234D02*
X87724546Y-53824234D01*
X91564546Y-63964234D02*
X91084546Y-63964234D01*
X91564546Y-53824234D02*
X91564546Y-63964234D01*
X91084546Y-53824234D02*
X91564546Y-53824234D01*
G04 #@! TO.C,R6*
X123360000Y-84465000D02*
X123840000Y-84465000D01*
X123840000Y-84465000D02*
X123840000Y-94605000D01*
X123840000Y-94605000D02*
X123360000Y-94605000D01*
X120480000Y-84465000D02*
X120000000Y-84465000D01*
X120000000Y-84465000D02*
X120000000Y-94605000D01*
X120000000Y-94605000D02*
X120480000Y-94605000D01*
G04 #@! TO.C,R5*
X118760000Y-84465000D02*
X118280000Y-84465000D01*
X118760000Y-94605000D02*
X118760000Y-84465000D01*
X118280000Y-94605000D02*
X118760000Y-94605000D01*
X114920000Y-84465000D02*
X115400000Y-84465000D01*
X114920000Y-94605000D02*
X114920000Y-84465000D01*
X115400000Y-94605000D02*
X114920000Y-94605000D01*
G04 #@! TO.C,R1*
X99680000Y-94605000D02*
X100160000Y-94605000D01*
X99680000Y-84465000D02*
X99680000Y-94605000D01*
X100160000Y-84465000D02*
X99680000Y-84465000D01*
X103520000Y-94605000D02*
X103040000Y-94605000D01*
X103520000Y-84465000D02*
X103520000Y-94605000D01*
X103040000Y-84465000D02*
X103520000Y-84465000D01*
G04 #@! TO.C,R2*
X97960000Y-84465000D02*
X98440000Y-84465000D01*
X98440000Y-84465000D02*
X98440000Y-94605000D01*
X98440000Y-94605000D02*
X97960000Y-94605000D01*
X95080000Y-84465000D02*
X94600000Y-84465000D01*
X94600000Y-84465000D02*
X94600000Y-94605000D01*
X94600000Y-94605000D02*
X95080000Y-94605000D01*
G04 #@! TO.C,U1*
D11*
X142748095Y-108037380D02*
X142748095Y-108846904D01*
X142795714Y-108942142D01*
X142843333Y-108989761D01*
X142938571Y-109037380D01*
X143129047Y-109037380D01*
X143224285Y-108989761D01*
X143271904Y-108942142D01*
X143319523Y-108846904D01*
X143319523Y-108037380D01*
X144319523Y-109037380D02*
X143748095Y-109037380D01*
X144033809Y-109037380D02*
X144033809Y-108037380D01*
X143938571Y-108180238D01*
X143843333Y-108275476D01*
X143748095Y-108323095D01*
G04 #@! TO.C,R4*
X111593333Y-98877380D02*
X111260000Y-98401190D01*
X111021904Y-98877380D02*
X111021904Y-97877380D01*
X111402857Y-97877380D01*
X111498095Y-97925000D01*
X111545714Y-97972619D01*
X111593333Y-98067857D01*
X111593333Y-98210714D01*
X111545714Y-98305952D01*
X111498095Y-98353571D01*
X111402857Y-98401190D01*
X111021904Y-98401190D01*
X112450476Y-98210714D02*
X112450476Y-98877380D01*
X112212380Y-97829761D02*
X111974285Y-98544047D01*
X112593333Y-98544047D01*
G04 #@! TO.C,J7*
X115871666Y-50023146D02*
X115871666Y-50737432D01*
X115824047Y-50880289D01*
X115728809Y-50975527D01*
X115585952Y-51023146D01*
X115490714Y-51023146D01*
X116252619Y-50023146D02*
X116919285Y-50023146D01*
X116490714Y-51023146D01*
G04 #@! TO.C,J4*
X204136666Y-51522380D02*
X204136666Y-52236666D01*
X204089047Y-52379523D01*
X203993809Y-52474761D01*
X203850952Y-52522380D01*
X203755714Y-52522380D01*
X205041428Y-51855714D02*
X205041428Y-52522380D01*
X204803333Y-51474761D02*
X204565238Y-52189047D01*
X205184285Y-52189047D01*
G04 #@! TO.C,J9*
X162226666Y-108672380D02*
X162226666Y-109386666D01*
X162179047Y-109529523D01*
X162083809Y-109624761D01*
X161940952Y-109672380D01*
X161845714Y-109672380D01*
X162750476Y-109672380D02*
X162940952Y-109672380D01*
X163036190Y-109624761D01*
X163083809Y-109577142D01*
X163179047Y-109434285D01*
X163226666Y-109243809D01*
X163226666Y-108862857D01*
X163179047Y-108767619D01*
X163131428Y-108720000D01*
X163036190Y-108672380D01*
X162845714Y-108672380D01*
X162750476Y-108720000D01*
X162702857Y-108767619D01*
X162655238Y-108862857D01*
X162655238Y-109100952D01*
X162702857Y-109196190D01*
X162750476Y-109243809D01*
X162845714Y-109291428D01*
X163036190Y-109291428D01*
X163131428Y-109243809D01*
X163179047Y-109196190D01*
X163226666Y-109100952D01*
G04 #@! TO.C,J10*
X183340476Y-108672380D02*
X183340476Y-109386666D01*
X183292857Y-109529523D01*
X183197619Y-109624761D01*
X183054761Y-109672380D01*
X182959523Y-109672380D01*
X184340476Y-109672380D02*
X183769047Y-109672380D01*
X184054761Y-109672380D02*
X184054761Y-108672380D01*
X183959523Y-108815238D01*
X183864285Y-108910476D01*
X183769047Y-108958095D01*
X184959523Y-108672380D02*
X185054761Y-108672380D01*
X185150000Y-108720000D01*
X185197619Y-108767619D01*
X185245238Y-108862857D01*
X185292857Y-109053333D01*
X185292857Y-109291428D01*
X185245238Y-109481904D01*
X185197619Y-109577142D01*
X185150000Y-109624761D01*
X185054761Y-109672380D01*
X184959523Y-109672380D01*
X184864285Y-109624761D01*
X184816666Y-109577142D01*
X184769047Y-109481904D01*
X184721428Y-109291428D01*
X184721428Y-109053333D01*
X184769047Y-108862857D01*
X184816666Y-108767619D01*
X184864285Y-108720000D01*
X184959523Y-108672380D01*
G04 #@! TO.C,J11*
X204295476Y-108672380D02*
X204295476Y-109386666D01*
X204247857Y-109529523D01*
X204152619Y-109624761D01*
X204009761Y-109672380D01*
X203914523Y-109672380D01*
X205295476Y-109672380D02*
X204724047Y-109672380D01*
X205009761Y-109672380D02*
X205009761Y-108672380D01*
X204914523Y-108815238D01*
X204819285Y-108910476D01*
X204724047Y-108958095D01*
X206247857Y-109672380D02*
X205676428Y-109672380D01*
X205962142Y-109672380D02*
X205962142Y-108672380D01*
X205866904Y-108815238D01*
X205771666Y-108910476D01*
X205676428Y-108958095D01*
G04 #@! TO.C,J1*
X194186666Y-71207380D02*
X194186666Y-71921666D01*
X194139047Y-72064523D01*
X194043809Y-72159761D01*
X193900952Y-72207380D01*
X193805714Y-72207380D01*
X195186666Y-72207380D02*
X194615238Y-72207380D01*
X194900952Y-72207380D02*
X194900952Y-71207380D01*
X194805714Y-71350238D01*
X194710476Y-71445476D01*
X194615238Y-71493095D01*
G04 #@! TO.C,J12*
X203025476Y-48982380D02*
X203025476Y-49696666D01*
X202977857Y-49839523D01*
X202882619Y-49934761D01*
X202739761Y-49982380D01*
X202644523Y-49982380D01*
X204025476Y-49982380D02*
X203454047Y-49982380D01*
X203739761Y-49982380D02*
X203739761Y-48982380D01*
X203644523Y-49125238D01*
X203549285Y-49220476D01*
X203454047Y-49268095D01*
X204406428Y-49077619D02*
X204454047Y-49030000D01*
X204549285Y-48982380D01*
X204787380Y-48982380D01*
X204882619Y-49030000D01*
X204930238Y-49077619D01*
X204977857Y-49172857D01*
X204977857Y-49268095D01*
X204930238Y-49410952D01*
X204358809Y-49982380D01*
X204977857Y-49982380D01*
G04 #@! TO.C,J14*
X121110476Y-114992380D02*
X121110476Y-115706666D01*
X121062857Y-115849523D01*
X120967619Y-115944761D01*
X120824761Y-115992380D01*
X120729523Y-115992380D01*
X122110476Y-115992380D02*
X121539047Y-115992380D01*
X121824761Y-115992380D02*
X121824761Y-114992380D01*
X121729523Y-115135238D01*
X121634285Y-115230476D01*
X121539047Y-115278095D01*
X122967619Y-115325714D02*
X122967619Y-115992380D01*
X122729523Y-114944761D02*
X122491428Y-115659047D01*
X123110476Y-115659047D01*
G04 #@! TO.C,J15*
X137210476Y-114982380D02*
X137210476Y-115696666D01*
X137162857Y-115839523D01*
X137067619Y-115934761D01*
X136924761Y-115982380D01*
X136829523Y-115982380D01*
X138210476Y-115982380D02*
X137639047Y-115982380D01*
X137924761Y-115982380D02*
X137924761Y-114982380D01*
X137829523Y-115125238D01*
X137734285Y-115220476D01*
X137639047Y-115268095D01*
X139115238Y-114982380D02*
X138639047Y-114982380D01*
X138591428Y-115458571D01*
X138639047Y-115410952D01*
X138734285Y-115363333D01*
X138972380Y-115363333D01*
X139067619Y-115410952D01*
X139115238Y-115458571D01*
X139162857Y-115553809D01*
X139162857Y-115791904D01*
X139115238Y-115887142D01*
X139067619Y-115934761D01*
X138972380Y-115982380D01*
X138734285Y-115982380D01*
X138639047Y-115934761D01*
X138591428Y-115887142D01*
G04 #@! TO.C,U5*
X154178095Y-88142380D02*
X154178095Y-88951904D01*
X154225714Y-89047142D01*
X154273333Y-89094761D01*
X154368571Y-89142380D01*
X154559047Y-89142380D01*
X154654285Y-89094761D01*
X154701904Y-89047142D01*
X154749523Y-88951904D01*
X154749523Y-88142380D01*
X155701904Y-88142380D02*
X155225714Y-88142380D01*
X155178095Y-88618571D01*
X155225714Y-88570952D01*
X155320952Y-88523333D01*
X155559047Y-88523333D01*
X155654285Y-88570952D01*
X155701904Y-88618571D01*
X155749523Y-88713809D01*
X155749523Y-88951904D01*
X155701904Y-89047142D01*
X155654285Y-89094761D01*
X155559047Y-89142380D01*
X155320952Y-89142380D01*
X155225714Y-89094761D01*
X155178095Y-89047142D01*
G04 #@! TO.C,J2*
X75476666Y-50862380D02*
X75476666Y-51576666D01*
X75429047Y-51719523D01*
X75333809Y-51814761D01*
X75190952Y-51862380D01*
X75095714Y-51862380D01*
X75905238Y-50957619D02*
X75952857Y-50910000D01*
X76048095Y-50862380D01*
X76286190Y-50862380D01*
X76381428Y-50910000D01*
X76429047Y-50957619D01*
X76476666Y-51052857D01*
X76476666Y-51148095D01*
X76429047Y-51290952D01*
X75857619Y-51862380D01*
X76476666Y-51862380D01*
G04 #@! TO.C,J13*
X168975930Y-48757380D02*
X168975930Y-49471666D01*
X168928311Y-49614523D01*
X168833073Y-49709761D01*
X168690215Y-49757380D01*
X168594977Y-49757380D01*
X169975930Y-49757380D02*
X169404501Y-49757380D01*
X169690215Y-49757380D02*
X169690215Y-48757380D01*
X169594977Y-48900238D01*
X169499739Y-48995476D01*
X169404501Y-49043095D01*
X170309263Y-48757380D02*
X170928311Y-48757380D01*
X170594977Y-49138333D01*
X170737834Y-49138333D01*
X170833073Y-49185952D01*
X170880692Y-49233571D01*
X170928311Y-49328809D01*
X170928311Y-49566904D01*
X170880692Y-49662142D01*
X170833073Y-49709761D01*
X170737834Y-49757380D01*
X170452120Y-49757380D01*
X170356882Y-49709761D01*
X170309263Y-49662142D01*
G04 #@! TO.C,J5*
X91941666Y-115247380D02*
X91941666Y-115961666D01*
X91894047Y-116104523D01*
X91798809Y-116199761D01*
X91655952Y-116247380D01*
X91560714Y-116247380D01*
X92894047Y-115247380D02*
X92417857Y-115247380D01*
X92370238Y-115723571D01*
X92417857Y-115675952D01*
X92513095Y-115628333D01*
X92751190Y-115628333D01*
X92846428Y-115675952D01*
X92894047Y-115723571D01*
X92941666Y-115818809D01*
X92941666Y-116056904D01*
X92894047Y-116152142D01*
X92846428Y-116199761D01*
X92751190Y-116247380D01*
X92513095Y-116247380D01*
X92417857Y-116199761D01*
X92370238Y-116152142D01*
G04 #@! TO.C,J6*
X164766666Y-77132380D02*
X164766666Y-77846666D01*
X164719047Y-77989523D01*
X164623809Y-78084761D01*
X164480952Y-78132380D01*
X164385714Y-78132380D01*
X165671428Y-77132380D02*
X165480952Y-77132380D01*
X165385714Y-77180000D01*
X165338095Y-77227619D01*
X165242857Y-77370476D01*
X165195238Y-77560952D01*
X165195238Y-77941904D01*
X165242857Y-78037142D01*
X165290476Y-78084761D01*
X165385714Y-78132380D01*
X165576190Y-78132380D01*
X165671428Y-78084761D01*
X165719047Y-78037142D01*
X165766666Y-77941904D01*
X165766666Y-77703809D01*
X165719047Y-77608571D01*
X165671428Y-77560952D01*
X165576190Y-77513333D01*
X165385714Y-77513333D01*
X165290476Y-77560952D01*
X165242857Y-77608571D01*
X165195238Y-77703809D01*
G04 #@! TO.C,J3*
X75866666Y-67397380D02*
X75866666Y-68111666D01*
X75819047Y-68254523D01*
X75723809Y-68349761D01*
X75580952Y-68397380D01*
X75485714Y-68397380D01*
X76247619Y-67397380D02*
X76866666Y-67397380D01*
X76533333Y-67778333D01*
X76676190Y-67778333D01*
X76771428Y-67825952D01*
X76819047Y-67873571D01*
X76866666Y-67968809D01*
X76866666Y-68206904D01*
X76819047Y-68302142D01*
X76771428Y-68349761D01*
X76676190Y-68397380D01*
X76390476Y-68397380D01*
X76295238Y-68349761D01*
X76247619Y-68302142D01*
G04 #@! TO.C,J8*
X167941666Y-67822380D02*
X167941666Y-68536666D01*
X167894047Y-68679523D01*
X167798809Y-68774761D01*
X167655952Y-68822380D01*
X167560714Y-68822380D01*
X168560714Y-68250952D02*
X168465476Y-68203333D01*
X168417857Y-68155714D01*
X168370238Y-68060476D01*
X168370238Y-68012857D01*
X168417857Y-67917619D01*
X168465476Y-67870000D01*
X168560714Y-67822380D01*
X168751190Y-67822380D01*
X168846428Y-67870000D01*
X168894047Y-67917619D01*
X168941666Y-68012857D01*
X168941666Y-68060476D01*
X168894047Y-68155714D01*
X168846428Y-68203333D01*
X168751190Y-68250952D01*
X168560714Y-68250952D01*
X168465476Y-68298571D01*
X168417857Y-68346190D01*
X168370238Y-68441428D01*
X168370238Y-68631904D01*
X168417857Y-68727142D01*
X168465476Y-68774761D01*
X168560714Y-68822380D01*
X168751190Y-68822380D01*
X168846428Y-68774761D01*
X168894047Y-68727142D01*
X168941666Y-68631904D01*
X168941666Y-68441428D01*
X168894047Y-68346190D01*
X168846428Y-68298571D01*
X168751190Y-68250952D01*
G04 #@! TO.C,D1*
X180236904Y-104592380D02*
X180236904Y-103592380D01*
X180475000Y-103592380D01*
X180617857Y-103640000D01*
X180713095Y-103735238D01*
X180760714Y-103830476D01*
X180808333Y-104020952D01*
X180808333Y-104163809D01*
X180760714Y-104354285D01*
X180713095Y-104449523D01*
X180617857Y-104544761D01*
X180475000Y-104592380D01*
X180236904Y-104592380D01*
X181760714Y-104592380D02*
X181189285Y-104592380D01*
X181475000Y-104592380D02*
X181475000Y-103592380D01*
X181379761Y-103735238D01*
X181284523Y-103830476D01*
X181189285Y-103878095D01*
X166108095Y-104597380D02*
X166108095Y-103597380D01*
X166679523Y-104597380D02*
X166250952Y-104025952D01*
X166679523Y-103597380D02*
X166108095Y-104168809D01*
G04 #@! TO.C,U3*
X145498095Y-97242380D02*
X145498095Y-98051904D01*
X145545714Y-98147142D01*
X145593333Y-98194761D01*
X145688571Y-98242380D01*
X145879047Y-98242380D01*
X145974285Y-98194761D01*
X146021904Y-98147142D01*
X146069523Y-98051904D01*
X146069523Y-97242380D01*
X146450476Y-97242380D02*
X147069523Y-97242380D01*
X146736190Y-97623333D01*
X146879047Y-97623333D01*
X146974285Y-97670952D01*
X147021904Y-97718571D01*
X147069523Y-97813809D01*
X147069523Y-98051904D01*
X147021904Y-98147142D01*
X146974285Y-98194761D01*
X146879047Y-98242380D01*
X146593333Y-98242380D01*
X146498095Y-98194761D01*
X146450476Y-98147142D01*
G04 #@! TO.C,U4*
X166283095Y-97242380D02*
X166283095Y-98051904D01*
X166330714Y-98147142D01*
X166378333Y-98194761D01*
X166473571Y-98242380D01*
X166664047Y-98242380D01*
X166759285Y-98194761D01*
X166806904Y-98147142D01*
X166854523Y-98051904D01*
X166854523Y-97242380D01*
X167759285Y-97575714D02*
X167759285Y-98242380D01*
X167521190Y-97194761D02*
X167283095Y-97909047D01*
X167902142Y-97909047D01*
G04 #@! TO.C,R12*
X196207142Y-106497380D02*
X195873809Y-106021190D01*
X195635714Y-106497380D02*
X195635714Y-105497380D01*
X196016666Y-105497380D01*
X196111904Y-105545000D01*
X196159523Y-105592619D01*
X196207142Y-105687857D01*
X196207142Y-105830714D01*
X196159523Y-105925952D01*
X196111904Y-105973571D01*
X196016666Y-106021190D01*
X195635714Y-106021190D01*
X197159523Y-106497380D02*
X196588095Y-106497380D01*
X196873809Y-106497380D02*
X196873809Y-105497380D01*
X196778571Y-105640238D01*
X196683333Y-105735476D01*
X196588095Y-105783095D01*
X197540476Y-105592619D02*
X197588095Y-105545000D01*
X197683333Y-105497380D01*
X197921428Y-105497380D01*
X198016666Y-105545000D01*
X198064285Y-105592619D01*
X198111904Y-105687857D01*
X198111904Y-105783095D01*
X198064285Y-105925952D01*
X197492857Y-106497380D01*
X198111904Y-106497380D01*
G04 #@! TO.C,R10*
X184777142Y-106497380D02*
X184443809Y-106021190D01*
X184205714Y-106497380D02*
X184205714Y-105497380D01*
X184586666Y-105497380D01*
X184681904Y-105545000D01*
X184729523Y-105592619D01*
X184777142Y-105687857D01*
X184777142Y-105830714D01*
X184729523Y-105925952D01*
X184681904Y-105973571D01*
X184586666Y-106021190D01*
X184205714Y-106021190D01*
X185729523Y-106497380D02*
X185158095Y-106497380D01*
X185443809Y-106497380D02*
X185443809Y-105497380D01*
X185348571Y-105640238D01*
X185253333Y-105735476D01*
X185158095Y-105783095D01*
X186348571Y-105497380D02*
X186443809Y-105497380D01*
X186539047Y-105545000D01*
X186586666Y-105592619D01*
X186634285Y-105687857D01*
X186681904Y-105878333D01*
X186681904Y-106116428D01*
X186634285Y-106306904D01*
X186586666Y-106402142D01*
X186539047Y-106449761D01*
X186443809Y-106497380D01*
X186348571Y-106497380D01*
X186253333Y-106449761D01*
X186205714Y-106402142D01*
X186158095Y-106306904D01*
X186110476Y-106116428D01*
X186110476Y-105878333D01*
X186158095Y-105687857D01*
X186205714Y-105592619D01*
X186253333Y-105545000D01*
X186348571Y-105497380D01*
G04 #@! TO.C,R11*
X191127142Y-106497380D02*
X190793809Y-106021190D01*
X190555714Y-106497380D02*
X190555714Y-105497380D01*
X190936666Y-105497380D01*
X191031904Y-105545000D01*
X191079523Y-105592619D01*
X191127142Y-105687857D01*
X191127142Y-105830714D01*
X191079523Y-105925952D01*
X191031904Y-105973571D01*
X190936666Y-106021190D01*
X190555714Y-106021190D01*
X192079523Y-106497380D02*
X191508095Y-106497380D01*
X191793809Y-106497380D02*
X191793809Y-105497380D01*
X191698571Y-105640238D01*
X191603333Y-105735476D01*
X191508095Y-105783095D01*
X193031904Y-106497380D02*
X192460476Y-106497380D01*
X192746190Y-106497380D02*
X192746190Y-105497380D01*
X192650952Y-105640238D01*
X192555714Y-105735476D01*
X192460476Y-105783095D01*
G04 #@! TO.C,R14*
X201287142Y-106497380D02*
X200953809Y-106021190D01*
X200715714Y-106497380D02*
X200715714Y-105497380D01*
X201096666Y-105497380D01*
X201191904Y-105545000D01*
X201239523Y-105592619D01*
X201287142Y-105687857D01*
X201287142Y-105830714D01*
X201239523Y-105925952D01*
X201191904Y-105973571D01*
X201096666Y-106021190D01*
X200715714Y-106021190D01*
X202239523Y-106497380D02*
X201668095Y-106497380D01*
X201953809Y-106497380D02*
X201953809Y-105497380D01*
X201858571Y-105640238D01*
X201763333Y-105735476D01*
X201668095Y-105783095D01*
X203096666Y-105830714D02*
X203096666Y-106497380D01*
X202858571Y-105449761D02*
X202620476Y-106164047D01*
X203239523Y-106164047D01*
G04 #@! TO.C,R15*
X131437142Y-98877380D02*
X131103809Y-98401190D01*
X130865714Y-98877380D02*
X130865714Y-97877380D01*
X131246666Y-97877380D01*
X131341904Y-97925000D01*
X131389523Y-97972619D01*
X131437142Y-98067857D01*
X131437142Y-98210714D01*
X131389523Y-98305952D01*
X131341904Y-98353571D01*
X131246666Y-98401190D01*
X130865714Y-98401190D01*
X132389523Y-98877380D02*
X131818095Y-98877380D01*
X132103809Y-98877380D02*
X132103809Y-97877380D01*
X132008571Y-98020238D01*
X131913333Y-98115476D01*
X131818095Y-98163095D01*
X133294285Y-97877380D02*
X132818095Y-97877380D01*
X132770476Y-98353571D01*
X132818095Y-98305952D01*
X132913333Y-98258333D01*
X133151428Y-98258333D01*
X133246666Y-98305952D01*
X133294285Y-98353571D01*
X133341904Y-98448809D01*
X133341904Y-98686904D01*
X133294285Y-98782142D01*
X133246666Y-98829761D01*
X133151428Y-98877380D01*
X132913333Y-98877380D01*
X132818095Y-98829761D01*
X132770476Y-98782142D01*
G04 #@! TO.C,R16*
X136517142Y-98877380D02*
X136183809Y-98401190D01*
X135945714Y-98877380D02*
X135945714Y-97877380D01*
X136326666Y-97877380D01*
X136421904Y-97925000D01*
X136469523Y-97972619D01*
X136517142Y-98067857D01*
X136517142Y-98210714D01*
X136469523Y-98305952D01*
X136421904Y-98353571D01*
X136326666Y-98401190D01*
X135945714Y-98401190D01*
X137469523Y-98877380D02*
X136898095Y-98877380D01*
X137183809Y-98877380D02*
X137183809Y-97877380D01*
X137088571Y-98020238D01*
X136993333Y-98115476D01*
X136898095Y-98163095D01*
X138326666Y-97877380D02*
X138136190Y-97877380D01*
X138040952Y-97925000D01*
X137993333Y-97972619D01*
X137898095Y-98115476D01*
X137850476Y-98305952D01*
X137850476Y-98686904D01*
X137898095Y-98782142D01*
X137945714Y-98829761D01*
X138040952Y-98877380D01*
X138231428Y-98877380D01*
X138326666Y-98829761D01*
X138374285Y-98782142D01*
X138421904Y-98686904D01*
X138421904Y-98448809D01*
X138374285Y-98353571D01*
X138326666Y-98305952D01*
X138231428Y-98258333D01*
X138040952Y-98258333D01*
X137945714Y-98305952D01*
X137898095Y-98353571D01*
X137850476Y-98448809D01*
G04 #@! TO.C,R13*
X126357142Y-98877380D02*
X126023809Y-98401190D01*
X125785714Y-98877380D02*
X125785714Y-97877380D01*
X126166666Y-97877380D01*
X126261904Y-97925000D01*
X126309523Y-97972619D01*
X126357142Y-98067857D01*
X126357142Y-98210714D01*
X126309523Y-98305952D01*
X126261904Y-98353571D01*
X126166666Y-98401190D01*
X125785714Y-98401190D01*
X127309523Y-98877380D02*
X126738095Y-98877380D01*
X127023809Y-98877380D02*
X127023809Y-97877380D01*
X126928571Y-98020238D01*
X126833333Y-98115476D01*
X126738095Y-98163095D01*
X127642857Y-97877380D02*
X128261904Y-97877380D01*
X127928571Y-98258333D01*
X128071428Y-98258333D01*
X128166666Y-98305952D01*
X128214285Y-98353571D01*
X128261904Y-98448809D01*
X128261904Y-98686904D01*
X128214285Y-98782142D01*
X128166666Y-98829761D01*
X128071428Y-98877380D01*
X127785714Y-98877380D01*
X127690476Y-98829761D01*
X127642857Y-98782142D01*
G04 #@! TO.C,C14*
X146677142Y-75922142D02*
X146629523Y-75969761D01*
X146486666Y-76017380D01*
X146391428Y-76017380D01*
X146248571Y-75969761D01*
X146153333Y-75874523D01*
X146105714Y-75779285D01*
X146058095Y-75588809D01*
X146058095Y-75445952D01*
X146105714Y-75255476D01*
X146153333Y-75160238D01*
X146248571Y-75065000D01*
X146391428Y-75017380D01*
X146486666Y-75017380D01*
X146629523Y-75065000D01*
X146677142Y-75112619D01*
X147629523Y-76017380D02*
X147058095Y-76017380D01*
X147343809Y-76017380D02*
X147343809Y-75017380D01*
X147248571Y-75160238D01*
X147153333Y-75255476D01*
X147058095Y-75303095D01*
X148486666Y-75350714D02*
X148486666Y-76017380D01*
X148248571Y-74969761D02*
X148010476Y-75684047D01*
X148629523Y-75684047D01*
G04 #@! TO.C,C13*
X161282142Y-74017142D02*
X161234523Y-74064761D01*
X161091666Y-74112380D01*
X160996428Y-74112380D01*
X160853571Y-74064761D01*
X160758333Y-73969523D01*
X160710714Y-73874285D01*
X160663095Y-73683809D01*
X160663095Y-73540952D01*
X160710714Y-73350476D01*
X160758333Y-73255238D01*
X160853571Y-73160000D01*
X160996428Y-73112380D01*
X161091666Y-73112380D01*
X161234523Y-73160000D01*
X161282142Y-73207619D01*
X162234523Y-74112380D02*
X161663095Y-74112380D01*
X161948809Y-74112380D02*
X161948809Y-73112380D01*
X161853571Y-73255238D01*
X161758333Y-73350476D01*
X161663095Y-73398095D01*
X162567857Y-73112380D02*
X163186904Y-73112380D01*
X162853571Y-73493333D01*
X162996428Y-73493333D01*
X163091666Y-73540952D01*
X163139285Y-73588571D01*
X163186904Y-73683809D01*
X163186904Y-73921904D01*
X163139285Y-74017142D01*
X163091666Y-74064761D01*
X162996428Y-74112380D01*
X162710714Y-74112380D01*
X162615476Y-74064761D01*
X162567857Y-74017142D01*
G04 #@! TO.C,C12*
X146677142Y-61992142D02*
X146629523Y-62039761D01*
X146486666Y-62087380D01*
X146391428Y-62087380D01*
X146248571Y-62039761D01*
X146153333Y-61944523D01*
X146105714Y-61849285D01*
X146058095Y-61658809D01*
X146058095Y-61515952D01*
X146105714Y-61325476D01*
X146153333Y-61230238D01*
X146248571Y-61135000D01*
X146391428Y-61087380D01*
X146486666Y-61087380D01*
X146629523Y-61135000D01*
X146677142Y-61182619D01*
X147629523Y-62087380D02*
X147058095Y-62087380D01*
X147343809Y-62087380D02*
X147343809Y-61087380D01*
X147248571Y-61230238D01*
X147153333Y-61325476D01*
X147058095Y-61373095D01*
X148010476Y-61182619D02*
X148058095Y-61135000D01*
X148153333Y-61087380D01*
X148391428Y-61087380D01*
X148486666Y-61135000D01*
X148534285Y-61182619D01*
X148581904Y-61277857D01*
X148581904Y-61373095D01*
X148534285Y-61515952D01*
X147962857Y-62087380D01*
X148581904Y-62087380D01*
G04 #@! TO.C,C11*
X177157142Y-89892142D02*
X177109523Y-89939761D01*
X176966666Y-89987380D01*
X176871428Y-89987380D01*
X176728571Y-89939761D01*
X176633333Y-89844523D01*
X176585714Y-89749285D01*
X176538095Y-89558809D01*
X176538095Y-89415952D01*
X176585714Y-89225476D01*
X176633333Y-89130238D01*
X176728571Y-89035000D01*
X176871428Y-88987380D01*
X176966666Y-88987380D01*
X177109523Y-89035000D01*
X177157142Y-89082619D01*
X178109523Y-89987380D02*
X177538095Y-89987380D01*
X177823809Y-89987380D02*
X177823809Y-88987380D01*
X177728571Y-89130238D01*
X177633333Y-89225476D01*
X177538095Y-89273095D01*
X179061904Y-89987380D02*
X178490476Y-89987380D01*
X178776190Y-89987380D02*
X178776190Y-88987380D01*
X178680952Y-89130238D01*
X178585714Y-89225476D01*
X178490476Y-89273095D01*
G04 #@! TO.C,C10*
X184142142Y-56237142D02*
X184094523Y-56284761D01*
X183951666Y-56332380D01*
X183856428Y-56332380D01*
X183713571Y-56284761D01*
X183618333Y-56189523D01*
X183570714Y-56094285D01*
X183523095Y-55903809D01*
X183523095Y-55760952D01*
X183570714Y-55570476D01*
X183618333Y-55475238D01*
X183713571Y-55380000D01*
X183856428Y-55332380D01*
X183951666Y-55332380D01*
X184094523Y-55380000D01*
X184142142Y-55427619D01*
X185094523Y-56332380D02*
X184523095Y-56332380D01*
X184808809Y-56332380D02*
X184808809Y-55332380D01*
X184713571Y-55475238D01*
X184618333Y-55570476D01*
X184523095Y-55618095D01*
X185713571Y-55332380D02*
X185808809Y-55332380D01*
X185904047Y-55380000D01*
X185951666Y-55427619D01*
X185999285Y-55522857D01*
X186046904Y-55713333D01*
X186046904Y-55951428D01*
X185999285Y-56141904D01*
X185951666Y-56237142D01*
X185904047Y-56284761D01*
X185808809Y-56332380D01*
X185713571Y-56332380D01*
X185618333Y-56284761D01*
X185570714Y-56237142D01*
X185523095Y-56141904D01*
X185475476Y-55951428D01*
X185475476Y-55713333D01*
X185523095Y-55522857D01*
X185570714Y-55427619D01*
X185618333Y-55380000D01*
X185713571Y-55332380D01*
G04 #@! TO.C,C9*
X172553333Y-82272142D02*
X172505714Y-82319761D01*
X172362857Y-82367380D01*
X172267619Y-82367380D01*
X172124761Y-82319761D01*
X172029523Y-82224523D01*
X171981904Y-82129285D01*
X171934285Y-81938809D01*
X171934285Y-81795952D01*
X171981904Y-81605476D01*
X172029523Y-81510238D01*
X172124761Y-81415000D01*
X172267619Y-81367380D01*
X172362857Y-81367380D01*
X172505714Y-81415000D01*
X172553333Y-81462619D01*
X173029523Y-82367380D02*
X173220000Y-82367380D01*
X173315238Y-82319761D01*
X173362857Y-82272142D01*
X173458095Y-82129285D01*
X173505714Y-81938809D01*
X173505714Y-81557857D01*
X173458095Y-81462619D01*
X173410476Y-81415000D01*
X173315238Y-81367380D01*
X173124761Y-81367380D01*
X173029523Y-81415000D01*
X172981904Y-81462619D01*
X172934285Y-81557857D01*
X172934285Y-81795952D01*
X172981904Y-81891190D01*
X173029523Y-81938809D01*
X173124761Y-81986428D01*
X173315238Y-81986428D01*
X173410476Y-81938809D01*
X173458095Y-81891190D01*
X173505714Y-81795952D01*
G04 #@! TO.C,C8*
X184618333Y-63857142D02*
X184570714Y-63904761D01*
X184427857Y-63952380D01*
X184332619Y-63952380D01*
X184189761Y-63904761D01*
X184094523Y-63809523D01*
X184046904Y-63714285D01*
X183999285Y-63523809D01*
X183999285Y-63380952D01*
X184046904Y-63190476D01*
X184094523Y-63095238D01*
X184189761Y-63000000D01*
X184332619Y-62952380D01*
X184427857Y-62952380D01*
X184570714Y-63000000D01*
X184618333Y-63047619D01*
X185189761Y-63380952D02*
X185094523Y-63333333D01*
X185046904Y-63285714D01*
X184999285Y-63190476D01*
X184999285Y-63142857D01*
X185046904Y-63047619D01*
X185094523Y-63000000D01*
X185189761Y-62952380D01*
X185380238Y-62952380D01*
X185475476Y-63000000D01*
X185523095Y-63047619D01*
X185570714Y-63142857D01*
X185570714Y-63190476D01*
X185523095Y-63285714D01*
X185475476Y-63333333D01*
X185380238Y-63380952D01*
X185189761Y-63380952D01*
X185094523Y-63428571D01*
X185046904Y-63476190D01*
X184999285Y-63571428D01*
X184999285Y-63761904D01*
X185046904Y-63857142D01*
X185094523Y-63904761D01*
X185189761Y-63952380D01*
X185380238Y-63952380D01*
X185475476Y-63904761D01*
X185523095Y-63857142D01*
X185570714Y-63761904D01*
X185570714Y-63571428D01*
X185523095Y-63476190D01*
X185475476Y-63428571D01*
X185380238Y-63380952D01*
G04 #@! TO.C,C7*
X169378333Y-70882142D02*
X169330714Y-70929761D01*
X169187857Y-70977380D01*
X169092619Y-70977380D01*
X168949761Y-70929761D01*
X168854523Y-70834523D01*
X168806904Y-70739285D01*
X168759285Y-70548809D01*
X168759285Y-70405952D01*
X168806904Y-70215476D01*
X168854523Y-70120238D01*
X168949761Y-70025000D01*
X169092619Y-69977380D01*
X169187857Y-69977380D01*
X169330714Y-70025000D01*
X169378333Y-70072619D01*
X169711666Y-69977380D02*
X170378333Y-69977380D01*
X169949761Y-70977380D01*
G04 #@! TO.C,C6*
X184618333Y-78462142D02*
X184570714Y-78509761D01*
X184427857Y-78557380D01*
X184332619Y-78557380D01*
X184189761Y-78509761D01*
X184094523Y-78414523D01*
X184046904Y-78319285D01*
X183999285Y-78128809D01*
X183999285Y-77985952D01*
X184046904Y-77795476D01*
X184094523Y-77700238D01*
X184189761Y-77605000D01*
X184332619Y-77557380D01*
X184427857Y-77557380D01*
X184570714Y-77605000D01*
X184618333Y-77652619D01*
X185475476Y-77557380D02*
X185285000Y-77557380D01*
X185189761Y-77605000D01*
X185142142Y-77652619D01*
X185046904Y-77795476D01*
X184999285Y-77985952D01*
X184999285Y-78366904D01*
X185046904Y-78462142D01*
X185094523Y-78509761D01*
X185189761Y-78557380D01*
X185380238Y-78557380D01*
X185475476Y-78509761D01*
X185523095Y-78462142D01*
X185570714Y-78366904D01*
X185570714Y-78128809D01*
X185523095Y-78033571D01*
X185475476Y-77985952D01*
X185380238Y-77938333D01*
X185189761Y-77938333D01*
X185094523Y-77985952D01*
X185046904Y-78033571D01*
X184999285Y-78128809D01*
G04 #@! TO.C,C5*
X196683333Y-68937142D02*
X196635714Y-68984761D01*
X196492857Y-69032380D01*
X196397619Y-69032380D01*
X196254761Y-68984761D01*
X196159523Y-68889523D01*
X196111904Y-68794285D01*
X196064285Y-68603809D01*
X196064285Y-68460952D01*
X196111904Y-68270476D01*
X196159523Y-68175238D01*
X196254761Y-68080000D01*
X196397619Y-68032380D01*
X196492857Y-68032380D01*
X196635714Y-68080000D01*
X196683333Y-68127619D01*
X197588095Y-68032380D02*
X197111904Y-68032380D01*
X197064285Y-68508571D01*
X197111904Y-68460952D01*
X197207142Y-68413333D01*
X197445238Y-68413333D01*
X197540476Y-68460952D01*
X197588095Y-68508571D01*
X197635714Y-68603809D01*
X197635714Y-68841904D01*
X197588095Y-68937142D01*
X197540476Y-68984761D01*
X197445238Y-69032380D01*
X197207142Y-69032380D01*
X197111904Y-68984761D01*
X197064285Y-68937142D01*
G04 #@! TO.C,C4*
X190333333Y-53102142D02*
X190285714Y-53149761D01*
X190142857Y-53197380D01*
X190047619Y-53197380D01*
X189904761Y-53149761D01*
X189809523Y-53054523D01*
X189761904Y-52959285D01*
X189714285Y-52768809D01*
X189714285Y-52625952D01*
X189761904Y-52435476D01*
X189809523Y-52340238D01*
X189904761Y-52245000D01*
X190047619Y-52197380D01*
X190142857Y-52197380D01*
X190285714Y-52245000D01*
X190333333Y-52292619D01*
X191190476Y-52530714D02*
X191190476Y-53197380D01*
X190952380Y-52149761D02*
X190714285Y-52864047D01*
X191333333Y-52864047D01*
G04 #@! TO.C,C2*
X203033333Y-68937142D02*
X202985714Y-68984761D01*
X202842857Y-69032380D01*
X202747619Y-69032380D01*
X202604761Y-68984761D01*
X202509523Y-68889523D01*
X202461904Y-68794285D01*
X202414285Y-68603809D01*
X202414285Y-68460952D01*
X202461904Y-68270476D01*
X202509523Y-68175238D01*
X202604761Y-68080000D01*
X202747619Y-68032380D01*
X202842857Y-68032380D01*
X202985714Y-68080000D01*
X203033333Y-68127619D01*
X203414285Y-68127619D02*
X203461904Y-68080000D01*
X203557142Y-68032380D01*
X203795238Y-68032380D01*
X203890476Y-68080000D01*
X203938095Y-68127619D01*
X203985714Y-68222857D01*
X203985714Y-68318095D01*
X203938095Y-68460952D01*
X203366666Y-69032380D01*
X203985714Y-69032380D01*
G04 #@! TO.C,C3*
X76033333Y-54837142D02*
X75985714Y-54884761D01*
X75842857Y-54932380D01*
X75747619Y-54932380D01*
X75604761Y-54884761D01*
X75509523Y-54789523D01*
X75461904Y-54694285D01*
X75414285Y-54503809D01*
X75414285Y-54360952D01*
X75461904Y-54170476D01*
X75509523Y-54075238D01*
X75604761Y-53980000D01*
X75747619Y-53932380D01*
X75842857Y-53932380D01*
X75985714Y-53980000D01*
X76033333Y-54027619D01*
X76366666Y-53932380D02*
X76985714Y-53932380D01*
X76652380Y-54313333D01*
X76795238Y-54313333D01*
X76890476Y-54360952D01*
X76938095Y-54408571D01*
X76985714Y-54503809D01*
X76985714Y-54741904D01*
X76938095Y-54837142D01*
X76890476Y-54884761D01*
X76795238Y-54932380D01*
X76509523Y-54932380D01*
X76414285Y-54884761D01*
X76366666Y-54837142D01*
G04 #@! TO.C,C1*
X190333333Y-68937142D02*
X190285714Y-68984761D01*
X190142857Y-69032380D01*
X190047619Y-69032380D01*
X189904761Y-68984761D01*
X189809523Y-68889523D01*
X189761904Y-68794285D01*
X189714285Y-68603809D01*
X189714285Y-68460952D01*
X189761904Y-68270476D01*
X189809523Y-68175238D01*
X189904761Y-68080000D01*
X190047619Y-68032380D01*
X190142857Y-68032380D01*
X190285714Y-68080000D01*
X190333333Y-68127619D01*
X191285714Y-69032380D02*
X190714285Y-69032380D01*
X191000000Y-69032380D02*
X191000000Y-68032380D01*
X190904761Y-68175238D01*
X190809523Y-68270476D01*
X190714285Y-68318095D01*
G04 #@! TO.C,U2*
X176403095Y-77347380D02*
X176403095Y-78156904D01*
X176450714Y-78252142D01*
X176498333Y-78299761D01*
X176593571Y-78347380D01*
X176784047Y-78347380D01*
X176879285Y-78299761D01*
X176926904Y-78252142D01*
X176974523Y-78156904D01*
X176974523Y-77347380D01*
X177403095Y-77442619D02*
X177450714Y-77395000D01*
X177545952Y-77347380D01*
X177784047Y-77347380D01*
X177879285Y-77395000D01*
X177926904Y-77442619D01*
X177974523Y-77537857D01*
X177974523Y-77633095D01*
X177926904Y-77775952D01*
X177355476Y-78347380D01*
X177974523Y-78347380D01*
G04 #@! TO.C,R3*
X106513333Y-98877380D02*
X106180000Y-98401190D01*
X105941904Y-98877380D02*
X105941904Y-97877380D01*
X106322857Y-97877380D01*
X106418095Y-97925000D01*
X106465714Y-97972619D01*
X106513333Y-98067857D01*
X106513333Y-98210714D01*
X106465714Y-98305952D01*
X106418095Y-98353571D01*
X106322857Y-98401190D01*
X105941904Y-98401190D01*
X106846666Y-97877380D02*
X107465714Y-97877380D01*
X107132380Y-98258333D01*
X107275238Y-98258333D01*
X107370476Y-98305952D01*
X107418095Y-98353571D01*
X107465714Y-98448809D01*
X107465714Y-98686904D01*
X107418095Y-98782142D01*
X107370476Y-98829761D01*
X107275238Y-98877380D01*
X106989523Y-98877380D01*
X106894285Y-98829761D01*
X106846666Y-98782142D01*
G04 #@! TO.C,R9*
X98133333Y-68492380D02*
X97800000Y-68016190D01*
X97561904Y-68492380D02*
X97561904Y-67492380D01*
X97942857Y-67492380D01*
X98038095Y-67540000D01*
X98085714Y-67587619D01*
X98133333Y-67682857D01*
X98133333Y-67825714D01*
X98085714Y-67920952D01*
X98038095Y-67968571D01*
X97942857Y-68016190D01*
X97561904Y-68016190D01*
X98609523Y-68492380D02*
X98800000Y-68492380D01*
X98895238Y-68444761D01*
X98942857Y-68397142D01*
X99038095Y-68254285D01*
X99085714Y-68063809D01*
X99085714Y-67682857D01*
X99038095Y-67587619D01*
X98990476Y-67540000D01*
X98895238Y-67492380D01*
X98704761Y-67492380D01*
X98609523Y-67540000D01*
X98561904Y-67587619D01*
X98514285Y-67682857D01*
X98514285Y-67920952D01*
X98561904Y-68016190D01*
X98609523Y-68063809D01*
X98704761Y-68111428D01*
X98895238Y-68111428D01*
X98990476Y-68063809D01*
X99038095Y-68016190D01*
X99085714Y-67920952D01*
G04 #@! TO.C,R8*
X94133333Y-68492380D02*
X93800000Y-68016190D01*
X93561904Y-68492380D02*
X93561904Y-67492380D01*
X93942857Y-67492380D01*
X94038095Y-67540000D01*
X94085714Y-67587619D01*
X94133333Y-67682857D01*
X94133333Y-67825714D01*
X94085714Y-67920952D01*
X94038095Y-67968571D01*
X93942857Y-68016190D01*
X93561904Y-68016190D01*
X94704761Y-67920952D02*
X94609523Y-67873333D01*
X94561904Y-67825714D01*
X94514285Y-67730476D01*
X94514285Y-67682857D01*
X94561904Y-67587619D01*
X94609523Y-67540000D01*
X94704761Y-67492380D01*
X94895238Y-67492380D01*
X94990476Y-67540000D01*
X95038095Y-67587619D01*
X95085714Y-67682857D01*
X95085714Y-67730476D01*
X95038095Y-67825714D01*
X94990476Y-67873333D01*
X94895238Y-67920952D01*
X94704761Y-67920952D01*
X94609523Y-67968571D01*
X94561904Y-68016190D01*
X94514285Y-68111428D01*
X94514285Y-68301904D01*
X94561904Y-68397142D01*
X94609523Y-68444761D01*
X94704761Y-68492380D01*
X94895238Y-68492380D01*
X94990476Y-68444761D01*
X95038095Y-68397142D01*
X95085714Y-68301904D01*
X95085714Y-68111428D01*
X95038095Y-68016190D01*
X94990476Y-67968571D01*
X94895238Y-67920952D01*
G04 #@! TO.C,R7*
X89133333Y-68492380D02*
X88800000Y-68016190D01*
X88561904Y-68492380D02*
X88561904Y-67492380D01*
X88942857Y-67492380D01*
X89038095Y-67540000D01*
X89085714Y-67587619D01*
X89133333Y-67682857D01*
X89133333Y-67825714D01*
X89085714Y-67920952D01*
X89038095Y-67968571D01*
X88942857Y-68016190D01*
X88561904Y-68016190D01*
X89466666Y-67492380D02*
X90133333Y-67492380D01*
X89704761Y-68492380D01*
G04 #@! TO.C,R6*
X121753333Y-98877380D02*
X121420000Y-98401190D01*
X121181904Y-98877380D02*
X121181904Y-97877380D01*
X121562857Y-97877380D01*
X121658095Y-97925000D01*
X121705714Y-97972619D01*
X121753333Y-98067857D01*
X121753333Y-98210714D01*
X121705714Y-98305952D01*
X121658095Y-98353571D01*
X121562857Y-98401190D01*
X121181904Y-98401190D01*
X122610476Y-97877380D02*
X122420000Y-97877380D01*
X122324761Y-97925000D01*
X122277142Y-97972619D01*
X122181904Y-98115476D01*
X122134285Y-98305952D01*
X122134285Y-98686904D01*
X122181904Y-98782142D01*
X122229523Y-98829761D01*
X122324761Y-98877380D01*
X122515238Y-98877380D01*
X122610476Y-98829761D01*
X122658095Y-98782142D01*
X122705714Y-98686904D01*
X122705714Y-98448809D01*
X122658095Y-98353571D01*
X122610476Y-98305952D01*
X122515238Y-98258333D01*
X122324761Y-98258333D01*
X122229523Y-98305952D01*
X122181904Y-98353571D01*
X122134285Y-98448809D01*
G04 #@! TO.C,R5*
X116673333Y-98877380D02*
X116340000Y-98401190D01*
X116101904Y-98877380D02*
X116101904Y-97877380D01*
X116482857Y-97877380D01*
X116578095Y-97925000D01*
X116625714Y-97972619D01*
X116673333Y-98067857D01*
X116673333Y-98210714D01*
X116625714Y-98305952D01*
X116578095Y-98353571D01*
X116482857Y-98401190D01*
X116101904Y-98401190D01*
X117578095Y-97877380D02*
X117101904Y-97877380D01*
X117054285Y-98353571D01*
X117101904Y-98305952D01*
X117197142Y-98258333D01*
X117435238Y-98258333D01*
X117530476Y-98305952D01*
X117578095Y-98353571D01*
X117625714Y-98448809D01*
X117625714Y-98686904D01*
X117578095Y-98782142D01*
X117530476Y-98829761D01*
X117435238Y-98877380D01*
X117197142Y-98877380D01*
X117101904Y-98829761D01*
X117054285Y-98782142D01*
G04 #@! TO.C,R1*
X101433333Y-98877380D02*
X101100000Y-98401190D01*
X100861904Y-98877380D02*
X100861904Y-97877380D01*
X101242857Y-97877380D01*
X101338095Y-97925000D01*
X101385714Y-97972619D01*
X101433333Y-98067857D01*
X101433333Y-98210714D01*
X101385714Y-98305952D01*
X101338095Y-98353571D01*
X101242857Y-98401190D01*
X100861904Y-98401190D01*
X102385714Y-98877380D02*
X101814285Y-98877380D01*
X102100000Y-98877380D02*
X102100000Y-97877380D01*
X102004761Y-98020238D01*
X101909523Y-98115476D01*
X101814285Y-98163095D01*
G04 #@! TO.C,R2*
X96353333Y-98877380D02*
X96020000Y-98401190D01*
X95781904Y-98877380D02*
X95781904Y-97877380D01*
X96162857Y-97877380D01*
X96258095Y-97925000D01*
X96305714Y-97972619D01*
X96353333Y-98067857D01*
X96353333Y-98210714D01*
X96305714Y-98305952D01*
X96258095Y-98353571D01*
X96162857Y-98401190D01*
X95781904Y-98401190D01*
X96734285Y-97972619D02*
X96781904Y-97925000D01*
X96877142Y-97877380D01*
X97115238Y-97877380D01*
X97210476Y-97925000D01*
X97258095Y-97972619D01*
X97305714Y-98067857D01*
X97305714Y-98163095D01*
X97258095Y-98305952D01*
X96686666Y-98877380D01*
X97305714Y-98877380D01*
G04 #@! TD*
M02*
