M48
;DRILL file {KiCad 5.0.2-bee76a0~70~ubuntu18.04.1} date Mon 14 Jan 2019 22:09:28 GMT
;FORMAT={-:-/ absolute / inch / decimal}
FMAT,2
INCH,TZ
T1C0.0197
T2C0.0236
T3C0.0300
T4C0.0315
T5C0.0350
T6C0.0354
T7C0.0394
T8C0.0472
T9C0.0551
T10C0.0591
T11C0.0630
T12C0.0902
T13C0.1260
%
G90
G05
T1
X5.925Y-3.6
X5.925Y-3.6748
T2
X3.33Y-2.44
X3.8741Y-3.73
X4.05Y-3.75
X4.195Y-4.48
X4.2Y-2.1
X4.2Y-3.34
X4.21Y-4.55
X4.27Y-3.34
X4.3Y-2.1
X4.727Y-2.7
X5.14Y-2.22
X5.32Y-4.155
X5.325Y-4.225
X5.4528Y-2.5028
X5.5472Y-2.5
X5.549Y-4.249
X5.6Y-4.25
X5.65Y-4.25
X5.7Y-2.625
X5.75Y-3.025
X5.75Y-4.125
X5.75Y-4.25
X6.05Y-2.275
X6.48Y-2.52
X7.95Y-2.8
X8.0287Y-2.8
X3.1213Y-2.15
X3.2Y-2.15
X7.4713Y-2.8
X7.55Y-2.8
T3
X4.3Y-2.4
X4.3Y-2.5
X4.3Y-4.1
X4.3Y-4.2
X4.4Y-2.4
X4.4Y-2.5
X4.4Y-4.1
X4.4Y-4.2
X4.5Y-2.4
X4.5Y-2.5
X4.5Y-4.1
X4.5Y-4.2
X4.6Y-2.4
X4.6Y-2.5
X4.6Y-4.1
X4.6Y-4.2
X4.7Y-2.4
X4.7Y-2.5
X4.7Y-4.1
X4.7Y-4.2
X4.8Y-2.4
X4.8Y-2.5
X4.8Y-4.1
X4.8Y-4.2
X4.9Y-2.4
X4.9Y-2.5
X4.9Y-4.1
X4.9Y-4.2
X5.Y-2.4
X5.Y-2.5
X5.Y-4.1
X5.Y-4.2
X5.1Y-2.4
X5.1Y-2.5
X5.1Y-4.1
X5.1Y-4.2
X5.2Y-2.4
X5.2Y-2.5
X5.2Y-4.1
X5.2Y-4.2
T4
X7.3016Y-2.4
X7.4Y-2.4
X6.45Y-3.575
X6.45Y-3.6734
X7.7016Y-2.8
X7.8Y-2.8
X6.875Y-2.3
X6.875Y-2.3984
X7.0516Y-2.4
X7.15Y-2.4
X6.875Y-2.
X6.875Y-2.0984
X5.85Y-3.3281
X5.85Y-3.525
X6.025Y-3.575
X6.025Y-3.675
X6.025Y-3.775
X6.025Y-3.875
X6.325Y-3.575
X6.325Y-3.675
X6.325Y-3.775
X6.325Y-3.875
X6.0016Y-2.525
X6.1Y-2.525
X5.4Y-2.1
X5.4Y-2.4
X5.5Y-2.1
X5.5Y-2.4
X5.6Y-2.1
X5.6Y-2.4
X5.7Y-2.1
X5.7Y-2.4
X5.8Y-2.1
X5.8Y-2.4
X5.9Y-2.1
X5.9Y-2.4
X6.Y-2.1
X6.Y-2.4
X6.1Y-2.1
X6.1Y-2.4
X6.2Y-2.1
X6.2Y-2.4
X6.3Y-2.1
X6.3Y-2.4
X6.4Y-2.1
X6.4Y-2.4
X6.5Y-2.1
X6.5Y-2.4
X6.6Y-2.1
X6.6Y-2.4
X6.7Y-2.1
X6.7Y-2.4
X5.85Y-3.7531
X5.85Y-3.95
X6.2Y-1.975
X6.2984Y-1.975
X6.7Y-3.375
X6.7Y-3.475
X6.7Y-3.575
X6.7Y-3.675
X6.7Y-3.775
X6.7Y-3.875
X6.7Y-3.975
X7.Y-3.375
X7.Y-3.475
X7.Y-3.575
X7.Y-3.675
X7.Y-3.775
X7.Y-3.875
X7.Y-3.975
X7.1Y-2.71
X7.1Y-2.81
X7.5Y-2.525
X7.5Y-2.6234
X7.66Y-2.94
X7.76Y-2.94
X7.Y-1.975
X7.Y-2.275
X7.1Y-1.975
X7.1Y-2.275
X7.2Y-1.975
X7.2Y-2.275
X7.3Y-1.975
X7.3Y-2.275
X7.4Y-1.975
X7.4Y-2.275
X7.5Y-1.975
X7.5Y-2.275
X7.6Y-1.975
X7.6Y-2.275
X7.7Y-1.975
X7.7Y-2.275
X7.22Y-2.71
X7.22Y-2.81
X7.821Y-2.0766
X7.821Y-2.175
X6.55Y-2.875
X6.55Y-3.175
X6.65Y-2.875
X6.65Y-3.175
X6.75Y-2.875
X6.75Y-3.175
X6.85Y-2.875
X6.85Y-3.175
X5.9766Y-1.975
X6.075Y-1.975
X7.34Y-2.71
X7.34Y-2.81
X7.15Y-3.425
X7.15Y-3.5234
T5
X4.5681Y-4.6669
X4.5681Y-4.765
X4.6488Y-4.765
X4.7512Y-4.765
X4.8319Y-4.6669
X4.8319Y-4.765
X5.2681Y-4.6669
X5.2681Y-4.765
X5.3488Y-4.765
X5.4512Y-4.765
X5.5319Y-4.6669
X5.5319Y-4.765
T6
X7.Y-3.
X7.5Y-3.
T7
X4.9Y-4.4
X5.Y-4.4
X5.1Y-4.4
X5.2Y-4.4
X6.15Y-2.675
X6.15Y-2.775
X6.15Y-2.875
X6.15Y-2.975
X6.15Y-3.075
X6.15Y-3.175
X6.25Y-2.675
X6.25Y-2.775
X6.25Y-2.875
X6.25Y-2.975
X6.25Y-3.075
X6.25Y-3.175
X3.4148Y-4.6691
X3.4693Y-4.7809
X3.5238Y-4.6691
X3.5783Y-4.7809
X3.6329Y-4.6691
X3.6874Y-4.7809
X3.7419Y-4.6691
X3.7965Y-4.7809
X3.851Y-4.6691
X3.8772Y-1.803
X3.9222Y-1.725
X3.9222Y-1.8809
X3.9673Y-1.803
X4.0124Y-1.725
X4.0124Y-1.8809
X4.0575Y-1.803
X4.1026Y-1.725
X4.1026Y-1.8809
X4.1476Y-1.803
X4.1927Y-1.725
X4.1927Y-1.8809
X4.2378Y-1.803
X4.2829Y-1.725
X4.2829Y-1.8809
X7.3043Y-1.8307
X7.3589Y-1.7189
X7.4134Y-1.8307
X7.4679Y-1.7189
X7.5224Y-1.8307
X7.577Y-1.7189
X7.6315Y-1.8307
X7.686Y-1.7189
X7.7406Y-1.8307
X3.025Y-2.775
X3.125Y-2.775
X3.225Y-2.775
X3.325Y-2.775
X3.425Y-2.775
X3.525Y-2.775
X3.625Y-2.775
X5.1728Y-1.8309
X5.2274Y-1.7191
X5.2819Y-1.8309
X5.3364Y-1.7191
X5.3909Y-1.8309
X5.4455Y-1.7191
X5.5Y-1.8309
X5.5545Y-1.7191
X5.6091Y-1.8309
X5.6636Y-1.7191
X5.7181Y-1.8309
X5.7726Y-1.7191
X5.8272Y-1.8309
X5.8817Y-1.7191
X5.9362Y-1.8309
X5.9907Y-1.7191
X6.0453Y-1.8309
X6.0998Y-1.7191
X6.1543Y-1.8309
X6.2089Y-1.7191
X6.2634Y-1.8309
X6.3179Y-1.7191
X6.3724Y-1.8309
X6.427Y-1.7191
X6.4815Y-1.8309
X8.Y-3.05
X8.Y-3.15
X8.Y-3.25
T8
X4.0836Y-2.1187
X4.0836Y-2.6187
X7.Y-4.175
X7.2Y-4.175
X6.25Y-4.175
X6.45Y-4.175
X5.85Y-4.175
X6.05Y-4.175
X6.625Y-4.175
X6.825Y-4.175
X6.65Y-2.725
X6.85Y-2.725
X3.7293Y-2.1187
X3.7293Y-2.6187
X4.4Y-2.95
X4.4Y-3.45
X7.825Y-4.25
X8.025Y-4.25
X3.9065Y-2.1187
X3.9065Y-2.6187
X4.6Y-2.95
X4.6Y-3.45
X4.79Y-2.95
X4.79Y-3.45
T9
X7.475Y-4.6
X7.5734Y-4.5016
X7.5734Y-4.9937
X7.7703Y-4.6
X7.9671Y-4.5016
X7.9671Y-4.9937
X8.0656Y-4.6
X5.8797Y-4.6031
X5.9781Y-4.5047
X5.9781Y-4.9969
X6.175Y-4.6031
X6.3719Y-4.5047
X6.3719Y-4.9969
X6.4703Y-4.6031
X6.6797Y-4.6
X6.7781Y-4.5016
X6.7781Y-4.9937
X6.975Y-4.6
X7.1719Y-4.5016
X7.1719Y-4.9937
X7.2703Y-4.6
T10
X7.65Y-3.15
X7.65Y-3.9567
T11
X2.99Y-1.8431
X3.175Y-1.725
X3.175Y-1.9612
T12
X4.4339Y-4.8831
X4.7Y-4.915
X4.9661Y-4.8831
X5.1339Y-4.8831
X5.4Y-4.915
X5.6661Y-4.8831
T13
X3.1407Y-4.725
X4.125Y-4.725
X3.6Y-1.825
X4.5843Y-1.825
X7.0303Y-1.7748
X8.0146Y-1.7748
X4.9Y-1.775
X6.7543Y-1.775
T7
X7.764Y-2.5591G85X7.764Y-2.5984
G05
X7.9805Y-2.5591G85X7.9805Y-2.5984
G05
X8.075Y-2.4803G85X8.075Y-2.5197
G05
T0
M30
